SplineFontDB: 3.2
FontName: tmil5mb1
FullName: tmil5mb1
FamilyName: tmil5mb1
Weight: Regular
Copyright: Copyright 2022 The Noto Project Authors (https://github.com/notofonts/tamil)
Version: 2.003
ItalicAngle: 0
UnderlinePosition: -125
UnderlineWidth: 50
Ascent: 800
Descent: 200
InvalidEm: 0
sfntRevision: 0x000200c5
LayerCount: 2
Layer: 0 1 "Back" 1
Layer: 1 1 "Fore" 0
XUID: [1021 467 -1121320856 7345392]
StyleMap: 0x0040
FSType: 0
OS2Version: 4
OS2_WeightWidthSlopeOnly: 0
OS2_UseTypoMetrics: 1
CreationTime: 1485160965
ModificationTime: 1684151435
PfmFamily: 81
TTFWeight: 400
TTFWidth: 5
LineGap: 0
VLineGap: 0
Panose: 0 0 0 0 0 0 0 0 0 0
OS2TypoAscent: 870
OS2TypoAOffset: 0
OS2TypoDescent: -370
OS2TypoDOffset: 0
OS2TypoLinegap: 0
OS2WinAscent: 870
OS2WinAOffset: 0
OS2WinDescent: 370
OS2WinDOffset: 0
HheadAscent: 870
HheadAOffset: 0
HheadDescent: -370
HheadDOffset: 0
OS2SubXSize: 650
OS2SubYSize: 600
OS2SubXOff: 0
OS2SubYOff: 75
OS2SupXSize: 650
OS2SupYSize: 600
OS2SupXOff: 0
OS2SupYOff: 350
OS2StrikeYSize: 50
OS2StrikeYPos: 332
OS2CapHeight: 714
OS2XHeight: 554
OS2Vendor: 'GOOG'
OS2CodePages: 00000093.00000000
OS2UnicodeRanges: 80108003.02002043.00000000.00000000
Lookup: 4 0 0 "'abvs' Above Base Substitutions in Tamil2 lookup 0" { "'abvs' Above Base Substitutions in Tamil2 lookup 0 subtable"  } ['abvs' ('DFLT' <'dflt' > 'tml2' <'dflt' > ) ]
Lookup: 4 256 0 "'abvs' Above Base Substitutions in Tamil2 lookup 1" { "'abvs' Above Base Substitutions in Tamil2 lookup 1 subtable"  } ['abvs' ('DFLT' <'dflt' > 'tml2' <'dflt' > ) ]
Lookup: 4 0 0 "'akhn' Akhand in Tamil2 lookup 2" { "'akhn' Akhand in Tamil2 lookup 2 subtable"  } ['akhn' ('DFLT' <'dflt' > 'tml2' <'dflt' > ) ]
Lookup: 4 256 0 "'haln' Halant Forms in Tamil2 lookup 3" { "'haln' Halant Forms in Tamil2 lookup 3 subtable"  } ['haln' ('DFLT' <'dflt' > 'tml2' <'dflt' > ) ]

StartChar: exclam.tamil
Encoding: 33 33 3
Width: 1619
Flags: W
LayerCount: 2
Fore
SplineSet
781.5 201 m 1,0,-1
 756.5 714 l 1,1,-1
 863.5 714 l 1,2,-1
 838.5 201 l 1,3,-1
 781.5 201 l 1,0,-1
809.5 -12 m 256,4,5
 781.5 -12 781.5 -12 764.5 5 c 128,-1,6
 747.5 22 747.5 22 747.5 56 c 0,7,8
 747.5 88 747.5 88 763.5 106 c 128,-1,9
 779.5 124 779.5 124 809.5 124 c 0,10,11
 838.5 124 838.5 124 855 106 c 128,-1,12
 871.5 88 871.5 88 871.5 56 c 0,13,14
 871.5 23 871.5 23 854.5 5.5 c 128,-1,15
 837.5 -12 837.5 -12 809.5 -12 c 256,4,5
EndSplineSet
EndChar

StartChar: quotedbl.tamil
Encoding: 34 34 4
Width: 1619
Flags: W
LayerCount: 2
Fore
SplineSet
691.5 542 m 1,0,-1
 666.5 800 l 1,1,-1
 777.5 800 l 1,2,-1
 752.5 542 l 1,3,-1
 691.5 542 l 1,0,-1
866.5 542 m 1,4,-1
 841.5 800 l 1,5,-1
 952.5 800 l 1,6,-1
 927.5 542 l 1,7,-1
 866.5 542 l 1,4,-1
EndSplineSet
EndChar

StartChar: numbersign.tamil
Encoding: 35 35 5
Width: 1619
Flags: W
LayerCount: 2
Fore
SplineSet
598.5 0 m 1,0,-1
 638.5 209 l 1,1,-1
 511.5 209 l 1,2,-1
 511.5 276 l 1,3,-1
 651.5 276 l 1,4,-1
 682.5 436 l 1,5,-1
 548.5 436 l 1,6,-1
 548.5 503 l 1,7,-1
 694.5 503 l 1,8,-1
 734.5 714 l 1,9,-1
 806.5 714 l 1,10,-1
 766.5 503 l 1,11,-1
 908.5 503 l 1,12,-1
 948.5 714 l 1,13,-1
 1020.5 714 l 1,14,-1
 980.5 503 l 1,15,-1
 1107.5 503 l 1,16,-1
 1107.5 436 l 1,17,-1
 967.5 436 l 1,18,-1
 937.5 276 l 1,19,-1
 1072.5 276 l 1,20,-1
 1072.5 209 l 1,21,-1
 924.5 209 l 1,22,-1
 884.5 0 l 1,23,-1
 812.5 0 l 1,24,-1
 852.5 209 l 1,25,-1
 710.5 209 l 1,26,-1
 670.5 0 l 1,27,-1
 598.5 0 l 1,0,-1
722.5 276 m 1,28,-1
 865.5 276 l 1,29,-1
 895.5 436 l 1,30,-1
 753.5 436 l 1,31,-1
 722.5 276 l 1,28,-1
EndSplineSet
EndChar

StartChar: percent.tamil
Encoding: 37 37 6
Width: 1619
Flags: W
LayerCount: 2
Fore
SplineSet
573 0 m 1,0,-1
 969 714 l 1,1,-1
 1046 714 l 1,2,-1
 650 0 l 1,3,-1
 573 0 l 1,0,-1
589 276 m 0,4,5
 519 276 519 276 481 334 c 128,-1,6
 443 392 443 392 443 501 c 0,7,8
 443 613 443 613 479.5 669 c 128,-1,9
 516 725 516 725 589 725 c 0,10,11
 661 725 661 725 700 667 c 128,-1,12
 739 609 739 609 739 501 c 0,13,14
 739 390 739 390 701 333 c 128,-1,15
 663 276 663 276 589 276 c 0,4,5
589 339 m 0,16,17
 628 339 628 339 647 379.5 c 128,-1,18
 666 420 666 420 666 501 c 0,19,20
 666 581 666 581 647 621.5 c 128,-1,21
 628 662 628 662 589 662 c 0,22,23
 551 662 551 662 533.5 621.5 c 128,-1,24
 516 581 516 581 516 501 c 256,25,26
 516 421 516 421 533.5 380 c 128,-1,27
 551 339 551 339 589 339 c 0,16,17
1026 -12 m 0,28,29
 957 -12 957 -12 918.5 46 c 128,-1,30
 880 104 880 104 880 213 c 0,31,32
 880 325 880 325 916.5 380.5 c 128,-1,33
 953 436 953 436 1026 436 c 0,34,35
 1098 436 1098 436 1137 378 c 128,-1,36
 1176 320 1176 320 1176 213 c 0,37,38
 1176 101 1176 101 1138 44.5 c 128,-1,39
 1100 -12 1100 -12 1026 -12 c 0,28,29
1026 51 m 0,40,41
 1065 51 1065 51 1084 91 c 128,-1,42
 1103 131 1103 131 1103 213 c 0,43,44
 1103 293 1103 293 1084 333 c 128,-1,45
 1065 373 1065 373 1026 373 c 0,46,47
 988 373 988 373 970.5 333 c 128,-1,48
 953 293 953 293 953 213 c 0,49,50
 953 131 953 131 970.5 91 c 128,-1,51
 988 51 988 51 1026 51 c 0,40,41
EndSplineSet
EndChar

StartChar: quotesingle.tamil
Encoding: 39 39 7
Width: 1619
Flags: W
LayerCount: 2
Fore
SplineSet
779 542 m 1,0,-1
 754 800 l 1,1,-1
 865 800 l 1,2,-1
 840 542 l 1,3,-1
 779 542 l 1,0,-1
EndSplineSet
EndChar

StartChar: parenleft.tamil
Encoding: 40 40 8
Width: 1619
Flags: W
LayerCount: 2
Fore
SplineSet
695 283 m 0,0,1
 695 379 695 379 711 471 c 128,-1,2
 727 563 727 563 760 646.5 c 128,-1,3
 793 730 793 730 842 800 c 1,4,-1
 924 800 l 1,5,6
 878 727 878 727 847 642 c 128,-1,7
 816 557 816 557 800 466 c 128,-1,8
 784 375 784 375 784 282 c 256,9,10
 784 189 784 189 799 97 c 128,-1,11
 814 5 814 5 845 -81 c 128,-1,12
 876 -167 876 -167 924 -244 c 1,13,-1
 842 -244 l 1,14,15
 793 -172 793 -172 760 -87 c 128,-1,16
 727 -2 727 -2 711 92 c 128,-1,17
 695 186 695 186 695 283 c 0,0,1
EndSplineSet
EndChar

StartChar: parenright.tamil
Encoding: 41 41 9
Width: 1619
Flags: W
LayerCount: 2
Fore
SplineSet
924 273 m 0,0,1
 924 177 924 177 908 85 c 128,-1,2
 892 -7 892 -7 859.5 -90 c 128,-1,3
 827 -173 827 -173 777 -244 c 1,4,-1
 695 -244 l 1,5,6
 741 -170 741 -170 772 -85.5 c 128,-1,7
 803 -1 803 -1 819 90 c 128,-1,8
 835 181 835 181 835 274 c 256,9,10
 835 367 835 367 820 458.5 c 128,-1,11
 805 550 805 550 774 636.5 c 128,-1,12
 743 723 743 723 695 800 c 1,13,-1
 777 800 l 1,14,15
 827 728 827 728 859.5 643 c 128,-1,16
 892 558 892 558 908 464.5 c 128,-1,17
 924 371 924 371 924 273 c 0,0,1
EndSplineSet
EndChar

StartChar: asterisk.tamil
Encoding: 42 42 10
Width: 1619
Flags: W
LayerCount: 2
Fore
SplineSet
859.5 800 m 1,0,-1
 838.5 608 l 1,1,-1
 1030.5 662 l 1,2,-1
 1044.5 568 l 1,3,-1
 857.5 554 l 1,4,-1
 979.5 395 l 1,5,-1
 892.5 348 l 1,6,-1
 809.5 528 l 1,7,-1
 727.5 348 l 1,8,-1
 639.5 395 l 1,9,-1
 760.5 554 l 1,10,-1
 574.5 568 l 1,11,-1
 588.5 662 l 1,12,-1
 780.5 608 l 1,13,-1
 759.5 800 l 1,14,-1
 859.5 800 l 1,0,-1
EndSplineSet
EndChar

StartChar: plus.tamil
Encoding: 43 43 11
Width: 1619
Flags: W
LayerCount: 2
Fore
SplineSet
773.5 111 m 1,0,-1
 773.5 317 l 1,1,-1
 574.5 317 l 1,2,-1
 574.5 388 l 1,3,-1
 773.5 388 l 1,4,-1
 773.5 595 l 1,5,-1
 845.5 595 l 1,6,-1
 845.5 388 l 1,7,-1
 1044.5 388 l 1,8,-1
 1044.5 317 l 1,9,-1
 845.5 317 l 1,10,-1
 845.5 111 l 1,11,-1
 773.5 111 l 1,0,-1
EndSplineSet
EndChar

StartChar: comma.tamil
Encoding: 44 44 12
Width: 1619
Flags: W
LayerCount: 2
Fore
SplineSet
879 116 m 1,0,-1
 886 105 l 1,1,2
 877 70 877 70 863 29.5 c 128,-1,3
 849 -11 849 -11 833 -51.5 c 128,-1,4
 817 -92 817 -92 800 -129 c 1,5,-1
 733 -129 l 1,6,7
 743 -89 743 -89 752 -45.5 c 128,-1,8
 761 -2 761 -2 769 40 c 128,-1,9
 777 82 777 82 782 116 c 1,10,-1
 879 116 l 1,0,-1
EndSplineSet
EndChar

StartChar: hyphen.tamil
Encoding: 45 45 13
Width: 1619
Flags: W
LayerCount: 2
Fore
SplineSet
688.5 262 m 1,0,-1
 688.5 344 l 1,1,-1
 930.5 344 l 1,2,-1
 930.5 262 l 1,3,-1
 688.5 262 l 1,0,-1
EndSplineSet
EndChar

StartChar: period.tamil
Encoding: 46 46 14
Width: 1619
Flags: W
LayerCount: 2
Fore
SplineSet
809.5 -12 m 256,0,1
 783.5 -12 783.5 -12 765.5 4 c 128,-1,2
 747.5 20 747.5 20 747.5 56 c 0,3,4
 747.5 94 747.5 94 765.5 109 c 128,-1,5
 783.5 124 783.5 124 809.5 124 c 256,6,7
 835.5 124 835.5 124 853.5 109 c 128,-1,8
 871.5 94 871.5 94 871.5 56 c 0,9,10
 871.5 20 871.5 20 853.5 4 c 128,-1,11
 835.5 -12 835.5 -12 809.5 -12 c 256,0,1
EndSplineSet
EndChar

StartChar: slash.tamil
Encoding: 47 47 15
Width: 1619
Flags: W
LayerCount: 2
Fore
SplineSet
634 -244 m 1,0,-1
 900 800 l 1,1,-1
 985 800 l 1,2,-1
 719 -244 l 1,3,-1
 634 -244 l 1,0,-1
EndSplineSet
EndChar

StartChar: zero.tamil
Encoding: 48 48 16
Width: 1619
Flags: W
LayerCount: 2
Fore
SplineSet
604 85 m 0,0,1
 604 103 604 103 619.5 118 c 128,-1,2
 635 133 635 133 663 144.5 c 128,-1,3
 691 156 691 156 728.5 162.5 c 128,-1,4
 766 169 766 169 809 169 c 0,5,6
 853 169 853 169 890.5 162.5 c 128,-1,7
 928 156 928 156 955.5 144.5 c 128,-1,8
 983 133 983 133 999 118 c 128,-1,9
 1015 103 1015 103 1015 85 c 0,10,11
 1015 68 1015 68 999 53 c 128,-1,12
 983 38 983 38 955.5 27 c 128,-1,13
 928 16 928 16 890.5 9.5 c 128,-1,14
 853 3 853 3 809 3 c 0,15,16
 766 3 766 3 728.5 9.5 c 128,-1,17
 691 16 691 16 663 27 c 128,-1,18
 635 38 635 38 619.5 53 c 128,-1,19
 604 68 604 68 604 85 c 0,0,1
684 85 m 256,20,21
 684 74 684 74 693.5 64.5 c 128,-1,22
 703 55 703 55 720 48.5 c 128,-1,23
 737 42 737 42 760 38 c 128,-1,24
 783 34 783 34 809 34 c 0,25,26
 836 34 836 34 858.5 38 c 128,-1,27
 881 42 881 42 898 48.5 c 128,-1,28
 915 55 915 55 924.5 64.5 c 128,-1,29
 934 74 934 74 934 85 c 256,30,31
 934 96 934 96 924.5 105.5 c 128,-1,32
 915 115 915 115 898 122 c 128,-1,33
 881 129 881 129 858.5 133 c 128,-1,34
 836 137 836 137 809 137 c 0,35,36
 783 137 783 137 760 133 c 128,-1,37
 737 129 737 129 720 122 c 128,-1,38
 703 115 703 115 693.5 105.5 c 128,-1,39
 684 96 684 96 684 85 c 256,20,21
604 272 m 0,40,41
 604 290 604 290 619.5 305 c 128,-1,42
 635 320 635 320 663 331.5 c 128,-1,43
 691 343 691 343 728.5 349 c 128,-1,44
 766 355 766 355 809 355 c 0,45,46
 853 355 853 355 890.5 349 c 128,-1,47
 928 343 928 343 955.5 331.5 c 128,-1,48
 983 320 983 320 999 305 c 128,-1,49
 1015 290 1015 290 1015 272 c 0,50,51
 1015 255 1015 255 999 240 c 128,-1,52
 983 225 983 225 955.5 214 c 128,-1,53
 928 203 928 203 890.5 196 c 128,-1,54
 853 189 853 189 809 189 c 0,55,56
 766 189 766 189 728.5 196 c 128,-1,57
 691 203 691 203 663 214 c 128,-1,58
 635 225 635 225 619.5 240 c 128,-1,59
 604 255 604 255 604 272 c 0,40,41
684 272 m 256,60,61
 684 261 684 261 693.5 251.5 c 128,-1,62
 703 242 703 242 720 235 c 128,-1,63
 737 228 737 228 760 224 c 128,-1,64
 783 220 783 220 809 220 c 0,65,66
 836 220 836 220 858.5 224 c 128,-1,67
 881 228 881 228 898 235 c 128,-1,68
 915 242 915 242 924.5 251.5 c 128,-1,69
 934 261 934 261 934 272 c 256,70,71
 934 283 934 283 924.5 292.5 c 128,-1,72
 915 302 915 302 898 309 c 128,-1,73
 881 316 881 316 858.5 320 c 128,-1,74
 836 324 836 324 809 324 c 0,75,76
 783 324 783 324 760 320 c 128,-1,77
 737 316 737 316 720 309 c 128,-1,78
 703 302 703 302 693.5 292.5 c 128,-1,79
 684 283 684 283 684 272 c 256,60,61
604 461 m 256,80,81
 604 478 604 478 619.5 493.5 c 128,-1,82
 635 509 635 509 663 520 c 128,-1,83
 691 531 691 531 728.5 537.5 c 128,-1,84
 766 544 766 544 809 544 c 0,85,86
 853 544 853 544 890.5 537.5 c 128,-1,87
 928 531 928 531 955.5 520 c 128,-1,88
 983 509 983 509 999 493.5 c 128,-1,89
 1015 478 1015 478 1015 461 c 256,90,91
 1015 444 1015 444 999 429 c 128,-1,92
 983 414 983 414 955.5 402.5 c 128,-1,93
 928 391 928 391 890.5 384.5 c 128,-1,94
 853 378 853 378 809 378 c 0,95,96
 766 378 766 378 728.5 384.5 c 128,-1,97
 691 391 691 391 663 402.5 c 128,-1,98
 635 414 635 414 619.5 429 c 128,-1,99
 604 444 604 444 604 461 c 256,80,81
684 461 m 256,100,101
 684 450 684 450 693.5 440.5 c 128,-1,102
 703 431 703 431 720 424 c 128,-1,103
 737 417 737 417 760 413 c 128,-1,104
 783 409 783 409 809 409 c 0,105,106
 836 409 836 409 858.5 413 c 128,-1,107
 881 417 881 417 898 424 c 128,-1,108
 915 431 915 431 924.5 440.5 c 128,-1,109
 934 450 934 450 934 461 c 256,110,111
 934 472 934 472 924.5 481.5 c 128,-1,112
 915 491 915 491 898 498 c 128,-1,113
 881 505 881 505 858.5 509 c 128,-1,114
 836 513 836 513 809 513 c 0,115,116
 783 513 783 513 760 509 c 128,-1,117
 737 505 737 505 720 498 c 128,-1,118
 703 491 703 491 693.5 481.5 c 128,-1,119
 684 472 684 472 684 461 c 256,100,101
604 648 m 256,120,121
 604 665 604 665 619.5 680.5 c 128,-1,122
 635 696 635 696 663 707 c 128,-1,123
 691 718 691 718 728.5 724.5 c 128,-1,124
 766 731 766 731 809 731 c 0,125,126
 853 731 853 731 890.5 724.5 c 128,-1,127
 928 718 928 718 955.5 707 c 128,-1,128
 983 696 983 696 999 680.5 c 128,-1,129
 1015 665 1015 665 1015 648 c 256,130,131
 1015 631 1015 631 999 616 c 128,-1,132
 983 601 983 601 955.5 589.5 c 128,-1,133
 928 578 928 578 890.5 571.5 c 128,-1,134
 853 565 853 565 809 565 c 0,135,136
 766 565 766 565 728.5 571.5 c 128,-1,137
 691 578 691 578 663 589.5 c 128,-1,138
 635 601 635 601 619.5 616 c 128,-1,139
 604 631 604 631 604 648 c 256,120,121
684 648 m 0,140,141
 684 637 684 637 693.5 627.5 c 128,-1,142
 703 618 703 618 720 611 c 128,-1,143
 737 604 737 604 760 600 c 128,-1,144
 783 596 783 596 809 596 c 0,145,146
 836 596 836 596 858.5 600 c 128,-1,147
 881 604 881 604 898 611 c 128,-1,148
 915 618 915 618 924.5 627.5 c 128,-1,149
 934 637 934 637 934 648 c 0,150,151
 934 658 934 658 924.5 668 c 128,-1,152
 915 678 915 678 898 685 c 128,-1,153
 881 692 881 692 858.5 696 c 128,-1,154
 836 700 836 700 809 700 c 0,155,156
 783 700 783 700 760 696 c 128,-1,157
 737 692 737 692 720 685 c 128,-1,158
 703 678 703 678 693.5 668 c 128,-1,159
 684 658 684 658 684 648 c 0,140,141
EndSplineSet
EndChar

StartChar: one.tamil
Encoding: 49 49 17
Width: 1619
Flags: W
LayerCount: 2
Fore
SplineSet
604 85 m 0,0,1
 604 103 604 103 619.5 118 c 128,-1,2
 635 133 635 133 663 144.5 c 128,-1,3
 691 156 691 156 728.5 162.5 c 128,-1,4
 766 169 766 169 809 169 c 0,5,6
 853 169 853 169 890.5 162.5 c 128,-1,7
 928 156 928 156 955.5 144.5 c 128,-1,8
 983 133 983 133 999 118 c 128,-1,9
 1015 103 1015 103 1015 85 c 0,10,11
 1015 68 1015 68 999 53 c 128,-1,12
 983 38 983 38 955.5 27 c 128,-1,13
 928 16 928 16 890.5 9.5 c 128,-1,14
 853 3 853 3 809 3 c 0,15,16
 766 3 766 3 728.5 9.5 c 128,-1,17
 691 16 691 16 663 27 c 128,-1,18
 635 38 635 38 619.5 53 c 128,-1,19
 604 68 604 68 604 85 c 0,0,1
604 272 m 0,20,21
 604 290 604 290 619.5 305 c 128,-1,22
 635 320 635 320 663 331.5 c 128,-1,23
 691 343 691 343 728.5 349 c 128,-1,24
 766 355 766 355 809 355 c 0,25,26
 853 355 853 355 890.5 349 c 128,-1,27
 928 343 928 343 955.5 331.5 c 128,-1,28
 983 320 983 320 999 305 c 128,-1,29
 1015 290 1015 290 1015 272 c 0,30,31
 1015 255 1015 255 999 240 c 128,-1,32
 983 225 983 225 955.5 214 c 128,-1,33
 928 203 928 203 890.5 196 c 128,-1,34
 853 189 853 189 809 189 c 0,35,36
 766 189 766 189 728.5 196 c 128,-1,37
 691 203 691 203 663 214 c 128,-1,38
 635 225 635 225 619.5 240 c 128,-1,39
 604 255 604 255 604 272 c 0,20,21
684 272 m 256,40,41
 684 261 684 261 693.5 251.5 c 128,-1,42
 703 242 703 242 720 235 c 128,-1,43
 737 228 737 228 760 224 c 128,-1,44
 783 220 783 220 809 220 c 0,45,46
 836 220 836 220 858.5 224 c 128,-1,47
 881 228 881 228 898 235 c 128,-1,48
 915 242 915 242 924.5 251.5 c 128,-1,49
 934 261 934 261 934 272 c 256,50,51
 934 283 934 283 924.5 292.5 c 128,-1,52
 915 302 915 302 898 309 c 128,-1,53
 881 316 881 316 858.5 320 c 128,-1,54
 836 324 836 324 809 324 c 0,55,56
 783 324 783 324 760 320 c 128,-1,57
 737 316 737 316 720 309 c 128,-1,58
 703 302 703 302 693.5 292.5 c 128,-1,59
 684 283 684 283 684 272 c 256,40,41
604 461 m 256,60,61
 604 478 604 478 619.5 493.5 c 128,-1,62
 635 509 635 509 663 520 c 128,-1,63
 691 531 691 531 728.5 537.5 c 128,-1,64
 766 544 766 544 809 544 c 0,65,66
 853 544 853 544 890.5 537.5 c 128,-1,67
 928 531 928 531 955.5 520 c 128,-1,68
 983 509 983 509 999 493.5 c 128,-1,69
 1015 478 1015 478 1015 461 c 256,70,71
 1015 444 1015 444 999 429 c 128,-1,72
 983 414 983 414 955.5 402.5 c 128,-1,73
 928 391 928 391 890.5 384.5 c 128,-1,74
 853 378 853 378 809 378 c 0,75,76
 766 378 766 378 728.5 384.5 c 128,-1,77
 691 391 691 391 663 402.5 c 128,-1,78
 635 414 635 414 619.5 429 c 128,-1,79
 604 444 604 444 604 461 c 256,60,61
684 461 m 256,80,81
 684 450 684 450 693.5 440.5 c 128,-1,82
 703 431 703 431 720 424 c 128,-1,83
 737 417 737 417 760 413 c 128,-1,84
 783 409 783 409 809 409 c 0,85,86
 836 409 836 409 858.5 413 c 128,-1,87
 881 417 881 417 898 424 c 128,-1,88
 915 431 915 431 924.5 440.5 c 128,-1,89
 934 450 934 450 934 461 c 256,90,91
 934 472 934 472 924.5 481.5 c 128,-1,92
 915 491 915 491 898 498 c 128,-1,93
 881 505 881 505 858.5 509 c 128,-1,94
 836 513 836 513 809 513 c 0,95,96
 783 513 783 513 760 509 c 128,-1,97
 737 505 737 505 720 498 c 128,-1,98
 703 491 703 491 693.5 481.5 c 128,-1,99
 684 472 684 472 684 461 c 256,80,81
604 648 m 256,100,101
 604 665 604 665 619.5 680.5 c 128,-1,102
 635 696 635 696 663 707 c 128,-1,103
 691 718 691 718 728.5 724.5 c 128,-1,104
 766 731 766 731 809 731 c 0,105,106
 853 731 853 731 890.5 724.5 c 128,-1,107
 928 718 928 718 955.5 707 c 128,-1,108
 983 696 983 696 999 680.5 c 128,-1,109
 1015 665 1015 665 1015 648 c 256,110,111
 1015 631 1015 631 999 616 c 128,-1,112
 983 601 983 601 955.5 589.5 c 128,-1,113
 928 578 928 578 890.5 571.5 c 128,-1,114
 853 565 853 565 809 565 c 0,115,116
 766 565 766 565 728.5 571.5 c 128,-1,117
 691 578 691 578 663 589.5 c 128,-1,118
 635 601 635 601 619.5 616 c 128,-1,119
 604 631 604 631 604 648 c 256,100,101
684 648 m 0,120,121
 684 637 684 637 693.5 627.5 c 128,-1,122
 703 618 703 618 720 611 c 128,-1,123
 737 604 737 604 760 600 c 128,-1,124
 783 596 783 596 809 596 c 0,125,126
 836 596 836 596 858.5 600 c 128,-1,127
 881 604 881 604 898 611 c 128,-1,128
 915 618 915 618 924.5 627.5 c 128,-1,129
 934 637 934 637 934 648 c 0,130,131
 934 658 934 658 924.5 668 c 128,-1,132
 915 678 915 678 898 685 c 128,-1,133
 881 692 881 692 858.5 696 c 128,-1,134
 836 700 836 700 809 700 c 0,135,136
 783 700 783 700 760 696 c 128,-1,137
 737 692 737 692 720 685 c 128,-1,138
 703 678 703 678 693.5 668 c 128,-1,139
 684 658 684 658 684 648 c 0,120,121
EndSplineSet
EndChar

StartChar: two.tamil
Encoding: 50 50 18
Width: 1619
Flags: W
LayerCount: 2
Fore
SplineSet
604 85 m 0,0,1
 604 103 604 103 619.5 118 c 128,-1,2
 635 133 635 133 663 144.5 c 128,-1,3
 691 156 691 156 728.5 162.5 c 128,-1,4
 766 169 766 169 809 169 c 0,5,6
 853 169 853 169 890.5 162.5 c 128,-1,7
 928 156 928 156 955.5 144.5 c 128,-1,8
 983 133 983 133 999 118 c 128,-1,9
 1015 103 1015 103 1015 85 c 0,10,11
 1015 68 1015 68 999 53 c 128,-1,12
 983 38 983 38 955.5 27 c 128,-1,13
 928 16 928 16 890.5 9.5 c 128,-1,14
 853 3 853 3 809 3 c 0,15,16
 766 3 766 3 728.5 9.5 c 128,-1,17
 691 16 691 16 663 27 c 128,-1,18
 635 38 635 38 619.5 53 c 128,-1,19
 604 68 604 68 604 85 c 0,0,1
684 85 m 256,20,21
 684 74 684 74 693.5 64.5 c 128,-1,22
 703 55 703 55 720 48.5 c 128,-1,23
 737 42 737 42 760 38 c 128,-1,24
 783 34 783 34 809 34 c 0,25,26
 836 34 836 34 858.5 38 c 128,-1,27
 881 42 881 42 898 48.5 c 128,-1,28
 915 55 915 55 924.5 64.5 c 128,-1,29
 934 74 934 74 934 85 c 256,30,31
 934 96 934 96 924.5 105.5 c 128,-1,32
 915 115 915 115 898 122 c 128,-1,33
 881 129 881 129 858.5 133 c 128,-1,34
 836 137 836 137 809 137 c 0,35,36
 783 137 783 137 760 133 c 128,-1,37
 737 129 737 129 720 122 c 128,-1,38
 703 115 703 115 693.5 105.5 c 128,-1,39
 684 96 684 96 684 85 c 256,20,21
604 272 m 0,40,41
 604 290 604 290 619.5 305 c 128,-1,42
 635 320 635 320 663 331.5 c 128,-1,43
 691 343 691 343 728.5 349 c 128,-1,44
 766 355 766 355 809 355 c 0,45,46
 853 355 853 355 890.5 349 c 128,-1,47
 928 343 928 343 955.5 331.5 c 128,-1,48
 983 320 983 320 999 305 c 128,-1,49
 1015 290 1015 290 1015 272 c 0,50,51
 1015 255 1015 255 999 240 c 128,-1,52
 983 225 983 225 955.5 214 c 128,-1,53
 928 203 928 203 890.5 196 c 128,-1,54
 853 189 853 189 809 189 c 0,55,56
 766 189 766 189 728.5 196 c 128,-1,57
 691 203 691 203 663 214 c 128,-1,58
 635 225 635 225 619.5 240 c 128,-1,59
 604 255 604 255 604 272 c 0,40,41
604 461 m 256,60,61
 604 478 604 478 619.5 493.5 c 128,-1,62
 635 509 635 509 663 520 c 128,-1,63
 691 531 691 531 728.5 537.5 c 128,-1,64
 766 544 766 544 809 544 c 0,65,66
 853 544 853 544 890.5 537.5 c 128,-1,67
 928 531 928 531 955.5 520 c 128,-1,68
 983 509 983 509 999 493.5 c 128,-1,69
 1015 478 1015 478 1015 461 c 256,70,71
 1015 444 1015 444 999 429 c 128,-1,72
 983 414 983 414 955.5 402.5 c 128,-1,73
 928 391 928 391 890.5 384.5 c 128,-1,74
 853 378 853 378 809 378 c 0,75,76
 766 378 766 378 728.5 384.5 c 128,-1,77
 691 391 691 391 663 402.5 c 128,-1,78
 635 414 635 414 619.5 429 c 128,-1,79
 604 444 604 444 604 461 c 256,60,61
684 461 m 256,80,81
 684 450 684 450 693.5 440.5 c 128,-1,82
 703 431 703 431 720 424 c 128,-1,83
 737 417 737 417 760 413 c 128,-1,84
 783 409 783 409 809 409 c 0,85,86
 836 409 836 409 858.5 413 c 128,-1,87
 881 417 881 417 898 424 c 128,-1,88
 915 431 915 431 924.5 440.5 c 128,-1,89
 934 450 934 450 934 461 c 256,90,91
 934 472 934 472 924.5 481.5 c 128,-1,92
 915 491 915 491 898 498 c 128,-1,93
 881 505 881 505 858.5 509 c 128,-1,94
 836 513 836 513 809 513 c 0,95,96
 783 513 783 513 760 509 c 128,-1,97
 737 505 737 505 720 498 c 128,-1,98
 703 491 703 491 693.5 481.5 c 128,-1,99
 684 472 684 472 684 461 c 256,80,81
604 648 m 256,100,101
 604 665 604 665 619.5 680.5 c 128,-1,102
 635 696 635 696 663 707 c 128,-1,103
 691 718 691 718 728.5 724.5 c 128,-1,104
 766 731 766 731 809 731 c 0,105,106
 853 731 853 731 890.5 724.5 c 128,-1,107
 928 718 928 718 955.5 707 c 128,-1,108
 983 696 983 696 999 680.5 c 128,-1,109
 1015 665 1015 665 1015 648 c 256,110,111
 1015 631 1015 631 999 616 c 128,-1,112
 983 601 983 601 955.5 589.5 c 128,-1,113
 928 578 928 578 890.5 571.5 c 128,-1,114
 853 565 853 565 809 565 c 0,115,116
 766 565 766 565 728.5 571.5 c 128,-1,117
 691 578 691 578 663 589.5 c 128,-1,118
 635 601 635 601 619.5 616 c 128,-1,119
 604 631 604 631 604 648 c 256,100,101
684 648 m 0,120,121
 684 637 684 637 693.5 627.5 c 128,-1,122
 703 618 703 618 720 611 c 128,-1,123
 737 604 737 604 760 600 c 128,-1,124
 783 596 783 596 809 596 c 0,125,126
 836 596 836 596 858.5 600 c 128,-1,127
 881 604 881 604 898 611 c 128,-1,128
 915 618 915 618 924.5 627.5 c 128,-1,129
 934 637 934 637 934 648 c 0,130,131
 934 658 934 658 924.5 668 c 128,-1,132
 915 678 915 678 898 685 c 128,-1,133
 881 692 881 692 858.5 696 c 128,-1,134
 836 700 836 700 809 700 c 0,135,136
 783 700 783 700 760 696 c 128,-1,137
 737 692 737 692 720 685 c 128,-1,138
 703 678 703 678 693.5 668 c 128,-1,139
 684 658 684 658 684 648 c 0,120,121
EndSplineSet
Substitution2: "'sups' Superscript in Tamil2 lookup 11 subtable" uni00B2
Substitution2: "'subs' Subscript in Tamil2 lookup 10 subtable" uni2082
EndChar

StartChar: three.tamil
Encoding: 51 51 19
Width: 1619
Flags: W
LayerCount: 2
Fore
SplineSet
604 85 m 0,0,1
 604 103 604 103 619.5 118 c 128,-1,2
 635 133 635 133 663 144.5 c 128,-1,3
 691 156 691 156 728.5 162.5 c 128,-1,4
 766 169 766 169 809 169 c 0,5,6
 853 169 853 169 890.5 162.5 c 128,-1,7
 928 156 928 156 955.5 144.5 c 128,-1,8
 983 133 983 133 999 118 c 128,-1,9
 1015 103 1015 103 1015 85 c 0,10,11
 1015 68 1015 68 999 53 c 128,-1,12
 983 38 983 38 955.5 27 c 128,-1,13
 928 16 928 16 890.5 9.5 c 128,-1,14
 853 3 853 3 809 3 c 0,15,16
 766 3 766 3 728.5 9.5 c 128,-1,17
 691 16 691 16 663 27 c 128,-1,18
 635 38 635 38 619.5 53 c 128,-1,19
 604 68 604 68 604 85 c 0,0,1
604 272 m 0,20,21
 604 290 604 290 619.5 305 c 128,-1,22
 635 320 635 320 663 331.5 c 128,-1,23
 691 343 691 343 728.5 349 c 128,-1,24
 766 355 766 355 809 355 c 0,25,26
 853 355 853 355 890.5 349 c 128,-1,27
 928 343 928 343 955.5 331.5 c 128,-1,28
 983 320 983 320 999 305 c 128,-1,29
 1015 290 1015 290 1015 272 c 0,30,31
 1015 255 1015 255 999 240 c 128,-1,32
 983 225 983 225 955.5 214 c 128,-1,33
 928 203 928 203 890.5 196 c 128,-1,34
 853 189 853 189 809 189 c 0,35,36
 766 189 766 189 728.5 196 c 128,-1,37
 691 203 691 203 663 214 c 128,-1,38
 635 225 635 225 619.5 240 c 128,-1,39
 604 255 604 255 604 272 c 0,20,21
604 461 m 256,40,41
 604 478 604 478 619.5 493.5 c 128,-1,42
 635 509 635 509 663 520 c 128,-1,43
 691 531 691 531 728.5 537.5 c 128,-1,44
 766 544 766 544 809 544 c 0,45,46
 853 544 853 544 890.5 537.5 c 128,-1,47
 928 531 928 531 955.5 520 c 128,-1,48
 983 509 983 509 999 493.5 c 128,-1,49
 1015 478 1015 478 1015 461 c 256,50,51
 1015 444 1015 444 999 429 c 128,-1,52
 983 414 983 414 955.5 402.5 c 128,-1,53
 928 391 928 391 890.5 384.5 c 128,-1,54
 853 378 853 378 809 378 c 0,55,56
 766 378 766 378 728.5 384.5 c 128,-1,57
 691 391 691 391 663 402.5 c 128,-1,58
 635 414 635 414 619.5 429 c 128,-1,59
 604 444 604 444 604 461 c 256,40,41
684 461 m 256,60,61
 684 450 684 450 693.5 440.5 c 128,-1,62
 703 431 703 431 720 424 c 128,-1,63
 737 417 737 417 760 413 c 128,-1,64
 783 409 783 409 809 409 c 0,65,66
 836 409 836 409 858.5 413 c 128,-1,67
 881 417 881 417 898 424 c 128,-1,68
 915 431 915 431 924.5 440.5 c 128,-1,69
 934 450 934 450 934 461 c 256,70,71
 934 472 934 472 924.5 481.5 c 128,-1,72
 915 491 915 491 898 498 c 128,-1,73
 881 505 881 505 858.5 509 c 128,-1,74
 836 513 836 513 809 513 c 0,75,76
 783 513 783 513 760 509 c 128,-1,77
 737 505 737 505 720 498 c 128,-1,78
 703 491 703 491 693.5 481.5 c 128,-1,79
 684 472 684 472 684 461 c 256,60,61
604 648 m 256,80,81
 604 665 604 665 619.5 680.5 c 128,-1,82
 635 696 635 696 663 707 c 128,-1,83
 691 718 691 718 728.5 724.5 c 128,-1,84
 766 731 766 731 809 731 c 0,85,86
 853 731 853 731 890.5 724.5 c 128,-1,87
 928 718 928 718 955.5 707 c 128,-1,88
 983 696 983 696 999 680.5 c 128,-1,89
 1015 665 1015 665 1015 648 c 256,90,91
 1015 631 1015 631 999 616 c 128,-1,92
 983 601 983 601 955.5 589.5 c 128,-1,93
 928 578 928 578 890.5 571.5 c 128,-1,94
 853 565 853 565 809 565 c 0,95,96
 766 565 766 565 728.5 571.5 c 128,-1,97
 691 578 691 578 663 589.5 c 128,-1,98
 635 601 635 601 619.5 616 c 128,-1,99
 604 631 604 631 604 648 c 256,80,81
684 648 m 0,100,101
 684 637 684 637 693.5 627.5 c 128,-1,102
 703 618 703 618 720 611 c 128,-1,103
 737 604 737 604 760 600 c 128,-1,104
 783 596 783 596 809 596 c 0,105,106
 836 596 836 596 858.5 600 c 128,-1,107
 881 604 881 604 898 611 c 128,-1,108
 915 618 915 618 924.5 627.5 c 128,-1,109
 934 637 934 637 934 648 c 0,110,111
 934 658 934 658 924.5 668 c 128,-1,112
 915 678 915 678 898 685 c 128,-1,113
 881 692 881 692 858.5 696 c 128,-1,114
 836 700 836 700 809 700 c 0,115,116
 783 700 783 700 760 696 c 128,-1,117
 737 692 737 692 720 685 c 128,-1,118
 703 678 703 678 693.5 668 c 128,-1,119
 684 658 684 658 684 648 c 0,100,101
EndSplineSet
Substitution2: "'sups' Superscript in Tamil2 lookup 11 subtable" uni00B3
Substitution2: "'subs' Subscript in Tamil2 lookup 10 subtable" uni2083
EndChar

StartChar: four.tamil
Encoding: 52 52 20
Width: 1619
Flags: W
LayerCount: 2
Fore
SplineSet
604 85 m 0,0,1
 604 103 604 103 619.5 118 c 128,-1,2
 635 133 635 133 663 144.5 c 128,-1,3
 691 156 691 156 728.5 162.5 c 128,-1,4
 766 169 766 169 809 169 c 0,5,6
 853 169 853 169 890.5 162.5 c 128,-1,7
 928 156 928 156 955.5 144.5 c 128,-1,8
 983 133 983 133 999 118 c 128,-1,9
 1015 103 1015 103 1015 85 c 0,10,11
 1015 68 1015 68 999 53 c 128,-1,12
 983 38 983 38 955.5 27 c 128,-1,13
 928 16 928 16 890.5 9.5 c 128,-1,14
 853 3 853 3 809 3 c 0,15,16
 766 3 766 3 728.5 9.5 c 128,-1,17
 691 16 691 16 663 27 c 128,-1,18
 635 38 635 38 619.5 53 c 128,-1,19
 604 68 604 68 604 85 c 0,0,1
684 85 m 256,20,21
 684 74 684 74 693.5 64.5 c 128,-1,22
 703 55 703 55 720 48.5 c 128,-1,23
 737 42 737 42 760 38 c 128,-1,24
 783 34 783 34 809 34 c 0,25,26
 836 34 836 34 858.5 38 c 128,-1,27
 881 42 881 42 898 48.5 c 128,-1,28
 915 55 915 55 924.5 64.5 c 128,-1,29
 934 74 934 74 934 85 c 256,30,31
 934 96 934 96 924.5 105.5 c 128,-1,32
 915 115 915 115 898 122 c 128,-1,33
 881 129 881 129 858.5 133 c 128,-1,34
 836 137 836 137 809 137 c 0,35,36
 783 137 783 137 760 133 c 128,-1,37
 737 129 737 129 720 122 c 128,-1,38
 703 115 703 115 693.5 105.5 c 128,-1,39
 684 96 684 96 684 85 c 256,20,21
604 272 m 0,40,41
 604 290 604 290 619.5 305 c 128,-1,42
 635 320 635 320 663 331.5 c 128,-1,43
 691 343 691 343 728.5 349 c 128,-1,44
 766 355 766 355 809 355 c 0,45,46
 853 355 853 355 890.5 349 c 128,-1,47
 928 343 928 343 955.5 331.5 c 128,-1,48
 983 320 983 320 999 305 c 128,-1,49
 1015 290 1015 290 1015 272 c 0,50,51
 1015 255 1015 255 999 240 c 128,-1,52
 983 225 983 225 955.5 214 c 128,-1,53
 928 203 928 203 890.5 196 c 128,-1,54
 853 189 853 189 809 189 c 0,55,56
 766 189 766 189 728.5 196 c 128,-1,57
 691 203 691 203 663 214 c 128,-1,58
 635 225 635 225 619.5 240 c 128,-1,59
 604 255 604 255 604 272 c 0,40,41
684 272 m 256,60,61
 684 261 684 261 693.5 251.5 c 128,-1,62
 703 242 703 242 720 235 c 128,-1,63
 737 228 737 228 760 224 c 128,-1,64
 783 220 783 220 809 220 c 0,65,66
 836 220 836 220 858.5 224 c 128,-1,67
 881 228 881 228 898 235 c 128,-1,68
 915 242 915 242 924.5 251.5 c 128,-1,69
 934 261 934 261 934 272 c 256,70,71
 934 283 934 283 924.5 292.5 c 128,-1,72
 915 302 915 302 898 309 c 128,-1,73
 881 316 881 316 858.5 320 c 128,-1,74
 836 324 836 324 809 324 c 0,75,76
 783 324 783 324 760 320 c 128,-1,77
 737 316 737 316 720 309 c 128,-1,78
 703 302 703 302 693.5 292.5 c 128,-1,79
 684 283 684 283 684 272 c 256,60,61
604 461 m 256,80,81
 604 478 604 478 619.5 493.5 c 128,-1,82
 635 509 635 509 663 520 c 128,-1,83
 691 531 691 531 728.5 537.5 c 128,-1,84
 766 544 766 544 809 544 c 0,85,86
 853 544 853 544 890.5 537.5 c 128,-1,87
 928 531 928 531 955.5 520 c 128,-1,88
 983 509 983 509 999 493.5 c 128,-1,89
 1015 478 1015 478 1015 461 c 256,90,91
 1015 444 1015 444 999 429 c 128,-1,92
 983 414 983 414 955.5 402.5 c 128,-1,93
 928 391 928 391 890.5 384.5 c 128,-1,94
 853 378 853 378 809 378 c 0,95,96
 766 378 766 378 728.5 384.5 c 128,-1,97
 691 391 691 391 663 402.5 c 128,-1,98
 635 414 635 414 619.5 429 c 128,-1,99
 604 444 604 444 604 461 c 256,80,81
604 648 m 256,100,101
 604 665 604 665 619.5 680.5 c 128,-1,102
 635 696 635 696 663 707 c 128,-1,103
 691 718 691 718 728.5 724.5 c 128,-1,104
 766 731 766 731 809 731 c 0,105,106
 853 731 853 731 890.5 724.5 c 128,-1,107
 928 718 928 718 955.5 707 c 128,-1,108
 983 696 983 696 999 680.5 c 128,-1,109
 1015 665 1015 665 1015 648 c 256,110,111
 1015 631 1015 631 999 616 c 128,-1,112
 983 601 983 601 955.5 589.5 c 128,-1,113
 928 578 928 578 890.5 571.5 c 128,-1,114
 853 565 853 565 809 565 c 0,115,116
 766 565 766 565 728.5 571.5 c 128,-1,117
 691 578 691 578 663 589.5 c 128,-1,118
 635 601 635 601 619.5 616 c 128,-1,119
 604 631 604 631 604 648 c 256,100,101
684 648 m 0,120,121
 684 637 684 637 693.5 627.5 c 128,-1,122
 703 618 703 618 720 611 c 128,-1,123
 737 604 737 604 760 600 c 128,-1,124
 783 596 783 596 809 596 c 0,125,126
 836 596 836 596 858.5 600 c 128,-1,127
 881 604 881 604 898 611 c 128,-1,128
 915 618 915 618 924.5 627.5 c 128,-1,129
 934 637 934 637 934 648 c 0,130,131
 934 658 934 658 924.5 668 c 128,-1,132
 915 678 915 678 898 685 c 128,-1,133
 881 692 881 692 858.5 696 c 128,-1,134
 836 700 836 700 809 700 c 0,135,136
 783 700 783 700 760 696 c 128,-1,137
 737 692 737 692 720 685 c 128,-1,138
 703 678 703 678 693.5 668 c 128,-1,139
 684 658 684 658 684 648 c 0,120,121
EndSplineSet
Substitution2: "'sups' Superscript in Tamil2 lookup 11 subtable" uni2074
Substitution2: "'subs' Subscript in Tamil2 lookup 10 subtable" uni2084
EndChar

StartChar: five.tamil
Encoding: 53 53 21
Width: 1619
Flags: W
LayerCount: 2
Fore
SplineSet
604 85 m 0,0,1
 604 103 604 103 619.5 118 c 128,-1,2
 635 133 635 133 663 144.5 c 128,-1,3
 691 156 691 156 728.5 162.5 c 128,-1,4
 766 169 766 169 809 169 c 0,5,6
 853 169 853 169 890.5 162.5 c 128,-1,7
 928 156 928 156 955.5 144.5 c 128,-1,8
 983 133 983 133 999 118 c 128,-1,9
 1015 103 1015 103 1015 85 c 0,10,11
 1015 68 1015 68 999 53 c 128,-1,12
 983 38 983 38 955.5 27 c 128,-1,13
 928 16 928 16 890.5 9.5 c 128,-1,14
 853 3 853 3 809 3 c 0,15,16
 766 3 766 3 728.5 9.5 c 128,-1,17
 691 16 691 16 663 27 c 128,-1,18
 635 38 635 38 619.5 53 c 128,-1,19
 604 68 604 68 604 85 c 0,0,1
604 272 m 0,20,21
 604 290 604 290 619.5 305 c 128,-1,22
 635 320 635 320 663 331.5 c 128,-1,23
 691 343 691 343 728.5 349 c 128,-1,24
 766 355 766 355 809 355 c 0,25,26
 853 355 853 355 890.5 349 c 128,-1,27
 928 343 928 343 955.5 331.5 c 128,-1,28
 983 320 983 320 999 305 c 128,-1,29
 1015 290 1015 290 1015 272 c 0,30,31
 1015 255 1015 255 999 240 c 128,-1,32
 983 225 983 225 955.5 214 c 128,-1,33
 928 203 928 203 890.5 196 c 128,-1,34
 853 189 853 189 809 189 c 0,35,36
 766 189 766 189 728.5 196 c 128,-1,37
 691 203 691 203 663 214 c 128,-1,38
 635 225 635 225 619.5 240 c 128,-1,39
 604 255 604 255 604 272 c 0,20,21
684 272 m 256,40,41
 684 261 684 261 693.5 251.5 c 128,-1,42
 703 242 703 242 720 235 c 128,-1,43
 737 228 737 228 760 224 c 128,-1,44
 783 220 783 220 809 220 c 0,45,46
 836 220 836 220 858.5 224 c 128,-1,47
 881 228 881 228 898 235 c 128,-1,48
 915 242 915 242 924.5 251.5 c 128,-1,49
 934 261 934 261 934 272 c 256,50,51
 934 283 934 283 924.5 292.5 c 128,-1,52
 915 302 915 302 898 309 c 128,-1,53
 881 316 881 316 858.5 320 c 128,-1,54
 836 324 836 324 809 324 c 0,55,56
 783 324 783 324 760 320 c 128,-1,57
 737 316 737 316 720 309 c 128,-1,58
 703 302 703 302 693.5 292.5 c 128,-1,59
 684 283 684 283 684 272 c 256,40,41
604 461 m 256,60,61
 604 478 604 478 619.5 493.5 c 128,-1,62
 635 509 635 509 663 520 c 128,-1,63
 691 531 691 531 728.5 537.5 c 128,-1,64
 766 544 766 544 809 544 c 0,65,66
 853 544 853 544 890.5 537.5 c 128,-1,67
 928 531 928 531 955.5 520 c 128,-1,68
 983 509 983 509 999 493.5 c 128,-1,69
 1015 478 1015 478 1015 461 c 256,70,71
 1015 444 1015 444 999 429 c 128,-1,72
 983 414 983 414 955.5 402.5 c 128,-1,73
 928 391 928 391 890.5 384.5 c 128,-1,74
 853 378 853 378 809 378 c 0,75,76
 766 378 766 378 728.5 384.5 c 128,-1,77
 691 391 691 391 663 402.5 c 128,-1,78
 635 414 635 414 619.5 429 c 128,-1,79
 604 444 604 444 604 461 c 256,60,61
604 648 m 256,80,81
 604 665 604 665 619.5 680.5 c 128,-1,82
 635 696 635 696 663 707 c 128,-1,83
 691 718 691 718 728.5 724.5 c 128,-1,84
 766 731 766 731 809 731 c 0,85,86
 853 731 853 731 890.5 724.5 c 128,-1,87
 928 718 928 718 955.5 707 c 128,-1,88
 983 696 983 696 999 680.5 c 128,-1,89
 1015 665 1015 665 1015 648 c 256,90,91
 1015 631 1015 631 999 616 c 128,-1,92
 983 601 983 601 955.5 589.5 c 128,-1,93
 928 578 928 578 890.5 571.5 c 128,-1,94
 853 565 853 565 809 565 c 0,95,96
 766 565 766 565 728.5 571.5 c 128,-1,97
 691 578 691 578 663 589.5 c 128,-1,98
 635 601 635 601 619.5 616 c 128,-1,99
 604 631 604 631 604 648 c 256,80,81
684 648 m 0,100,101
 684 637 684 637 693.5 627.5 c 128,-1,102
 703 618 703 618 720 611 c 128,-1,103
 737 604 737 604 760 600 c 128,-1,104
 783 596 783 596 809 596 c 0,105,106
 836 596 836 596 858.5 600 c 128,-1,107
 881 604 881 604 898 611 c 128,-1,108
 915 618 915 618 924.5 627.5 c 128,-1,109
 934 637 934 637 934 648 c 0,110,111
 934 658 934 658 924.5 668 c 128,-1,112
 915 678 915 678 898 685 c 128,-1,113
 881 692 881 692 858.5 696 c 128,-1,114
 836 700 836 700 809 700 c 0,115,116
 783 700 783 700 760 696 c 128,-1,117
 737 692 737 692 720 685 c 128,-1,118
 703 678 703 678 693.5 668 c 128,-1,119
 684 658 684 658 684 648 c 0,100,101
EndSplineSet
EndChar

StartChar: six.tamil
Encoding: 54 54 22
Width: 1619
Flags: W
LayerCount: 2
Fore
SplineSet
604 85 m 0,0,1
 604 103 604 103 619.5 118 c 128,-1,2
 635 133 635 133 663 144.5 c 128,-1,3
 691 156 691 156 728.5 162.5 c 128,-1,4
 766 169 766 169 809 169 c 0,5,6
 853 169 853 169 890.5 162.5 c 128,-1,7
 928 156 928 156 955.5 144.5 c 128,-1,8
 983 133 983 133 999 118 c 128,-1,9
 1015 103 1015 103 1015 85 c 0,10,11
 1015 68 1015 68 999 53 c 128,-1,12
 983 38 983 38 955.5 27 c 128,-1,13
 928 16 928 16 890.5 9.5 c 128,-1,14
 853 3 853 3 809 3 c 0,15,16
 766 3 766 3 728.5 9.5 c 128,-1,17
 691 16 691 16 663 27 c 128,-1,18
 635 38 635 38 619.5 53 c 128,-1,19
 604 68 604 68 604 85 c 0,0,1
684 85 m 256,20,21
 684 74 684 74 693.5 64.5 c 128,-1,22
 703 55 703 55 720 48.5 c 128,-1,23
 737 42 737 42 760 38 c 128,-1,24
 783 34 783 34 809 34 c 0,25,26
 836 34 836 34 858.5 38 c 128,-1,27
 881 42 881 42 898 48.5 c 128,-1,28
 915 55 915 55 924.5 64.5 c 128,-1,29
 934 74 934 74 934 85 c 256,30,31
 934 96 934 96 924.5 105.5 c 128,-1,32
 915 115 915 115 898 122 c 128,-1,33
 881 129 881 129 858.5 133 c 128,-1,34
 836 137 836 137 809 137 c 0,35,36
 783 137 783 137 760 133 c 128,-1,37
 737 129 737 129 720 122 c 128,-1,38
 703 115 703 115 693.5 105.5 c 128,-1,39
 684 96 684 96 684 85 c 256,20,21
604 272 m 0,40,41
 604 290 604 290 619.5 305 c 128,-1,42
 635 320 635 320 663 331.5 c 128,-1,43
 691 343 691 343 728.5 349 c 128,-1,44
 766 355 766 355 809 355 c 0,45,46
 853 355 853 355 890.5 349 c 128,-1,47
 928 343 928 343 955.5 331.5 c 128,-1,48
 983 320 983 320 999 305 c 128,-1,49
 1015 290 1015 290 1015 272 c 0,50,51
 1015 255 1015 255 999 240 c 128,-1,52
 983 225 983 225 955.5 214 c 128,-1,53
 928 203 928 203 890.5 196 c 128,-1,54
 853 189 853 189 809 189 c 0,55,56
 766 189 766 189 728.5 196 c 128,-1,57
 691 203 691 203 663 214 c 128,-1,58
 635 225 635 225 619.5 240 c 128,-1,59
 604 255 604 255 604 272 c 0,40,41
604 461 m 256,60,61
 604 478 604 478 619.5 493.5 c 128,-1,62
 635 509 635 509 663 520 c 128,-1,63
 691 531 691 531 728.5 537.5 c 128,-1,64
 766 544 766 544 809 544 c 0,65,66
 853 544 853 544 890.5 537.5 c 128,-1,67
 928 531 928 531 955.5 520 c 128,-1,68
 983 509 983 509 999 493.5 c 128,-1,69
 1015 478 1015 478 1015 461 c 256,70,71
 1015 444 1015 444 999 429 c 128,-1,72
 983 414 983 414 955.5 402.5 c 128,-1,73
 928 391 928 391 890.5 384.5 c 128,-1,74
 853 378 853 378 809 378 c 0,75,76
 766 378 766 378 728.5 384.5 c 128,-1,77
 691 391 691 391 663 402.5 c 128,-1,78
 635 414 635 414 619.5 429 c 128,-1,79
 604 444 604 444 604 461 c 256,60,61
604 648 m 256,80,81
 604 665 604 665 619.5 680.5 c 128,-1,82
 635 696 635 696 663 707 c 128,-1,83
 691 718 691 718 728.5 724.5 c 128,-1,84
 766 731 766 731 809 731 c 0,85,86
 853 731 853 731 890.5 724.5 c 128,-1,87
 928 718 928 718 955.5 707 c 128,-1,88
 983 696 983 696 999 680.5 c 128,-1,89
 1015 665 1015 665 1015 648 c 256,90,91
 1015 631 1015 631 999 616 c 128,-1,92
 983 601 983 601 955.5 589.5 c 128,-1,93
 928 578 928 578 890.5 571.5 c 128,-1,94
 853 565 853 565 809 565 c 0,95,96
 766 565 766 565 728.5 571.5 c 128,-1,97
 691 578 691 578 663 589.5 c 128,-1,98
 635 601 635 601 619.5 616 c 128,-1,99
 604 631 604 631 604 648 c 256,80,81
684 648 m 0,100,101
 684 637 684 637 693.5 627.5 c 128,-1,102
 703 618 703 618 720 611 c 128,-1,103
 737 604 737 604 760 600 c 128,-1,104
 783 596 783 596 809 596 c 0,105,106
 836 596 836 596 858.5 600 c 128,-1,107
 881 604 881 604 898 611 c 128,-1,108
 915 618 915 618 924.5 627.5 c 128,-1,109
 934 637 934 637 934 648 c 0,110,111
 934 658 934 658 924.5 668 c 128,-1,112
 915 678 915 678 898 685 c 128,-1,113
 881 692 881 692 858.5 696 c 128,-1,114
 836 700 836 700 809 700 c 0,115,116
 783 700 783 700 760 696 c 128,-1,117
 737 692 737 692 720 685 c 128,-1,118
 703 678 703 678 693.5 668 c 128,-1,119
 684 658 684 658 684 648 c 0,100,101
EndSplineSet
EndChar

StartChar: seven.tamil
Encoding: 55 55 23
Width: 1619
Flags: W
LayerCount: 2
Fore
SplineSet
604 85 m 0,0,1
 604 103 604 103 619.5 118 c 128,-1,2
 635 133 635 133 663 144.5 c 128,-1,3
 691 156 691 156 728.5 162.5 c 128,-1,4
 766 169 766 169 809 169 c 0,5,6
 853 169 853 169 890.5 162.5 c 128,-1,7
 928 156 928 156 955.5 144.5 c 128,-1,8
 983 133 983 133 999 118 c 128,-1,9
 1015 103 1015 103 1015 85 c 0,10,11
 1015 68 1015 68 999 53 c 128,-1,12
 983 38 983 38 955.5 27 c 128,-1,13
 928 16 928 16 890.5 9.5 c 128,-1,14
 853 3 853 3 809 3 c 0,15,16
 766 3 766 3 728.5 9.5 c 128,-1,17
 691 16 691 16 663 27 c 128,-1,18
 635 38 635 38 619.5 53 c 128,-1,19
 604 68 604 68 604 85 c 0,0,1
604 272 m 0,20,21
 604 290 604 290 619.5 305 c 128,-1,22
 635 320 635 320 663 331.5 c 128,-1,23
 691 343 691 343 728.5 349 c 128,-1,24
 766 355 766 355 809 355 c 0,25,26
 853 355 853 355 890.5 349 c 128,-1,27
 928 343 928 343 955.5 331.5 c 128,-1,28
 983 320 983 320 999 305 c 128,-1,29
 1015 290 1015 290 1015 272 c 0,30,31
 1015 255 1015 255 999 240 c 128,-1,32
 983 225 983 225 955.5 214 c 128,-1,33
 928 203 928 203 890.5 196 c 128,-1,34
 853 189 853 189 809 189 c 0,35,36
 766 189 766 189 728.5 196 c 128,-1,37
 691 203 691 203 663 214 c 128,-1,38
 635 225 635 225 619.5 240 c 128,-1,39
 604 255 604 255 604 272 c 0,20,21
604 461 m 256,40,41
 604 478 604 478 619.5 493.5 c 128,-1,42
 635 509 635 509 663 520 c 128,-1,43
 691 531 691 531 728.5 537.5 c 128,-1,44
 766 544 766 544 809 544 c 0,45,46
 853 544 853 544 890.5 537.5 c 128,-1,47
 928 531 928 531 955.5 520 c 128,-1,48
 983 509 983 509 999 493.5 c 128,-1,49
 1015 478 1015 478 1015 461 c 256,50,51
 1015 444 1015 444 999 429 c 128,-1,52
 983 414 983 414 955.5 402.5 c 128,-1,53
 928 391 928 391 890.5 384.5 c 128,-1,54
 853 378 853 378 809 378 c 0,55,56
 766 378 766 378 728.5 384.5 c 128,-1,57
 691 391 691 391 663 402.5 c 128,-1,58
 635 414 635 414 619.5 429 c 128,-1,59
 604 444 604 444 604 461 c 256,40,41
604 648 m 256,60,61
 604 665 604 665 619.5 680.5 c 128,-1,62
 635 696 635 696 663 707 c 128,-1,63
 691 718 691 718 728.5 724.5 c 128,-1,64
 766 731 766 731 809 731 c 0,65,66
 853 731 853 731 890.5 724.5 c 128,-1,67
 928 718 928 718 955.5 707 c 128,-1,68
 983 696 983 696 999 680.5 c 128,-1,69
 1015 665 1015 665 1015 648 c 256,70,71
 1015 631 1015 631 999 616 c 128,-1,72
 983 601 983 601 955.5 589.5 c 128,-1,73
 928 578 928 578 890.5 571.5 c 128,-1,74
 853 565 853 565 809 565 c 0,75,76
 766 565 766 565 728.5 571.5 c 128,-1,77
 691 578 691 578 663 589.5 c 128,-1,78
 635 601 635 601 619.5 616 c 128,-1,79
 604 631 604 631 604 648 c 256,60,61
684 648 m 0,80,81
 684 637 684 637 693.5 627.5 c 128,-1,82
 703 618 703 618 720 611 c 128,-1,83
 737 604 737 604 760 600 c 128,-1,84
 783 596 783 596 809 596 c 0,85,86
 836 596 836 596 858.5 600 c 128,-1,87
 881 604 881 604 898 611 c 128,-1,88
 915 618 915 618 924.5 627.5 c 128,-1,89
 934 637 934 637 934 648 c 0,90,91
 934 658 934 658 924.5 668 c 128,-1,92
 915 678 915 678 898 685 c 128,-1,93
 881 692 881 692 858.5 696 c 128,-1,94
 836 700 836 700 809 700 c 0,95,96
 783 700 783 700 760 696 c 128,-1,97
 737 692 737 692 720 685 c 128,-1,98
 703 678 703 678 693.5 668 c 128,-1,99
 684 658 684 658 684 648 c 0,80,81
EndSplineSet
EndChar

StartChar: eight.tamil
Encoding: 56 56 24
Width: 1619
Flags: W
LayerCount: 2
Fore
SplineSet
604 85 m 0,0,1
 604 103 604 103 619.5 118 c 128,-1,2
 635 133 635 133 663 144.5 c 128,-1,3
 691 156 691 156 728.5 162.5 c 128,-1,4
 766 169 766 169 809 169 c 0,5,6
 853 169 853 169 890.5 162.5 c 128,-1,7
 928 156 928 156 955.5 144.5 c 128,-1,8
 983 133 983 133 999 118 c 128,-1,9
 1015 103 1015 103 1015 85 c 0,10,11
 1015 68 1015 68 999 53 c 128,-1,12
 983 38 983 38 955.5 27 c 128,-1,13
 928 16 928 16 890.5 9.5 c 128,-1,14
 853 3 853 3 809 3 c 0,15,16
 766 3 766 3 728.5 9.5 c 128,-1,17
 691 16 691 16 663 27 c 128,-1,18
 635 38 635 38 619.5 53 c 128,-1,19
 604 68 604 68 604 85 c 0,0,1
684 85 m 256,20,21
 684 74 684 74 693.5 64.5 c 128,-1,22
 703 55 703 55 720 48.5 c 128,-1,23
 737 42 737 42 760 38 c 128,-1,24
 783 34 783 34 809 34 c 0,25,26
 836 34 836 34 858.5 38 c 128,-1,27
 881 42 881 42 898 48.5 c 128,-1,28
 915 55 915 55 924.5 64.5 c 128,-1,29
 934 74 934 74 934 85 c 256,30,31
 934 96 934 96 924.5 105.5 c 128,-1,32
 915 115 915 115 898 122 c 128,-1,33
 881 129 881 129 858.5 133 c 128,-1,34
 836 137 836 137 809 137 c 0,35,36
 783 137 783 137 760 133 c 128,-1,37
 737 129 737 129 720 122 c 128,-1,38
 703 115 703 115 693.5 105.5 c 128,-1,39
 684 96 684 96 684 85 c 256,20,21
604 272 m 0,40,41
 604 290 604 290 619.5 305 c 128,-1,42
 635 320 635 320 663 331.5 c 128,-1,43
 691 343 691 343 728.5 349 c 128,-1,44
 766 355 766 355 809 355 c 0,45,46
 853 355 853 355 890.5 349 c 128,-1,47
 928 343 928 343 955.5 331.5 c 128,-1,48
 983 320 983 320 999 305 c 128,-1,49
 1015 290 1015 290 1015 272 c 0,50,51
 1015 255 1015 255 999 240 c 128,-1,52
 983 225 983 225 955.5 214 c 128,-1,53
 928 203 928 203 890.5 196 c 128,-1,54
 853 189 853 189 809 189 c 0,55,56
 766 189 766 189 728.5 196 c 128,-1,57
 691 203 691 203 663 214 c 128,-1,58
 635 225 635 225 619.5 240 c 128,-1,59
 604 255 604 255 604 272 c 0,40,41
684 272 m 256,60,61
 684 261 684 261 693.5 251.5 c 128,-1,62
 703 242 703 242 720 235 c 128,-1,63
 737 228 737 228 760 224 c 128,-1,64
 783 220 783 220 809 220 c 0,65,66
 836 220 836 220 858.5 224 c 128,-1,67
 881 228 881 228 898 235 c 128,-1,68
 915 242 915 242 924.5 251.5 c 128,-1,69
 934 261 934 261 934 272 c 256,70,71
 934 283 934 283 924.5 292.5 c 128,-1,72
 915 302 915 302 898 309 c 128,-1,73
 881 316 881 316 858.5 320 c 128,-1,74
 836 324 836 324 809 324 c 0,75,76
 783 324 783 324 760 320 c 128,-1,77
 737 316 737 316 720 309 c 128,-1,78
 703 302 703 302 693.5 292.5 c 128,-1,79
 684 283 684 283 684 272 c 256,60,61
604 461 m 256,80,81
 604 478 604 478 619.5 493.5 c 128,-1,82
 635 509 635 509 663 520 c 128,-1,83
 691 531 691 531 728.5 537.5 c 128,-1,84
 766 544 766 544 809 544 c 0,85,86
 853 544 853 544 890.5 537.5 c 128,-1,87
 928 531 928 531 955.5 520 c 128,-1,88
 983 509 983 509 999 493.5 c 128,-1,89
 1015 478 1015 478 1015 461 c 256,90,91
 1015 444 1015 444 999 429 c 128,-1,92
 983 414 983 414 955.5 402.5 c 128,-1,93
 928 391 928 391 890.5 384.5 c 128,-1,94
 853 378 853 378 809 378 c 0,95,96
 766 378 766 378 728.5 384.5 c 128,-1,97
 691 391 691 391 663 402.5 c 128,-1,98
 635 414 635 414 619.5 429 c 128,-1,99
 604 444 604 444 604 461 c 256,80,81
684 461 m 256,100,101
 684 450 684 450 693.5 440.5 c 128,-1,102
 703 431 703 431 720 424 c 128,-1,103
 737 417 737 417 760 413 c 128,-1,104
 783 409 783 409 809 409 c 0,105,106
 836 409 836 409 858.5 413 c 128,-1,107
 881 417 881 417 898 424 c 128,-1,108
 915 431 915 431 924.5 440.5 c 128,-1,109
 934 450 934 450 934 461 c 256,110,111
 934 472 934 472 924.5 481.5 c 128,-1,112
 915 491 915 491 898 498 c 128,-1,113
 881 505 881 505 858.5 509 c 128,-1,114
 836 513 836 513 809 513 c 0,115,116
 783 513 783 513 760 509 c 128,-1,117
 737 505 737 505 720 498 c 128,-1,118
 703 491 703 491 693.5 481.5 c 128,-1,119
 684 472 684 472 684 461 c 256,100,101
604 648 m 256,120,121
 604 665 604 665 619.5 680.5 c 128,-1,122
 635 696 635 696 663 707 c 128,-1,123
 691 718 691 718 728.5 724.5 c 128,-1,124
 766 731 766 731 809 731 c 0,125,126
 853 731 853 731 890.5 724.5 c 128,-1,127
 928 718 928 718 955.5 707 c 128,-1,128
 983 696 983 696 999 680.5 c 128,-1,129
 1015 665 1015 665 1015 648 c 256,130,131
 1015 631 1015 631 999 616 c 128,-1,132
 983 601 983 601 955.5 589.5 c 128,-1,133
 928 578 928 578 890.5 571.5 c 128,-1,134
 853 565 853 565 809 565 c 0,135,136
 766 565 766 565 728.5 571.5 c 128,-1,137
 691 578 691 578 663 589.5 c 128,-1,138
 635 601 635 601 619.5 616 c 128,-1,139
 604 631 604 631 604 648 c 256,120,121
EndSplineSet
EndChar

StartChar: nine.tamil
Encoding: 57 57 25
Width: 1619
Flags: W
LayerCount: 2
Fore
SplineSet
604 85 m 0,0,1
 604 103 604 103 619.5 118 c 128,-1,2
 635 133 635 133 663 144.5 c 128,-1,3
 691 156 691 156 728.5 162.5 c 128,-1,4
 766 169 766 169 809 169 c 0,5,6
 853 169 853 169 890.5 162.5 c 128,-1,7
 928 156 928 156 955.5 144.5 c 128,-1,8
 983 133 983 133 999 118 c 128,-1,9
 1015 103 1015 103 1015 85 c 0,10,11
 1015 68 1015 68 999 53 c 128,-1,12
 983 38 983 38 955.5 27 c 128,-1,13
 928 16 928 16 890.5 9.5 c 128,-1,14
 853 3 853 3 809 3 c 0,15,16
 766 3 766 3 728.5 9.5 c 128,-1,17
 691 16 691 16 663 27 c 128,-1,18
 635 38 635 38 619.5 53 c 128,-1,19
 604 68 604 68 604 85 c 0,0,1
604 272 m 0,20,21
 604 290 604 290 619.5 305 c 128,-1,22
 635 320 635 320 663 331.5 c 128,-1,23
 691 343 691 343 728.5 349 c 128,-1,24
 766 355 766 355 809 355 c 0,25,26
 853 355 853 355 890.5 349 c 128,-1,27
 928 343 928 343 955.5 331.5 c 128,-1,28
 983 320 983 320 999 305 c 128,-1,29
 1015 290 1015 290 1015 272 c 0,30,31
 1015 255 1015 255 999 240 c 128,-1,32
 983 225 983 225 955.5 214 c 128,-1,33
 928 203 928 203 890.5 196 c 128,-1,34
 853 189 853 189 809 189 c 0,35,36
 766 189 766 189 728.5 196 c 128,-1,37
 691 203 691 203 663 214 c 128,-1,38
 635 225 635 225 619.5 240 c 128,-1,39
 604 255 604 255 604 272 c 0,20,21
684 272 m 256,40,41
 684 261 684 261 693.5 251.5 c 128,-1,42
 703 242 703 242 720 235 c 128,-1,43
 737 228 737 228 760 224 c 128,-1,44
 783 220 783 220 809 220 c 0,45,46
 836 220 836 220 858.5 224 c 128,-1,47
 881 228 881 228 898 235 c 128,-1,48
 915 242 915 242 924.5 251.5 c 128,-1,49
 934 261 934 261 934 272 c 256,50,51
 934 283 934 283 924.5 292.5 c 128,-1,52
 915 302 915 302 898 309 c 128,-1,53
 881 316 881 316 858.5 320 c 128,-1,54
 836 324 836 324 809 324 c 0,55,56
 783 324 783 324 760 320 c 128,-1,57
 737 316 737 316 720 309 c 128,-1,58
 703 302 703 302 693.5 292.5 c 128,-1,59
 684 283 684 283 684 272 c 256,40,41
604 461 m 256,60,61
 604 478 604 478 619.5 493.5 c 128,-1,62
 635 509 635 509 663 520 c 128,-1,63
 691 531 691 531 728.5 537.5 c 128,-1,64
 766 544 766 544 809 544 c 0,65,66
 853 544 853 544 890.5 537.5 c 128,-1,67
 928 531 928 531 955.5 520 c 128,-1,68
 983 509 983 509 999 493.5 c 128,-1,69
 1015 478 1015 478 1015 461 c 256,70,71
 1015 444 1015 444 999 429 c 128,-1,72
 983 414 983 414 955.5 402.5 c 128,-1,73
 928 391 928 391 890.5 384.5 c 128,-1,74
 853 378 853 378 809 378 c 0,75,76
 766 378 766 378 728.5 384.5 c 128,-1,77
 691 391 691 391 663 402.5 c 128,-1,78
 635 414 635 414 619.5 429 c 128,-1,79
 604 444 604 444 604 461 c 256,60,61
684 461 m 256,80,81
 684 450 684 450 693.5 440.5 c 128,-1,82
 703 431 703 431 720 424 c 128,-1,83
 737 417 737 417 760 413 c 128,-1,84
 783 409 783 409 809 409 c 0,85,86
 836 409 836 409 858.5 413 c 128,-1,87
 881 417 881 417 898 424 c 128,-1,88
 915 431 915 431 924.5 440.5 c 128,-1,89
 934 450 934 450 934 461 c 256,90,91
 934 472 934 472 924.5 481.5 c 128,-1,92
 915 491 915 491 898 498 c 128,-1,93
 881 505 881 505 858.5 509 c 128,-1,94
 836 513 836 513 809 513 c 0,95,96
 783 513 783 513 760 509 c 128,-1,97
 737 505 737 505 720 498 c 128,-1,98
 703 491 703 491 693.5 481.5 c 128,-1,99
 684 472 684 472 684 461 c 256,80,81
604 648 m 256,100,101
 604 665 604 665 619.5 680.5 c 128,-1,102
 635 696 635 696 663 707 c 128,-1,103
 691 718 691 718 728.5 724.5 c 128,-1,104
 766 731 766 731 809 731 c 0,105,106
 853 731 853 731 890.5 724.5 c 128,-1,107
 928 718 928 718 955.5 707 c 128,-1,108
 983 696 983 696 999 680.5 c 128,-1,109
 1015 665 1015 665 1015 648 c 256,110,111
 1015 631 1015 631 999 616 c 128,-1,112
 983 601 983 601 955.5 589.5 c 128,-1,113
 928 578 928 578 890.5 571.5 c 128,-1,114
 853 565 853 565 809 565 c 0,115,116
 766 565 766 565 728.5 571.5 c 128,-1,117
 691 578 691 578 663 589.5 c 128,-1,118
 635 601 635 601 619.5 616 c 128,-1,119
 604 631 604 631 604 648 c 256,100,101
EndSplineSet
EndChar

StartChar: colon.tamil
Encoding: 58 58 26
Width: 1619
Flags: W
LayerCount: 2
Fore
SplineSet
809.5 -12 m 256,0,1
 783.5 -12 783.5 -12 765.5 4 c 128,-1,2
 747.5 20 747.5 20 747.5 56 c 0,3,4
 747.5 94 747.5 94 765.5 109 c 128,-1,5
 783.5 124 783.5 124 809.5 124 c 256,6,7
 835.5 124 835.5 124 853.5 109 c 128,-1,8
 871.5 94 871.5 94 871.5 56 c 0,9,10
 871.5 20 871.5 20 853.5 4 c 128,-1,11
 835.5 -12 835.5 -12 809.5 -12 c 256,0,1
809.5 414 m 256,12,13
 783.5 414 783.5 414 765.5 430 c 128,-1,14
 747.5 446 747.5 446 747.5 482 c 0,15,16
 747.5 520 747.5 520 765.5 535 c 128,-1,17
 783.5 550 783.5 550 809.5 550 c 256,18,19
 835.5 550 835.5 550 853.5 535 c 128,-1,20
 871.5 520 871.5 520 871.5 482 c 0,21,22
 871.5 446 871.5 446 853.5 430 c 128,-1,23
 835.5 414 835.5 414 809.5 414 c 256,12,13
EndSplineSet
EndChar

StartChar: semicolon.tamil
Encoding: 59 59 27
Width: 1619
Flags: W
LayerCount: 2
Fore
SplineSet
873 116 m 1,0,-1
 880 105 l 1,1,2
 871 70 871 70 857 29.5 c 128,-1,3
 843 -11 843 -11 827 -51.5 c 128,-1,4
 811 -92 811 -92 794 -129 c 1,5,-1
 727 -129 l 1,6,7
 737 -89 737 -89 746 -45.5 c 128,-1,8
 755 -2 755 -2 763 40 c 128,-1,9
 771 82 771 82 776 116 c 1,10,-1
 873 116 l 1,0,-1
830 414 m 256,11,12
 804 414 804 414 786 430 c 128,-1,13
 768 446 768 446 768 482 c 0,14,15
 768 520 768 520 786 535 c 128,-1,16
 804 550 804 550 830 550 c 256,17,18
 856 550 856 550 874 535 c 128,-1,19
 892 520 892 520 892 482 c 0,20,21
 892 446 892 446 874 430 c 128,-1,22
 856 414 856 414 830 414 c 256,11,12
EndSplineSet
EndChar

StartChar: less.tamil
Encoding: 60 60 28
Width: 1619
Flags: W
LayerCount: 2
Fore
SplineSet
1045 116 m 1,0,-1
 574 323 l 1,1,-1
 574 373 l 1,2,-1
 1045 608 l 1,3,-1
 1045 530 l 1,4,-1
 669 352 l 1,5,-1
 1045 194 l 1,6,-1
 1045 116 l 1,0,-1
EndSplineSet
EndChar

StartChar: equal.tamil
Encoding: 61 61 29
Width: 1619
Flags: W
LayerCount: 2
Fore
SplineSet
580.5 217 m 1,0,-1
 580.5 288 l 1,1,-1
 1038.5 288 l 1,2,-1
 1038.5 217 l 1,3,-1
 580.5 217 l 1,0,-1
580.5 416 m 1,4,-1
 580.5 487 l 1,5,-1
 1038.5 487 l 1,6,-1
 1038.5 416 l 1,7,-1
 580.5 416 l 1,4,-1
EndSplineSet
EndChar

StartChar: greater.tamil
Encoding: 62 62 30
Width: 1619
Flags: W
LayerCount: 2
Fore
SplineSet
574 116 m 1,0,-1
 574 194 l 1,1,-1
 951 351 l 1,2,-1
 574 530 l 1,3,-1
 574 608 l 1,4,-1
 1045 373 l 1,5,-1
 1045 323 l 1,6,-1
 574 116 l 1,0,-1
EndSplineSet
EndChar

StartChar: question.tamil
Encoding: 63 63 31
Width: 1619
Flags: W
LayerCount: 2
Fore
SplineSet
800 725 m 0,0,1
 891 725 891 725 944 676.5 c 128,-1,2
 997 628 997 628 997 542 c 0,3,4
 997 499 997 499 985 467 c 128,-1,5
 973 435 973 435 949 407 c 128,-1,6
 925 379 925 379 888 347 c 0,7,8
 856 320 856 320 839 300 c 128,-1,9
 822 280 822 280 815.5 260 c 128,-1,10
 809 240 809 240 809 211 c 2,11,-1
 809 202 l 1,12,-1
 741 202 l 1,13,-1
 741 220 l 2,14,15
 741 258 741 258 748 285.5 c 128,-1,16
 755 313 755 313 773 337.5 c 128,-1,17
 791 362 791 362 824 390 c 0,18,19
 855 417 855 417 874.5 438 c 128,-1,20
 894 459 894 459 903 483 c 128,-1,21
 912 507 912 507 912 541 c 0,22,23
 912 588 912 588 883.5 617.5 c 128,-1,24
 855 647 855 647 800 647 c 0,25,26
 760 647 760 647 723.5 634.5 c 128,-1,27
 687 622 687 622 652 605 c 1,28,-1
 622 676 l 1,29,30
 661 696 661 696 707 710.5 c 128,-1,31
 753 725 753 725 800 725 c 0,0,1
779 -12 m 0,32,33
 754 -12 754 -12 735.5 4 c 128,-1,34
 717 20 717 20 717 56 c 0,35,36
 717 94 717 94 735.5 109 c 128,-1,37
 754 124 754 124 779 124 c 0,38,39
 805 124 805 124 823 109 c 128,-1,40
 841 94 841 94 841 56 c 0,41,42
 841 20 841 20 823 4 c 128,-1,43
 805 -12 805 -12 779 -12 c 0,32,33
EndSplineSet
EndChar

StartChar: bracketleft.tamil
Encoding: 91 91 32
Width: 1619
Flags: W
LayerCount: 2
Fore
SplineSet
710.5 -244 m 1,0,-1
 710.5 800 l 1,1,-1
 908.5 800 l 1,2,-1
 908.5 732 l 1,3,-1
 797.5 732 l 1,4,-1
 797.5 -176 l 1,5,-1
 908.5 -176 l 1,6,-1
 908.5 -244 l 1,7,-1
 710.5 -244 l 1,0,-1
EndSplineSet
EndChar

StartChar: backslash.tamil
Encoding: 92 92 33
Width: 1619
Flags: W
LayerCount: 2
Fore
SplineSet
900 -244 m 1,0,-1
 634 800 l 1,1,-1
 719 800 l 1,2,-1
 985 -244 l 1,3,-1
 900 -244 l 1,0,-1
EndSplineSet
EndChar

StartChar: bracketright.tamil
Encoding: 93 93 34
Width: 1619
Flags: W
LayerCount: 2
Fore
SplineSet
710.5 -244 m 1,0,-1
 710.5 -176 l 1,1,-1
 821.5 -176 l 1,2,-1
 821.5 732 l 1,3,-1
 710.5 732 l 1,4,-1
 710.5 800 l 1,5,-1
 908.5 800 l 1,6,-1
 908.5 -244 l 1,7,-1
 710.5 -244 l 1,0,-1
EndSplineSet
EndChar

StartChar: asciicircum.tamil
Encoding: 94 94 35
Width: 1619
Flags: W
LayerCount: 2
Fore
SplineSet
563 268 m 1,0,-1
 788 719 l 1,1,-1
 838 719 l 1,2,-1
 1056 268 l 1,3,-1
 977 268 l 1,4,-1
 813 627 l 1,5,-1
 642 268 l 1,6,-1
 563 268 l 1,0,-1
EndSplineSet
EndChar

StartChar: underscore.tamil
Encoding: 95 95 36
Width: 1619
Flags: W
LayerCount: 2
Fore
SplineSet
585.5 -154 m 1,0,-1
 585.5 -90 l 1,1,-1
 1033.5 -90 l 1,2,-1
 1033.5 -154 l 1,3,-1
 585.5 -154 l 1,0,-1
EndSplineSet
EndChar

StartChar: braceleft.tamil
Encoding: 123 123 37
Width: 1619
Flags: W
LayerCount: 2
Fore
SplineSet
959.5 -244 m 1,0,1
 909.5 -243 909.5 -243 870 -225.5 c 128,-1,2
 830.5 -208 830.5 -208 808 -169.5 c 128,-1,3
 785.5 -131 785.5 -131 785.5 -70 c 2,4,-1
 785.5 127 l 2,5,6
 785.5 189 785.5 189 753 214.5 c 128,-1,7
 720.5 240 720.5 240 659.5 240 c 1,8,-1
 659.5 315 l 1,9,10
 721.5 315 721.5 315 753.5 341 c 128,-1,11
 785.5 367 785.5 367 785.5 428 c 2,12,-1
 785.5 626 l 2,13,14
 785.5 688 785.5 688 808 725.5 c 128,-1,15
 830.5 763 830.5 763 870 781 c 128,-1,16
 909.5 799 909.5 799 959.5 800 c 1,17,-1
 959.5 727 l 1,18,19
 919.5 726 919.5 726 897 708 c 128,-1,20
 874.5 690 874.5 690 874.5 631 c 2,21,-1
 874.5 431 l 2,22,23
 874.5 367 874.5 367 845 330 c 128,-1,24
 815.5 293 815.5 293 759.5 281 c 1,25,-1
 759.5 275 l 1,26,27
 815.5 263 815.5 263 845 225.5 c 128,-1,28
 874.5 188 874.5 188 874.5 125 c 2,29,-1
 874.5 -76 l 2,30,31
 874.5 -115 874.5 -115 884.5 -135.5 c 128,-1,32
 894.5 -156 894.5 -156 914 -163 c 128,-1,33
 933.5 -170 933.5 -170 959.5 -171 c 1,34,-1
 959.5 -244 l 1,0,1
EndSplineSet
EndChar

StartChar: bar.tamil
Encoding: 124 124 38
Width: 1619
Flags: W
LayerCount: 2
Fore
SplineSet
773 -244 m 1,0,-1
 773 800 l 1,1,-1
 846 800 l 1,2,-1
 846 -244 l 1,3,-1
 773 -244 l 1,0,-1
EndSplineSet
EndChar

StartChar: braceright.tamil
Encoding: 125 125 39
Width: 1619
Flags: W
LayerCount: 2
Fore
SplineSet
660 800 m 1,0,1
 710 799 710 799 749.5 781 c 128,-1,2
 789 763 789 763 811.5 725.5 c 128,-1,3
 834 688 834 688 834 626 c 2,4,-1
 834 428 l 2,5,6
 834 367 834 367 866 341.5 c 128,-1,7
 898 316 898 316 959 316 c 1,8,-1
 959 240 l 1,9,10
 898 240 898 240 866 214.5 c 128,-1,11
 834 189 834 189 834 128 c 2,12,-1
 834 -70 l 2,13,14
 834 -131 834 -131 811.5 -169.5 c 128,-1,15
 789 -208 789 -208 749.5 -225.5 c 128,-1,16
 710 -243 710 -243 660 -244 c 1,17,-1
 660 -171 l 1,18,19
 700 -169 700 -169 722.5 -151 c 128,-1,20
 745 -133 745 -133 745 -75 c 2,21,-1
 745 125 l 2,22,23
 745 189 745 189 774.5 226 c 128,-1,24
 804 263 804 263 859 275 c 1,25,-1
 859 281 l 1,26,27
 804 293 804 293 774.5 330 c 128,-1,28
 745 367 745 367 745 431 c 2,29,-1
 745 631 l 2,30,31
 745 670 745 670 735 690.5 c 128,-1,32
 725 711 725 711 706 719 c 128,-1,33
 687 727 687 727 660 727 c 1,34,-1
 660 800 l 1,0,1
EndSplineSet
EndChar

StartChar: asciitilde.tamil
Encoding: 126 126 40
Width: 1619
Flags: W
LayerCount: 2
Fore
SplineSet
794 319 m 0,0,1
 758 335 758 335 736 341 c 128,-1,2
 714 347 714 347 691 347 c 0,3,4
 661 347 661 347 630 329.5 c 128,-1,5
 599 312 599 312 574 287 c 1,6,-1
 574 365 l 1,7,8
 599 391 599 391 629 404.5 c 128,-1,9
 659 418 659 418 694 418 c 0,10,11
 723 418 723 418 751.5 412 c 128,-1,12
 780 406 780 406 822 388 c 0,13,14
 862 371 862 371 884 365 c 128,-1,15
 906 359 906 359 934 359 c 0,16,17
 964 359 964 359 991.5 375.5 c 128,-1,18
 1019 392 1019 392 1045 418 c 1,19,-1
 1045 339 l 1,20,21
 1020 314 1020 314 991 300.5 c 128,-1,22
 962 287 962 287 925 287 c 0,23,24
 897 287 897 287 868 293.5 c 128,-1,25
 839 300 839 300 794 319 c 0,0,1
EndSplineSet
EndChar

StartChar: A
Encoding: 65 65 41
Width: 1619
Flags: W
AnchorPoint: "Anchor-1" 850.5 -29 basechar 0
AnchorPoint: "Anchor-0" 850.5 -29 basechar 0
LayerCount: 2
Fore
SplineSet
611.5 -124 m 2,0,1
 514.5 -124 514.5 -124 449.5 -100.5 c 128,-1,2
 384.5 -77 384.5 -77 352 -35.5 c 128,-1,3
 319.5 6 319.5 6 319.5 60 c 0,4,5
 319.5 85 319.5 85 330.5 109 c 128,-1,6
 341.5 133 341.5 133 364.5 149 c 0,7,8
 377.5 158 377.5 158 392.5 164 c 128,-1,9
 407.5 170 407.5 170 432 173 c 128,-1,10
 456.5 176 456.5 176 496.5 176 c 2,11,-1
 1219.5 176 l 5,12,-1
 1222.5 104 l 5,13,-1
 507.5 104 l 2,14,15
 476.5 104 476.5 104 460 103 c 128,-1,16
 443.5 102 443.5 102 435.5 99 c 128,-1,17
 427.5 96 427.5 96 419.5 90 c 0,18,19
 404.5 78 404.5 78 404.5 56 c 0,20,21
 404.5 7 404.5 7 457.5 -22 c 128,-1,22
 510.5 -51 510.5 -51 617.5 -51 c 2,23,-1
 634.5 -51 l 2,24,25
 735.5 -51 735.5 -51 808 -27.5 c 128,-1,26
 880.5 -4 880.5 -4 928 37 c 128,-1,27
 975.5 78 975.5 78 999.5 130 c 1,28,-1
 1003.5 149 l 2,29,30
 1012.5 174 1012.5 174 1016.5 199.5 c 128,-1,31
 1020.5 225 1020.5 225 1020.5 251 c 0,32,33
 1020.5 309 1020.5 309 1000.5 361 c 128,-1,34
 980.5 413 980.5 413 939 448.5 c 128,-1,35
 897.5 484 897.5 484 832.5 494 c 0,36,37
 819.5 496 819.5 496 808 496.5 c 128,-1,38
 796.5 497 796.5 497 783.5 497 c 0,39,40
 752.5 497 752.5 497 726.5 486 c 128,-1,41
 700.5 475 700.5 475 685 453 c 128,-1,42
 669.5 431 669.5 431 669.5 397 c 0,43,44
 669.5 360 669.5 360 692 334.5 c 128,-1,45
 714.5 309 714.5 309 755.5 309 c 0,46,47
 793.5 309 793.5 309 816 332.5 c 128,-1,48
 838.5 356 838.5 356 838.5 400 c 0,49,50
 838.5 433 838.5 433 828 459.5 c 128,-1,51
 817.5 486 817.5 486 791.5 510 c 1,52,-1
 848.5 527 l 1,53,54
 866.5 512 866.5 512 882 492 c 128,-1,55
 897.5 472 897.5 472 907 447.5 c 128,-1,56
 916.5 423 916.5 423 916.5 396 c 0,57,58
 916.5 361 916.5 361 906 332.5 c 128,-1,59
 895.5 304 895.5 304 874.5 283.5 c 128,-1,60
 853.5 263 853.5 263 823 252 c 128,-1,61
 792.5 241 792.5 241 753.5 241 c 0,62,63
 708.5 241 708.5 241 671.5 258 c 128,-1,64
 634.5 275 634.5 275 612.5 309 c 128,-1,65
 590.5 343 590.5 343 590.5 393 c 0,66,67
 590.5 455 590.5 455 619.5 493 c 128,-1,68
 648.5 531 648.5 531 695 548.5 c 128,-1,69
 741.5 566 741.5 566 793.5 566 c 0,70,71
 870.5 566 870.5 566 929 540 c 128,-1,72
 987.5 514 987.5 514 1027 469 c 128,-1,73
 1066.5 424 1066.5 424 1086.5 368 c 128,-1,74
 1106.5 312 1106.5 312 1106.5 252 c 0,75,76
 1106.5 225 1106.5 225 1103.5 199.5 c 0,77,78
 1100.30664062 171.290039062 1100.30664062 171.290039062 1094.5 150 c 2,79,-1
 1088.5 128 l 1,80,81
 1060.5 46 1060.5 46 995 -10 c 128,-1,82
 929.5 -66 929.5 -66 837 -95 c 128,-1,83
 744.5 -124 744.5 -124 632.5 -124 c 2,84,-1
 611.5 -124 l 2,0,1
1213.5 -154 m 5,85,-1
 1213.5 554 l 5,86,-1
 1299.5 554 l 5,87,-1
 1299.5 -154 l 5,88,-1
 1213.5 -154 l 5,85,-1
EndSplineSet
EndChar

StartChar: B
Encoding: 66 66 42
Width: 1619
Flags: W
LayerCount: 2
Fore
SplineSet
814 637 m 5,0,1
 801 660 801 660 779 686.5 c 132,-1,2
 757 713 757 713 733 739 c 132,-1,3
 709 765 709 765 691 784 c 5,4,-1
 691 797 l 5,5,-1
 751 797 l 5,6,7
 777 780 777 780 805 756 c 132,-1,8
 833 732 833 732 858 705 c 5,9,10
 885 732 885 732 913 756 c 132,-1,11
 941 780 941 780 967 797 c 5,12,-1
 1029 797 l 5,13,-1
 1029 784 l 5,14,15
 1010 765 1010 765 985.5 739 c 132,-1,16
 961 713 961 713 938.5 686.5 c 132,-1,17
 916 660 916 660 904 637 c 5,18,-1
 814 637 l 5,0,1
660 575 m 2,19,20
 660 541 660 541 658.5 511.5 c 128,-1,21
 657 482 657 482 655 465 c 1,22,-1
 660 465 l 1,23,24
 683 499 683 499 723 522 c 128,-1,25
 763 545 763 545 826 545 c 0,26,27
 926 545 926 545 986.5 475.5 c 128,-1,28
 1047 406 1047 406 1047 268 c 0,29,30
 1047 176 1047 176 1019.5 114 c 128,-1,31
 992 52 992 52 942 21 c 128,-1,32
 892 -10 892 -10 826 -10 c 0,33,34
 763 -10 763 -10 723 13 c 128,-1,35
 683 36 683 36 660 68 c 1,36,-1
 653 68 l 1,37,-1
 635 0 l 1,38,-1
 572 0 l 1,39,-1
 572 760 l 1,40,-1
 660 760 l 1,41,-1
 660 575 l 2,19,20
811 472 m 0,42,43
 754 472 754 472 721 450.5 c 128,-1,44
 688 429 688 429 674 384.5 c 128,-1,45
 660 340 660 340 660 271 c 2,46,-1
 660 267 l 2,47,48
 660 168 660 168 692.5 115.5 c 128,-1,49
 725 63 725 63 813 63 c 0,50,51
 885 63 885 63 920.5 116 c 128,-1,52
 956 169 956 169 956 269 c 0,53,54
 956 370 956 370 920.5 421 c 128,-1,55
 885 472 885 472 811 472 c 0,42,43
EndSplineSet
EndChar

StartChar: C
Encoding: 67 67 43
Width: 1619
Flags: W
AnchorPoint: "Anchor-1" 809.5 536 basechar 0
AnchorPoint: "Anchor-0" 809.5 0 basechar 0
LayerCount: 2
Fore
SplineSet
760.5 586 m 5,0,1
 747.5 609 747.5 609 725.5 635.5 c 132,-1,2
 703.5 662 703.5 662 679.5 688 c 132,-1,3
 655.5 714 655.5 714 637.5 733 c 5,4,-1
 637.5 746 l 5,5,-1
 697.5 746 l 5,6,7
 723.5 729 723.5 729 751.5 705 c 132,-1,8
 779.5 681 779.5 681 804.5 654 c 5,9,10
 831.5 681 831.5 681 859.5 705 c 132,-1,11
 887.5 729 887.5 729 913.5 746 c 5,12,-1
 975.5 746 l 5,13,-1
 975.5 733 l 5,14,15
 956.5 714 956.5 714 932 688 c 132,-1,16
 907.5 662 907.5 662 885 635.5 c 132,-1,17
 862.5 609 862.5 609 850.5 586 c 5,18,-1
 760.5 586 l 5,0,1
865.5 -10 m 0,19,20
 747.5 -10 747.5 -10 682.5 57 c 128,-1,21
 617.5 124 617.5 124 617.5 245 c 0,22,23
 617.5 325 617.5 325 646.5 380.5 c 128,-1,24
 675.5 436 675.5 436 729.5 465 c 1,25,-1
 596.5 465 l 1,26,-1
 596.5 537 l 1,27,-1
 1022.5 537 l 1,28,-1
 1022.5 465 l 1,29,-1
 909.5 465 l 2,30,31
 815.5 465 815.5 465 762 411.5 c 128,-1,32
 708.5 358 708.5 358 708.5 252 c 0,33,34
 708.5 165 708.5 165 751.5 114.5 c 128,-1,35
 794.5 64 794.5 64 874.5 64 c 0,36,37
 911.5 64 911.5 64 945.5 73.5 c 128,-1,38
 979.5 83 979.5 83 1011.5 99 c 1,39,-1
 1011.5 21 l 1,40,41
 982.5 5 982.5 5 947.5 -2.5 c 128,-1,42
 912.5 -10 912.5 -10 865.5 -10 c 0,19,20
EndSplineSet
EndChar

StartChar: D
Encoding: 68 68 44
Width: 1619
Flags: W
LayerCount: 2
Fore
SplineSet
1095.5 364 m 0,0,1
 1095.5 244 1095.5 244 1051 163 c 128,-1,2
 1006.5 82 1006.5 82 923.5 41 c 128,-1,3
 840.5 0 840.5 0 722.5 0 c 2,4,-1
 523.5 0 l 1,5,-1
 523.5 714 l 1,6,-1
 743.5 714 l 2,7,8
 851.5 714 851.5 714 930.5 674 c 128,-1,9
 1009.5 634 1009.5 634 1052.5 556.5 c 128,-1,10
 1095.5 479 1095.5 479 1095.5 364 c 0,0,1
1000.5 361 m 0,11,12
 1000.5 456 1000.5 456 969 517 c 128,-1,13
 937.5 578 937.5 578 877 607.5 c 128,-1,14
 816.5 637 816.5 637 730.5 637 c 2,15,-1
 613.5 637 l 1,16,-1
 613.5 77 l 1,17,-1
 710.5 77 l 2,18,19
 855.5 77 855.5 77 928 148.5 c 128,-1,20
 1000.5 220 1000.5 220 1000.5 361 c 0,11,12
EndSplineSet
EndChar

StartChar: E
Encoding: 69 69 45
Width: 1619
Flags: W
AnchorPoint: "Anchor-1" 810.5 766 basechar 0
LayerCount: 2
Fore
SplineSet
764.5 606 m 5,0,1
 751.5 629 751.5 629 729.5 655.5 c 132,-1,2
 707.5 682 707.5 682 683.5 708 c 132,-1,3
 659.5 734 659.5 734 641.5 753 c 5,4,-1
 641.5 766 l 5,5,-1
 701.5 766 l 5,6,7
 727.5 749 727.5 749 755.5 725 c 132,-1,8
 783.5 701 783.5 701 808.5 674 c 5,9,10
 835.5 701 835.5 701 863.5 725 c 132,-1,11
 891.5 749 891.5 749 917.5 766 c 5,12,-1
 979.5 766 l 5,13,-1
 979.5 753 l 5,14,15
 960.5 734 960.5 734 936 708 c 132,-1,16
 911.5 682 911.5 682 889 655.5 c 132,-1,17
 866.5 629 866.5 629 854.5 606 c 5,18,-1
 764.5 606 l 5,0,1
817.5 546 m 0,19,20
 886.5 546 886.5 546 936 516 c 128,-1,21
 985.5 486 985.5 486 1012 431.5 c 128,-1,22
 1038.5 377 1038.5 377 1038.5 304 c 2,23,-1
 1038.5 251 l 1,24,-1
 671.5 251 l 1,25,26
 673.5 160 673.5 160 718 112.5 c 128,-1,27
 762.5 65 762.5 65 842.5 65 c 0,28,29
 893.5 65 893.5 65 933 74.5 c 128,-1,30
 972.5 84 972.5 84 1014.5 102 c 1,31,-1
 1014.5 25 l 1,32,33
 973.5 7 973.5 7 933.5 -1.5 c 128,-1,34
 893.5 -10 893.5 -10 838.5 -10 c 0,35,36
 762.5 -10 762.5 -10 704 21 c 128,-1,37
 645.5 52 645.5 52 613 113.5 c 128,-1,38
 580.5 175 580.5 175 580.5 264 c 0,39,40
 580.5 352 580.5 352 610 415 c 128,-1,41
 639.5 478 639.5 478 693 512 c 128,-1,42
 746.5 546 746.5 546 817.5 546 c 0,19,20
816.5 474 m 0,43,44
 753.5 474 753.5 474 717 433.5 c 128,-1,45
 680.5 393 680.5 393 673.5 321 c 1,46,-1
 946.5 321 l 1,47,48
 946.5 367 946.5 367 932.5 401 c 128,-1,49
 918.5 435 918.5 435 890 454.5 c 128,-1,50
 861.5 474 861.5 474 816.5 474 c 0,43,44
EndSplineSet
EndChar

StartChar: F
Encoding: 70 70 46
Width: 1619
Flags: W
LayerCount: 2
Fore
SplineSet
604 85 m 0,0,1
 604 103 604 103 619.5 118 c 128,-1,2
 635 133 635 133 663 144.5 c 128,-1,3
 691 156 691 156 728.5 162.5 c 128,-1,4
 766 169 766 169 809 169 c 0,5,6
 853 169 853 169 890.5 162.5 c 128,-1,7
 928 156 928 156 955.5 144.5 c 128,-1,8
 983 133 983 133 999 118 c 128,-1,9
 1015 103 1015 103 1015 85 c 0,10,11
 1015 68 1015 68 999 53 c 128,-1,12
 983 38 983 38 955.5 27 c 128,-1,13
 928 16 928 16 890.5 9.5 c 128,-1,14
 853 3 853 3 809 3 c 0,15,16
 766 3 766 3 728.5 9.5 c 128,-1,17
 691 16 691 16 663 27 c 128,-1,18
 635 38 635 38 619.5 53 c 128,-1,19
 604 68 604 68 604 85 c 0,0,1
604 272 m 0,20,21
 604 290 604 290 619.5 305 c 128,-1,22
 635 320 635 320 663 331.5 c 128,-1,23
 691 343 691 343 728.5 349 c 128,-1,24
 766 355 766 355 809 355 c 0,25,26
 853 355 853 355 890.5 349 c 128,-1,27
 928 343 928 343 955.5 331.5 c 128,-1,28
 983 320 983 320 999 305 c 128,-1,29
 1015 290 1015 290 1015 272 c 0,30,31
 1015 255 1015 255 999 240 c 128,-1,32
 983 225 983 225 955.5 214 c 128,-1,33
 928 203 928 203 890.5 196 c 128,-1,34
 853 189 853 189 809 189 c 0,35,36
 766 189 766 189 728.5 196 c 128,-1,37
 691 203 691 203 663 214 c 128,-1,38
 635 225 635 225 619.5 240 c 128,-1,39
 604 255 604 255 604 272 c 0,20,21
604 461 m 256,40,41
 604 478 604 478 619.5 493.5 c 128,-1,42
 635 509 635 509 663 520 c 128,-1,43
 691 531 691 531 728.5 537.5 c 128,-1,44
 766 544 766 544 809 544 c 0,45,46
 853 544 853 544 890.5 537.5 c 128,-1,47
 928 531 928 531 955.5 520 c 128,-1,48
 983 509 983 509 999 493.5 c 128,-1,49
 1015 478 1015 478 1015 461 c 256,50,51
 1015 444 1015 444 999 429 c 128,-1,52
 983 414 983 414 955.5 402.5 c 128,-1,53
 928 391 928 391 890.5 384.5 c 128,-1,54
 853 378 853 378 809 378 c 0,55,56
 766 378 766 378 728.5 384.5 c 128,-1,57
 691 391 691 391 663 402.5 c 128,-1,58
 635 414 635 414 619.5 429 c 128,-1,59
 604 444 604 444 604 461 c 256,40,41
604 648 m 256,60,61
 604 665 604 665 619.5 680.5 c 128,-1,62
 635 696 635 696 663 707 c 128,-1,63
 691 718 691 718 728.5 724.5 c 128,-1,64
 766 731 766 731 809 731 c 0,65,66
 853 731 853 731 890.5 724.5 c 128,-1,67
 928 718 928 718 955.5 707 c 128,-1,68
 983 696 983 696 999 680.5 c 128,-1,69
 1015 665 1015 665 1015 648 c 256,70,71
 1015 631 1015 631 999 616 c 128,-1,72
 983 601 983 601 955.5 589.5 c 128,-1,73
 928 578 928 578 890.5 571.5 c 128,-1,74
 853 565 853 565 809 565 c 0,75,76
 766 565 766 565 728.5 571.5 c 128,-1,77
 691 578 691 578 663 589.5 c 128,-1,78
 635 601 635 601 619.5 616 c 128,-1,79
 604 631 604 631 604 648 c 256,60,61
EndSplineSet
EndChar

StartChar: G
Encoding: 71 71 47
Width: 1619
Flags: W
AnchorPoint: "Anchor-1" 802 766 basechar 0
LayerCount: 2
Fore
SplineSet
756 606 m 5,0,1
 743 629 743 629 721 655.5 c 132,-1,2
 699 682 699 682 675 708 c 132,-1,3
 651 734 651 734 633 753 c 5,4,-1
 633 766 l 5,5,-1
 693 766 l 5,6,7
 719 749 719 749 747 725 c 132,-1,8
 775 701 775 701 800 674 c 5,9,10
 827 701 827 701 855 725 c 132,-1,11
 883 749 883 749 909 766 c 5,12,-1
 971 766 l 5,13,-1
 971 753 l 5,14,15
 952 734 952 734 927.5 708 c 132,-1,16
 903 682 903 682 880.5 655.5 c 132,-1,17
 858 629 858 629 846 606 c 5,18,-1
 756 606 l 5,0,1
792 546 m 0,19,20
 845 546 845 546 887.5 526 c 128,-1,21
 930 506 930 506 960 465 c 1,22,-1
 965 465 l 1,23,-1
 977 536 l 1,24,-1
 1047 536 l 1,25,-1
 1047 -9 l 2,26,27
 1047 -85 1047 -85 1021 -136.5 c 128,-1,28
 995 -188 995 -188 942 -214 c 128,-1,29
 889 -240 889 -240 807 -240 c 0,30,31
 749 -240 749 -240 700.5 -231.5 c 128,-1,32
 652 -223 652 -223 614 -206 c 1,33,-1
 614 -125 l 1,34,35
 652 -145 652 -145 703 -156 c 128,-1,36
 754 -167 754 -167 812 -167 c 0,37,38
 881 -167 881 -167 920.5 -126.5 c 128,-1,39
 960 -86 960 -86 960 -16 c 2,40,-1
 960 5 l 2,41,42
 960 17 960 17 961 39.5 c 128,-1,43
 962 62 962 62 963 71 c 1,44,-1
 959 71 l 1,45,46
 931 30 931 30 889.5 10 c 128,-1,47
 848 -10 848 -10 793 -10 c 0,48,49
 689 -10 689 -10 630.5 63 c 128,-1,50
 572 136 572 136 572 267 c 0,51,52
 572 395 572 395 630.5 470.5 c 128,-1,53
 689 546 689 546 792 546 c 0,19,20
804 472 m 0,54,55
 759 472 759 472 727.5 448 c 128,-1,56
 696 424 696 424 679.5 378 c 128,-1,57
 663 332 663 332 663 266 c 0,58,59
 663 167 663 167 699.5 114.5 c 128,-1,60
 736 62 736 62 806 62 c 0,61,62
 847 62 847 62 876 72.5 c 128,-1,63
 905 83 905 83 924 105.5 c 128,-1,64
 943 128 943 128 952 163 c 128,-1,65
 961 198 961 198 961 246 c 2,66,-1
 961 267 l 2,67,68
 961 340 961 340 944.5 385 c 128,-1,69
 928 430 928 430 893 451 c 128,-1,70
 858 472 858 472 804 472 c 0,54,55
EndSplineSet
EndChar

StartChar: H
Encoding: 72 72 48
Width: 1619
Flags: W
AnchorPoint: "Anchor-2" 815.5 -200 basechar 0
AnchorPoint: "Anchor-1" 815.5 -29 basechar 0
AnchorPoint: "Anchor-0" 815.5 -29 basechar 0
LayerCount: 2
Fore
SplineSet
1323.5 566 m 0,0,1
 1399.5 566 1399.5 566 1452 528 c 128,-1,2
 1504.5 490 1504.5 490 1531.5 418.5 c 128,-1,3
 1558.5 347 1558.5 347 1558.5 244 c 0,4,5
 1558.5 122 1558.5 122 1527.5 44.5 c 128,-1,6
 1496.5 -33 1496.5 -33 1443.5 -77 c 0,7,8
 1405.5 -108 1405.5 -108 1357.5 -125.5 c 128,-1,9
 1309.5 -143 1309.5 -143 1255 -149.5 c 128,-1,10
 1200.5 -156 1200.5 -156 1141.5 -156 c 2,11,-1
 475.5 -156 l 6,12,13
 433.5 -156 433.5 -156 410.5 -162 c 132,-1,14
 387.5 -168 387.5 -168 370.5 -179 c 4,15,16
 354.5 -190 354.5 -190 345.5 -210 c 132,-1,17
 336.5 -230 336.5 -230 336.5 -263 c 4,18,19
 336.5 -278 336.5 -278 337.5 -291.5 c 132,-1,20
 338.5 -305 338.5 -305 339.5 -317 c 5,21,-1
 257.5 -321 l 5,22,23
 254.5 -303 254.5 -303 252.5 -281.5 c 132,-1,24
 250.5 -260 250.5 -260 250.5 -243 c 4,25,26
 250.5 -199 250.5 -199 266.5 -168.5 c 132,-1,27
 282.5 -138 282.5 -138 307.5 -119 c 4,28,29
 325.5 -106 325.5 -106 345 -98.5 c 132,-1,30
 364.5 -91 364.5 -91 390 -87.5 c 132,-1,31
 415.5 -84 415.5 -84 448.5 -84 c 6,32,-1
 1119.5 -84 l 2,33,34
 1212.5 -84 1212.5 -84 1278.5 -70.5 c 128,-1,35
 1344.5 -57 1344.5 -57 1387 -22 c 128,-1,36
 1429.5 13 1429.5 13 1449.5 78.5 c 128,-1,37
 1469.5 144 1469.5 144 1469.5 247 c 0,38,39
 1469.5 338 1469.5 338 1450 392 c 128,-1,40
 1430.5 446 1430.5 446 1396 470 c 128,-1,41
 1361.5 494 1361.5 494 1317.5 494 c 0,42,43
 1290.5 494 1290.5 494 1267.5 485.5 c 128,-1,44
 1244.5 477 1244.5 477 1227.5 458 c 0,45,46
 1207.5 435 1207.5 435 1199.5 404 c 128,-1,47
 1191.5 373 1191.5 373 1191.5 319 c 2,48,-1
 1191.5 0 l 1,49,-1
 1105.5 0 l 1,50,-1
 1105.5 321 l 2,51,52
 1105.5 370 1105.5 370 1100.5 404.5 c 128,-1,53
 1095.5 439 1095.5 439 1080.5 461 c 0,54,55
 1070.5 476 1070.5 476 1054.5 485 c 128,-1,56
 1038.5 494 1038.5 494 1015.5 494 c 256,57,58
 992.5 494 992.5 494 977 485.5 c 128,-1,59
 961.5 477 961.5 477 950.5 463 c 0,60,61
 934.5 441 934.5 441 930 406.5 c 128,-1,62
 925.5 372 925.5 372 925.5 328 c 2,63,-1
 925.5 0 l 1,64,-1
 839.5 0 l 1,65,-1
 839.5 341 l 2,66,67
 839.5 390 839.5 390 844 423 c 128,-1,68
 848.5 456 848.5 456 860.5 480 c 128,-1,69
 872.5 504 872.5 504 892.5 524 c 0,70,71
 913.5 545 913.5 545 942.5 555.5 c 128,-1,72
 971.5 566 971.5 566 1008.5 566 c 0,73,74
 1047.5 566 1047.5 566 1077.5 552 c 128,-1,75
 1107.5 538 1107.5 538 1129.5 510.5 c 128,-1,76
 1151.5 483 1151.5 483 1164.5 443 c 1,77,-1
 1143.5 450 l 1,78,79
 1154.5 483 1154.5 483 1178 509.5 c 128,-1,80
 1201.5 536 1201.5 536 1238 551 c 128,-1,81
 1274.5 566 1274.5 566 1323.5 566 c 0,0,1
252.5 -12 m 0,82,83
 199.5 -12 199.5 -12 155.5 14.5 c 128,-1,84
 111.5 41 111.5 41 86 97 c 128,-1,85
 60.5 153 60.5 153 60.5 243 c 0,86,87
 60.5 350 60.5 350 103 422 c 128,-1,88
 145.5 494 145.5 494 215.5 530 c 128,-1,89
 285.5 566 285.5 566 367.5 566 c 0,90,91
 443.5 566 443.5 566 498 543.5 c 128,-1,92
 552.5 521 552.5 521 587 481.5 c 128,-1,93
 621.5 442 621.5 442 638 390.5 c 128,-1,94
 654.5 339 654.5 339 654.5 280 c 0,95,96
 654.5 216 654.5 216 640.5 166 c 128,-1,97
 626.5 116 626.5 116 606.5 72 c 1,98,-1
 872.5 72 l 1,99,-1
 870.5 0 l 1,100,-1
 518.5 0 l 1,101,-1
 514.5 63 l 1,102,103
 537.5 98 537.5 98 552 149.5 c 128,-1,104
 566.5 201 566.5 201 566.5 269 c 0,105,106
 566.5 340 566.5 340 541.5 390 c 128,-1,107
 516.5 440 516.5 440 471 466 c 128,-1,108
 425.5 492 425.5 492 363.5 492 c 0,109,110
 293.5 492 293.5 492 243.5 458.5 c 128,-1,111
 193.5 425 193.5 425 166.5 367.5 c 128,-1,112
 139.5 310 139.5 310 139.5 237 c 0,113,114
 139.5 170 139.5 170 155 130.5 c 128,-1,115
 170.5 91 170.5 91 197 73.5 c 128,-1,116
 223.5 56 223.5 56 256.5 56 c 0,117,118
 282.5 56 282.5 56 302 67.5 c 128,-1,119
 321.5 79 321.5 79 332.5 101 c 128,-1,120
 343.5 123 343.5 123 343.5 155 c 0,121,122
 343.5 205 343.5 205 317.5 231.5 c 128,-1,123
 291.5 258 291.5 258 250.5 258 c 0,124,125
 210.5 258 210.5 258 175.5 237 c 128,-1,126
 140.5 216 140.5 216 111.5 184 c 1,127,-1
 96.5 248 l 1,128,129
 126.5 283 126.5 283 171 305.5 c 128,-1,130
 215.5 328 215.5 328 264.5 328 c 0,131,132
 336.5 328 336.5 328 381 284 c 128,-1,133
 425.5 240 425.5 240 425.5 165 c 0,134,135
 425.5 110 425.5 110 404.5 70 c 128,-1,136
 383.5 30 383.5 30 345 9 c 128,-1,137
 306.5 -12 306.5 -12 252.5 -12 c 0,82,83
EndSplineSet
EndChar

StartChar: I
Encoding: 73 73 49
Width: 1619
Flags: W
AnchorPoint: "Anchor-1" 801.471 635.345 basechar 0
LayerCount: 2
Fore
SplineSet
775.919921875 608.530273438 m 5,0,1
 766.4296875 629 766.4296875 629 750.370117188 652.584960938 c 132,-1,2
 734.309570312 676.169921875 734.309570312 676.169921875 716.790039062 699.309570312 c 132,-1,3
 699.26953125 722.450195312 699.26953125 722.450195312 686.129882812 739.360351562 c 5,4,-1
 686.129882812 750.9296875 l 5,5,-1
 729.9296875 750.9296875 l 5,6,7
 748.91015625 735.799804688 748.91015625 735.799804688 769.349609375 714.440429688 c 132,-1,8
 789.790039062 693.080078125 789.790039062 693.080078125 808.040039062 669.049804688 c 5,9,10
 827.75 693.080078125 827.75 693.080078125 848.189453125 714.440429688 c 132,-1,11
 868.629882812 735.799804688 868.629882812 735.799804688 887.609375 750.9296875 c 5,12,-1
 932.870117188 750.9296875 l 5,13,-1
 932.870117188 739.360351562 l 5,14,15
 919 722.450195312 919 722.450195312 901.114257812 699.309570312 c 132,-1,16
 883.229492188 676.169921875 883.229492188 676.169921875 866.8046875 652.584960938 c 132,-1,17
 850.379882812 629 850.379882812 629 841.620117188 608.530273438 c 5,18,-1
 775.919921875 608.530273438 l 5,0,1
854.469726562 536 m 1,19,-1
 854.469726562 0 l 1,20,-1
 766.469726562 0 l 1,21,-1
 766.469726562 536 l 1,22,-1
 854.469726562 536 l 1,19,-1
EndSplineSet
EndChar

StartChar: J
Encoding: 74 74 50
Width: 1619
Flags: W
LayerCount: 2
Fore
SplineSet
604 85 m 0,0,1
 604 103 604 103 619.5 118 c 128,-1,2
 635 133 635 133 663 144.5 c 128,-1,3
 691 156 691 156 728.5 162.5 c 128,-1,4
 766 169 766 169 809 169 c 0,5,6
 853 169 853 169 890.5 162.5 c 128,-1,7
 928 156 928 156 955.5 144.5 c 128,-1,8
 983 133 983 133 999 118 c 128,-1,9
 1015 103 1015 103 1015 85 c 0,10,11
 1015 68 1015 68 999 53 c 128,-1,12
 983 38 983 38 955.5 27 c 128,-1,13
 928 16 928 16 890.5 9.5 c 128,-1,14
 853 3 853 3 809 3 c 0,15,16
 766 3 766 3 728.5 9.5 c 128,-1,17
 691 16 691 16 663 27 c 128,-1,18
 635 38 635 38 619.5 53 c 128,-1,19
 604 68 604 68 604 85 c 0,0,1
604 272 m 0,20,21
 604 290 604 290 619.5 305 c 128,-1,22
 635 320 635 320 663 331.5 c 128,-1,23
 691 343 691 343 728.5 349 c 128,-1,24
 766 355 766 355 809 355 c 0,25,26
 853 355 853 355 890.5 349 c 128,-1,27
 928 343 928 343 955.5 331.5 c 128,-1,28
 983 320 983 320 999 305 c 128,-1,29
 1015 290 1015 290 1015 272 c 0,30,31
 1015 255 1015 255 999 240 c 128,-1,32
 983 225 983 225 955.5 214 c 128,-1,33
 928 203 928 203 890.5 196 c 128,-1,34
 853 189 853 189 809 189 c 0,35,36
 766 189 766 189 728.5 196 c 128,-1,37
 691 203 691 203 663 214 c 128,-1,38
 635 225 635 225 619.5 240 c 128,-1,39
 604 255 604 255 604 272 c 0,20,21
604 461 m 256,40,41
 604 478 604 478 619.5 493.5 c 128,-1,42
 635 509 635 509 663 520 c 128,-1,43
 691 531 691 531 728.5 537.5 c 128,-1,44
 766 544 766 544 809 544 c 0,45,46
 853 544 853 544 890.5 537.5 c 128,-1,47
 928 531 928 531 955.5 520 c 128,-1,48
 983 509 983 509 999 493.5 c 128,-1,49
 1015 478 1015 478 1015 461 c 256,50,51
 1015 444 1015 444 999 429 c 128,-1,52
 983 414 983 414 955.5 402.5 c 128,-1,53
 928 391 928 391 890.5 384.5 c 128,-1,54
 853 378 853 378 809 378 c 0,55,56
 766 378 766 378 728.5 384.5 c 128,-1,57
 691 391 691 391 663 402.5 c 128,-1,58
 635 414 635 414 619.5 429 c 128,-1,59
 604 444 604 444 604 461 c 256,40,41
684 461 m 256,60,61
 684 450 684 450 693.5 440.5 c 128,-1,62
 703 431 703 431 720 424 c 128,-1,63
 737 417 737 417 760 413 c 128,-1,64
 783 409 783 409 809 409 c 0,65,66
 836 409 836 409 858.5 413 c 128,-1,67
 881 417 881 417 898 424 c 128,-1,68
 915 431 915 431 924.5 440.5 c 128,-1,69
 934 450 934 450 934 461 c 256,70,71
 934 472 934 472 924.5 481.5 c 128,-1,72
 915 491 915 491 898 498 c 128,-1,73
 881 505 881 505 858.5 509 c 128,-1,74
 836 513 836 513 809 513 c 0,75,76
 783 513 783 513 760 509 c 128,-1,77
 737 505 737 505 720 498 c 128,-1,78
 703 491 703 491 693.5 481.5 c 128,-1,79
 684 472 684 472 684 461 c 256,60,61
604 648 m 256,80,81
 604 665 604 665 619.5 680.5 c 128,-1,82
 635 696 635 696 663 707 c 128,-1,83
 691 718 691 718 728.5 724.5 c 128,-1,84
 766 731 766 731 809 731 c 0,85,86
 853 731 853 731 890.5 724.5 c 128,-1,87
 928 718 928 718 955.5 707 c 128,-1,88
 983 696 983 696 999 680.5 c 128,-1,89
 1015 665 1015 665 1015 648 c 256,90,91
 1015 631 1015 631 999 616 c 128,-1,92
 983 601 983 601 955.5 589.5 c 128,-1,93
 928 578 928 578 890.5 571.5 c 128,-1,94
 853 565 853 565 809 565 c 0,95,96
 766 565 766 565 728.5 571.5 c 128,-1,97
 691 578 691 578 663 589.5 c 128,-1,98
 635 601 635 601 619.5 616 c 128,-1,99
 604 631 604 631 604 648 c 256,80,81
EndSplineSet
EndChar

StartChar: K
Encoding: 75 75 51
Width: 1619
Flags: W
AnchorPoint: "Anchor-2" 809 -78 basechar 0
AnchorPoint: "Anchor-1" 809 -29 basechar 0
AnchorPoint: "Anchor-0" 809 -29 basechar 0
LayerCount: 2
Fore
SplineSet
795 580 m 5,0,1
 782 603 782 603 760 629.5 c 132,-1,2
 738 656 738 656 714 682 c 132,-1,3
 690 708 690 708 672 727 c 5,4,-1
 672 740 l 5,5,-1
 732 740 l 5,6,7
 758 723 758 723 786 699 c 132,-1,8
 814 675 814 675 839 648 c 5,9,10
 866 675 866 675 894 699 c 132,-1,11
 922 723 922 723 948 740 c 5,12,-1
 1010 740 l 5,13,-1
 1010 727 l 5,14,15
 991 708 991 708 966.5 682 c 132,-1,16
 942 656 942 656 919.5 629.5 c 132,-1,17
 897 603 897 603 885 580 c 5,18,-1
 795 580 l 5,0,1
658 -12 m 0,19,20
 598 -12 598 -12 550 7 c 128,-1,21
 502 26 502 26 474 63 c 128,-1,22
 446 100 446 100 446 152 c 0,23,24
 446 206 446 206 474.5 245.5 c 128,-1,25
 503 285 503 285 565 306.5 c 128,-1,26
 627 328 627 328 729 328 c 2,27,-1
 909 328 l 2,28,29
 961 328 961 328 999 323 c 128,-1,30
 1037 318 1037 318 1065.5 307.5 c 128,-1,31
 1094 297 1094 297 1117 279 c 0,32,33
 1143 259 1143 259 1158 226.5 c 128,-1,34
 1173 194 1173 194 1173 152 c 0,35,36
 1173 76 1173 76 1127.5 34 c 128,-1,37
 1082 -8 1082 -8 999 -8 c 0,38,39
 976 -8 976 -8 949 -5 c 128,-1,40
 922 -2 922 -2 899 5 c 1,41,-1
 918 72 l 1,42,43
 933 68 933 68 952.5 65 c 128,-1,44
 972 62 972 62 991 62 c 0,45,46
 1038 62 1038 62 1062.5 85 c 128,-1,47
 1087 108 1087 108 1087 156 c 0,48,49
 1087 190 1087 190 1072 210.5 c 128,-1,50
 1057 231 1057 231 1032.5 241 c 128,-1,51
 1008 251 1008 251 977.5 254.5 c 128,-1,52
 947 258 947 258 916 258 c 2,53,-1
 722 258 l 2,54,55
 671 258 671 258 635.5 252 c 128,-1,56
 600 246 600 246 575 232 c 0,57,58
 553 219 553 219 542.5 200.5 c 128,-1,59
 532 182 532 182 532 153 c 0,60,61
 532 107 532 107 570 83.5 c 128,-1,62
 608 60 608 60 666 60 c 0,63,64
 710 60 710 60 741.5 73.5 c 128,-1,65
 773 87 773 87 790.5 120 c 128,-1,66
 808 153 808 153 808 213 c 2,67,-1
 808 482 l 1,68,-1
 636 482 l 1,69,-1
 636 302 l 1,70,-1
 557 286 l 1,71,-1
 557 554 l 1,72,-1
 1080 554 l 1,73,-1
 1080 482 l 1,74,-1
 893 482 l 1,75,-1
 893 226 l 2,76,77
 893 159 893 159 881.5 121 c 128,-1,78
 870 83 870 83 849 57 c 0,79,80
 818 19 818 19 769.5 3.5 c 128,-1,81
 721 -12 721 -12 658 -12 c 0,19,20
EndSplineSet
EndChar

StartChar: L
Encoding: 76 76 52
Width: 1619
Flags: W
LayerCount: 2
Fore
SplineSet
604 85 m 0,0,1
 604 103 604 103 619.5 118 c 128,-1,2
 635 133 635 133 663 144.5 c 128,-1,3
 691 156 691 156 728.5 162.5 c 128,-1,4
 766 169 766 169 809 169 c 0,5,6
 853 169 853 169 890.5 162.5 c 128,-1,7
 928 156 928 156 955.5 144.5 c 128,-1,8
 983 133 983 133 999 118 c 128,-1,9
 1015 103 1015 103 1015 85 c 0,10,11
 1015 68 1015 68 999 53 c 128,-1,12
 983 38 983 38 955.5 27 c 128,-1,13
 928 16 928 16 890.5 9.5 c 128,-1,14
 853 3 853 3 809 3 c 0,15,16
 766 3 766 3 728.5 9.5 c 128,-1,17
 691 16 691 16 663 27 c 128,-1,18
 635 38 635 38 619.5 53 c 128,-1,19
 604 68 604 68 604 85 c 0,0,1
684 85 m 256,20,21
 684 74 684 74 693.5 64.5 c 128,-1,22
 703 55 703 55 720 48.5 c 128,-1,23
 737 42 737 42 760 38 c 128,-1,24
 783 34 783 34 809 34 c 0,25,26
 836 34 836 34 858.5 38 c 128,-1,27
 881 42 881 42 898 48.5 c 128,-1,28
 915 55 915 55 924.5 64.5 c 128,-1,29
 934 74 934 74 934 85 c 256,30,31
 934 96 934 96 924.5 105.5 c 128,-1,32
 915 115 915 115 898 122 c 128,-1,33
 881 129 881 129 858.5 133 c 128,-1,34
 836 137 836 137 809 137 c 0,35,36
 783 137 783 137 760 133 c 128,-1,37
 737 129 737 129 720 122 c 128,-1,38
 703 115 703 115 693.5 105.5 c 128,-1,39
 684 96 684 96 684 85 c 256,20,21
604 272 m 0,40,41
 604 290 604 290 619.5 305 c 128,-1,42
 635 320 635 320 663 331.5 c 128,-1,43
 691 343 691 343 728.5 349 c 128,-1,44
 766 355 766 355 809 355 c 0,45,46
 853 355 853 355 890.5 349 c 128,-1,47
 928 343 928 343 955.5 331.5 c 128,-1,48
 983 320 983 320 999 305 c 128,-1,49
 1015 290 1015 290 1015 272 c 0,50,51
 1015 255 1015 255 999 240 c 128,-1,52
 983 225 983 225 955.5 214 c 128,-1,53
 928 203 928 203 890.5 196 c 128,-1,54
 853 189 853 189 809 189 c 0,55,56
 766 189 766 189 728.5 196 c 128,-1,57
 691 203 691 203 663 214 c 128,-1,58
 635 225 635 225 619.5 240 c 128,-1,59
 604 255 604 255 604 272 c 0,40,41
604 461 m 256,60,61
 604 478 604 478 619.5 493.5 c 128,-1,62
 635 509 635 509 663 520 c 128,-1,63
 691 531 691 531 728.5 537.5 c 128,-1,64
 766 544 766 544 809 544 c 0,65,66
 853 544 853 544 890.5 537.5 c 128,-1,67
 928 531 928 531 955.5 520 c 128,-1,68
 983 509 983 509 999 493.5 c 128,-1,69
 1015 478 1015 478 1015 461 c 256,70,71
 1015 444 1015 444 999 429 c 128,-1,72
 983 414 983 414 955.5 402.5 c 128,-1,73
 928 391 928 391 890.5 384.5 c 128,-1,74
 853 378 853 378 809 378 c 0,75,76
 766 378 766 378 728.5 384.5 c 128,-1,77
 691 391 691 391 663 402.5 c 128,-1,78
 635 414 635 414 619.5 429 c 128,-1,79
 604 444 604 444 604 461 c 256,60,61
684 461 m 256,80,81
 684 450 684 450 693.5 440.5 c 128,-1,82
 703 431 703 431 720 424 c 128,-1,83
 737 417 737 417 760 413 c 128,-1,84
 783 409 783 409 809 409 c 0,85,86
 836 409 836 409 858.5 413 c 128,-1,87
 881 417 881 417 898 424 c 128,-1,88
 915 431 915 431 924.5 440.5 c 128,-1,89
 934 450 934 450 934 461 c 256,90,91
 934 472 934 472 924.5 481.5 c 128,-1,92
 915 491 915 491 898 498 c 128,-1,93
 881 505 881 505 858.5 509 c 128,-1,94
 836 513 836 513 809 513 c 0,95,96
 783 513 783 513 760 509 c 128,-1,97
 737 505 737 505 720 498 c 128,-1,98
 703 491 703 491 693.5 481.5 c 128,-1,99
 684 472 684 472 684 461 c 256,80,81
604 648 m 256,100,101
 604 665 604 665 619.5 680.5 c 128,-1,102
 635 696 635 696 663 707 c 128,-1,103
 691 718 691 718 728.5 724.5 c 128,-1,104
 766 731 766 731 809 731 c 0,105,106
 853 731 853 731 890.5 724.5 c 128,-1,107
 928 718 928 718 955.5 707 c 128,-1,108
 983 696 983 696 999 680.5 c 128,-1,109
 1015 665 1015 665 1015 648 c 256,110,111
 1015 631 1015 631 999 616 c 128,-1,112
 983 601 983 601 955.5 589.5 c 128,-1,113
 928 578 928 578 890.5 571.5 c 128,-1,114
 853 565 853 565 809 565 c 0,115,116
 766 565 766 565 728.5 571.5 c 128,-1,117
 691 578 691 578 663 589.5 c 128,-1,118
 635 601 635 601 619.5 616 c 128,-1,119
 604 631 604 631 604 648 c 256,100,101
EndSplineSet
EndChar

StartChar: M
Encoding: 77 77 53
Width: 1619
Flags: W
AnchorPoint: "Anchor-2" 796 -78 basechar 0
AnchorPoint: "Anchor-1" 796 -29 basechar 0
AnchorPoint: "Anchor-0" 796 -29 basechar 0
LayerCount: 2
Fore
SplineSet
619 575 m 5,0,1
 606 598 606 598 584 624.5 c 132,-1,2
 562 651 562 651 538 677 c 132,-1,3
 514 703 514 703 496 722 c 5,4,-1
 496 735 l 5,5,-1
 556 735 l 5,6,7
 582 718 582 718 610 694 c 132,-1,8
 638 670 638 670 663 643 c 5,9,10
 690 670 690 670 718 694 c 132,-1,11
 746 718 746 718 772 735 c 5,12,-1
 834 735 l 5,13,-1
 834 722 l 5,14,15
 815 703 815 703 790.5 677 c 132,-1,16
 766 651 766 651 743.5 624.5 c 132,-1,17
 721 598 721 598 709 575 c 5,18,-1
 619 575 l 5,0,1
947 566 m 0,19,20
 1022 566 1022 566 1070 527.5 c 128,-1,21
 1118 489 1118 489 1141 420.5 c 128,-1,22
 1164 352 1164 352 1164 262 c 0,23,24
 1164 192 1164 192 1149 142 c 128,-1,25
 1134 92 1134 92 1101 60 c 0,26,27
 1078 37 1078 37 1048 24 c 128,-1,28
 1018 11 1018 11 977.5 5.5 c 128,-1,29
 937 0 937 0 879 0 c 2,30,-1
 455 0 l 1,31,-1
 455 554 l 1,32,-1
 541 554 l 1,33,-1
 541 72 l 1,34,-1
 767 72 l 1,35,-1
 767 355 l 2,36,37
 767 417 767 417 778.5 453.5 c 128,-1,38
 790 490 790 490 812 515 c 0,39,40
 835 540 835 540 867 553 c 128,-1,41
 899 566 899 566 947 566 c 0,19,20
945 494 m 0,42,43
 928 494 928 494 912 488.5 c 128,-1,44
 896 483 896 483 885 471 c 0,45,46
 869 453 869 453 861 426.5 c 128,-1,47
 853 400 853 400 853 338 c 2,48,-1
 853 72 l 1,49,-1
 900 72 l 2,50,51
 968 72 968 72 1006 91 c 128,-1,52
 1044 110 1044 110 1060 153 c 128,-1,53
 1076 196 1076 196 1076 267 c 0,54,55
 1076 331 1076 331 1062.5 382 c 128,-1,56
 1049 433 1049 433 1020.5 463.5 c 128,-1,57
 992 494 992 494 945 494 c 0,42,43
EndSplineSet
EndChar

StartChar: N
Encoding: 78 78 54
Width: 1619
Flags: W
AnchorPoint: "Anchor-2" 1101.5 572 basechar 0
AnchorPoint: "Anchor-1" 810.5 572 basechar 0
AnchorPoint: "Anchor-0" 810.5 0 basechar 0
LayerCount: 2
Fore
SplineSet
1046.5 572 m 1,0,-1
 1046.5 0 l 1,1,-1
 939.5 0 l 1,2,-1
 649.5 464 l 1,3,-1
 645.5 464 l 1,4,5
 647.5 437 647.5 437 649.5 396.5 c 128,-1,6
 651.5 356 651.5 356 651.5 324 c 2,7,-1
 651.5 0 l 1,8,-1
 572.5 0 l 1,9,-1
 572.5 572 l 1,10,-1
 679.5 572 l 1,11,-1
 968.5 110 l 1,12,-1
 971.5 110 l 1,13,14
 969.5 131 969.5 131 968.5 170 c 128,-1,15
 967.5 209 967.5 209 967.5 244 c 2,16,-1
 967.5 572 l 1,17,-1
 1046.5 572 l 1,0,-1
EndSplineSet
EndChar

StartChar: O
Encoding: 79 79 55
Width: 1619
Flags: W
AnchorPoint: "Anchor-1" 791.5 766 basechar 0
LayerCount: 2
Fore
SplineSet
745.5 606 m 5,0,1
 732.5 629 732.5 629 710.5 655.5 c 132,-1,2
 688.5 682 688.5 682 664.5 708 c 132,-1,3
 640.5 734 640.5 734 622.5 753 c 5,4,-1
 622.5 766 l 5,5,-1
 682.5 766 l 5,6,7
 708.5 749 708.5 749 736.5 725 c 132,-1,8
 764.5 701 764.5 701 789.5 674 c 5,9,10
 816.5 701 816.5 701 844.5 725 c 132,-1,11
 872.5 749 872.5 749 898.5 766 c 5,12,-1
 960.5 766 l 5,13,-1
 960.5 753 l 5,14,15
 941.5 734 941.5 734 917 708 c 132,-1,16
 892.5 682 892.5 682 870 655.5 c 132,-1,17
 847.5 629 847.5 629 835.5 606 c 5,18,-1
 745.5 606 l 5,0,1
1057.5 269 m 0,19,20
 1057.5 202 1057.5 202 1040 150.5 c 128,-1,21
 1022.5 99 1022.5 99 990 63 c 128,-1,22
 957.5 27 957.5 27 911 8.5 c 128,-1,23
 864.5 -10 864.5 -10 807.5 -10 c 0,24,25
 754.5 -10 754.5 -10 709.5 8.5 c 128,-1,26
 664.5 27 664.5 27 631.5 63 c 128,-1,27
 598.5 99 598.5 99 580 150.5 c 128,-1,28
 561.5 202 561.5 202 561.5 269 c 0,29,30
 561.5 358 561.5 358 591.5 419.5 c 128,-1,31
 621.5 481 621.5 481 677.5 513.5 c 128,-1,32
 733.5 546 733.5 546 810.5 546 c 0,33,34
 883.5 546 883.5 546 939 513.5 c 128,-1,35
 994.5 481 994.5 481 1026 419.5 c 128,-1,36
 1057.5 358 1057.5 358 1057.5 269 c 0,19,20
652.5 269 m 0,37,38
 652.5 206 652.5 206 669 159.5 c 128,-1,39
 685.5 113 685.5 113 720.5 88 c 128,-1,40
 755.5 63 755.5 63 809.5 63 c 256,41,42
 863.5 63 863.5 63 898.5 88 c 128,-1,43
 933.5 113 933.5 113 950 159.5 c 128,-1,44
 966.5 206 966.5 206 966.5 269 c 0,45,46
 966.5 333 966.5 333 949.5 378 c 128,-1,47
 932.5 423 932.5 423 898 447.5 c 128,-1,48
 863.5 472 863.5 472 808.5 472 c 0,49,50
 726.5 472 726.5 472 689.5 418 c 128,-1,51
 652.5 364 652.5 364 652.5 269 c 0,37,38
EndSplineSet
EndChar

StartChar: P
Encoding: 80 80 56
Width: 1619
Flags: W
AnchorPoint: "Anchor-2" 809.5 -78 basechar 0
AnchorPoint: "Anchor-1" 809.5 -29 basechar 0
AnchorPoint: "Anchor-0" 809.5 -29 basechar 0
LayerCount: 2
Fore
SplineSet
753.5 564 m 5,0,1
 740.5 587 740.5 587 718.5 613.5 c 132,-1,2
 696.5 640 696.5 640 672.5 666 c 132,-1,3
 648.5 692 648.5 692 630.5 711 c 5,4,-1
 630.5 724 l 5,5,-1
 690.5 724 l 5,6,7
 716.5 707 716.5 707 744.5 683 c 132,-1,8
 772.5 659 772.5 659 797.5 632 c 5,9,10
 824.5 659 824.5 659 852.5 683 c 132,-1,11
 880.5 707 880.5 707 906.5 724 c 5,12,-1
 968.5 724 l 5,13,-1
 968.5 711 l 5,14,15
 949.5 692 949.5 692 925 666 c 132,-1,16
 900.5 640 900.5 640 878 613.5 c 132,-1,17
 855.5 587 855.5 587 843.5 564 c 5,18,-1
 753.5 564 l 5,0,1
508.5 0 m 1,19,-1
 508.5 554 l 1,20,-1
 594.5 554 l 1,21,-1
 594.5 72 l 1,22,-1
 1024.5 72 l 1,23,-1
 1024.5 554 l 1,24,-1
 1110.5 554 l 1,25,-1
 1110.5 0 l 1,26,-1
 508.5 0 l 1,19,-1
EndSplineSet
EndChar

StartChar: Q
Encoding: 81 81 57
Width: 1619
Flags: W
LayerCount: 2
Fore
SplineSet
604 85 m 0,0,1
 604 103 604 103 619.5 118 c 128,-1,2
 635 133 635 133 663 144.5 c 128,-1,3
 691 156 691 156 728.5 162.5 c 128,-1,4
 766 169 766 169 809 169 c 0,5,6
 853 169 853 169 890.5 162.5 c 128,-1,7
 928 156 928 156 955.5 144.5 c 128,-1,8
 983 133 983 133 999 118 c 128,-1,9
 1015 103 1015 103 1015 85 c 0,10,11
 1015 68 1015 68 999 53 c 128,-1,12
 983 38 983 38 955.5 27 c 128,-1,13
 928 16 928 16 890.5 9.5 c 128,-1,14
 853 3 853 3 809 3 c 0,15,16
 766 3 766 3 728.5 9.5 c 128,-1,17
 691 16 691 16 663 27 c 128,-1,18
 635 38 635 38 619.5 53 c 128,-1,19
 604 68 604 68 604 85 c 0,0,1
684 85 m 256,20,21
 684 74 684 74 693.5 64.5 c 128,-1,22
 703 55 703 55 720 48.5 c 128,-1,23
 737 42 737 42 760 38 c 128,-1,24
 783 34 783 34 809 34 c 0,25,26
 836 34 836 34 858.5 38 c 128,-1,27
 881 42 881 42 898 48.5 c 128,-1,28
 915 55 915 55 924.5 64.5 c 128,-1,29
 934 74 934 74 934 85 c 256,30,31
 934 96 934 96 924.5 105.5 c 128,-1,32
 915 115 915 115 898 122 c 128,-1,33
 881 129 881 129 858.5 133 c 128,-1,34
 836 137 836 137 809 137 c 0,35,36
 783 137 783 137 760 133 c 128,-1,37
 737 129 737 129 720 122 c 128,-1,38
 703 115 703 115 693.5 105.5 c 128,-1,39
 684 96 684 96 684 85 c 256,20,21
604 272 m 0,40,41
 604 290 604 290 619.5 305 c 128,-1,42
 635 320 635 320 663 331.5 c 128,-1,43
 691 343 691 343 728.5 349 c 128,-1,44
 766 355 766 355 809 355 c 0,45,46
 853 355 853 355 890.5 349 c 128,-1,47
 928 343 928 343 955.5 331.5 c 128,-1,48
 983 320 983 320 999 305 c 128,-1,49
 1015 290 1015 290 1015 272 c 0,50,51
 1015 255 1015 255 999 240 c 128,-1,52
 983 225 983 225 955.5 214 c 128,-1,53
 928 203 928 203 890.5 196 c 128,-1,54
 853 189 853 189 809 189 c 0,55,56
 766 189 766 189 728.5 196 c 128,-1,57
 691 203 691 203 663 214 c 128,-1,58
 635 225 635 225 619.5 240 c 128,-1,59
 604 255 604 255 604 272 c 0,40,41
684 272 m 256,60,61
 684 261 684 261 693.5 251.5 c 128,-1,62
 703 242 703 242 720 235 c 128,-1,63
 737 228 737 228 760 224 c 128,-1,64
 783 220 783 220 809 220 c 0,65,66
 836 220 836 220 858.5 224 c 128,-1,67
 881 228 881 228 898 235 c 128,-1,68
 915 242 915 242 924.5 251.5 c 128,-1,69
 934 261 934 261 934 272 c 256,70,71
 934 283 934 283 924.5 292.5 c 128,-1,72
 915 302 915 302 898 309 c 128,-1,73
 881 316 881 316 858.5 320 c 128,-1,74
 836 324 836 324 809 324 c 0,75,76
 783 324 783 324 760 320 c 128,-1,77
 737 316 737 316 720 309 c 128,-1,78
 703 302 703 302 693.5 292.5 c 128,-1,79
 684 283 684 283 684 272 c 256,60,61
604 461 m 256,80,81
 604 478 604 478 619.5 493.5 c 128,-1,82
 635 509 635 509 663 520 c 128,-1,83
 691 531 691 531 728.5 537.5 c 128,-1,84
 766 544 766 544 809 544 c 0,85,86
 853 544 853 544 890.5 537.5 c 128,-1,87
 928 531 928 531 955.5 520 c 128,-1,88
 983 509 983 509 999 493.5 c 128,-1,89
 1015 478 1015 478 1015 461 c 256,90,91
 1015 444 1015 444 999 429 c 128,-1,92
 983 414 983 414 955.5 402.5 c 128,-1,93
 928 391 928 391 890.5 384.5 c 128,-1,94
 853 378 853 378 809 378 c 0,95,96
 766 378 766 378 728.5 384.5 c 128,-1,97
 691 391 691 391 663 402.5 c 128,-1,98
 635 414 635 414 619.5 429 c 128,-1,99
 604 444 604 444 604 461 c 256,80,81
604 648 m 256,100,101
 604 665 604 665 619.5 680.5 c 128,-1,102
 635 696 635 696 663 707 c 128,-1,103
 691 718 691 718 728.5 724.5 c 128,-1,104
 766 731 766 731 809 731 c 0,105,106
 853 731 853 731 890.5 724.5 c 128,-1,107
 928 718 928 718 955.5 707 c 128,-1,108
 983 696 983 696 999 680.5 c 128,-1,109
 1015 665 1015 665 1015 648 c 256,110,111
 1015 631 1015 631 999 616 c 128,-1,112
 983 601 983 601 955.5 589.5 c 128,-1,113
 928 578 928 578 890.5 571.5 c 128,-1,114
 853 565 853 565 809 565 c 0,115,116
 766 565 766 565 728.5 571.5 c 128,-1,117
 691 578 691 578 663 589.5 c 128,-1,118
 635 601 635 601 619.5 616 c 128,-1,119
 604 631 604 631 604 648 c 256,100,101
EndSplineSet
EndChar

StartChar: R
Encoding: 82 82 58
Width: 1619
Flags: W
AnchorPoint: "Anchor-2" 789.5 -225 basechar 0
AnchorPoint: "Anchor-1" 789.5 -29 basechar 0
AnchorPoint: "Anchor-0" 789.5 -29 basechar 0
LayerCount: 2
Fore
SplineSet
708.5 606 m 5,0,1
 695.5 629 695.5 629 673.5 655.5 c 132,-1,2
 651.5 682 651.5 682 627.5 708 c 132,-1,3
 603.5 734 603.5 734 585.5 753 c 5,4,-1
 585.5 766 l 5,5,-1
 645.5 766 l 5,6,7
 671.5 749 671.5 749 699.5 725 c 132,-1,8
 727.5 701 727.5 701 752.5 674 c 5,9,10
 779.5 701 779.5 701 807.5 725 c 132,-1,11
 835.5 749 835.5 749 861.5 766 c 5,12,-1
 923.5 766 l 5,13,-1
 923.5 753 l 5,14,15
 904.5 734 904.5 734 880 708 c 132,-1,16
 855.5 682 855.5 682 833 655.5 c 132,-1,17
 810.5 629 810.5 629 798.5 606 c 5,18,-1
 708.5 606 l 5,0,1
700.5 -212 m 1,19,-1
 643.5 -159 l 1,20,-1
 836.5 24 l 1,21,-1
 836.5 482 l 1,22,-1
 643.5 482 l 1,23,-1
 643.5 0 l 1,24,-1
 557.5 0 l 1,25,-1
 557.5 554 l 1,26,-1
 1061.5 554 l 1,27,-1
 1061.5 482 l 1,28,-1
 922.5 482 l 1,29,-1
 922.5 0 l 1,30,-1
 700.5 -212 l 1,19,-1
EndSplineSet
EndChar

StartChar: S
Encoding: 83 83 59
Width: 1619
Flags: W
AnchorPoint: "Anchor-2" 812 -78 basechar 0
AnchorPoint: "Anchor-1" 812 -29 basechar 0
AnchorPoint: "Anchor-0" 812 -29 basechar 0
LayerCount: 2
Fore
SplineSet
687 606 m 5,0,1
 674 629 674 629 652 655.5 c 132,-1,2
 630 682 630 682 606 708 c 132,-1,3
 582 734 582 734 564 753 c 5,4,-1
 564 766 l 5,5,-1
 624 766 l 5,6,7
 650 749 650 749 678 725 c 132,-1,8
 706 701 706 701 731 674 c 5,9,10
 758 701 758 701 786 725 c 132,-1,11
 814 749 814 749 840 766 c 5,12,-1
 902 766 l 5,13,-1
 902 753 l 5,14,15
 883 734 883 734 858.5 708 c 132,-1,16
 834 682 834 682 811.5 655.5 c 132,-1,17
 789 629 789 629 777 606 c 5,18,-1
 687 606 l 5,0,1
419 -12 m 0,19,20
 366 -12 366 -12 322 14 c 128,-1,21
 278 40 278 40 252.5 96.5 c 128,-1,22
 227 153 227 153 227 242 c 0,23,24
 227 323 227 323 251 384 c 128,-1,25
 275 445 275 445 317 485.5 c 128,-1,26
 359 526 359 526 413.5 546 c 128,-1,27
 468 566 468 566 529 566 c 0,28,29
 581 566 581 566 622.5 551.5 c 128,-1,30
 664 537 664 537 697.5 507 c 128,-1,31
 731 477 731 477 757 430 c 1,32,-1
 728 433 l 1,33,34
 737 468 737 468 758 498.5 c 128,-1,35
 779 529 779 529 811.5 547.5 c 128,-1,36
 844 566 844 566 889 566 c 0,37,38
 926 566 926 566 955.5 555 c 128,-1,39
 985 544 985 544 1007 521 c 0,40,41
 1033 494 1033 494 1046 452.5 c 128,-1,42
 1059 411 1059 411 1059 343 c 2,43,-1
 1059 255 l 2,44,45
 1059 200 1059 200 1067 160.5 c 128,-1,46
 1075 121 1075 121 1100 95 c 0,47,48
 1115 79 1115 79 1136 70.5 c 128,-1,49
 1157 62 1157 62 1185 62 c 0,50,51
 1219 62 1219 62 1246 78 c 128,-1,52
 1273 94 1273 94 1289 132 c 128,-1,53
 1305 170 1305 170 1305 237 c 0,54,55
 1305 303 1305 303 1288.5 359 c 128,-1,56
 1272 415 1272 415 1244 461.5 c 128,-1,57
 1216 508 1216 508 1179 547 c 1,58,-1
 1257 600 l 1,59,60
 1319 521 1319 521 1355.5 434 c 128,-1,61
 1392 347 1392 347 1392 244 c 0,62,63
 1392 159 1392 159 1367.5 102 c 128,-1,64
 1343 45 1343 45 1296 16.5 c 128,-1,65
 1249 -12 1249 -12 1179 -12 c 0,66,67
 1136 -12 1136 -12 1100.5 0.5 c 128,-1,68
 1065 13 1065 13 1039 38 c 0,69,70
 1018 58 1018 58 1003 88.5 c 128,-1,71
 988 119 988 119 980 159.5 c 128,-1,72
 972 200 972 200 972 250 c 2,73,-1
 972 288 l 2,74,75
 972 353 972 353 967.5 390 c 128,-1,76
 963 427 963 427 953 449 c 0,77,78
 943 473 943 473 925 483.5 c 128,-1,79
 907 494 907 494 884 494 c 0,80,81
 863 494 863 494 847.5 485 c 128,-1,82
 832 476 832 476 822 463 c 0,83,84
 807 444 807 444 800 417.5 c 128,-1,85
 793 391 793 391 793 351 c 2,86,-1
 793 0 l 1,87,-1
 707 0 l 1,88,-1
 707 293 l 2,89,90
 707 356 707 356 690 393.5 c 128,-1,91
 673 431 673 431 647 453 c 0,92,93
 619 476 619 476 590.5 484 c 128,-1,94
 562 492 562 492 525 492 c 0,95,96
 456 492 456 492 407 458.5 c 128,-1,97
 358 425 358 425 332 366.5 c 128,-1,98
 306 308 306 308 306 232 c 0,99,100
 306 168 306 168 321.5 129 c 128,-1,101
 337 90 337 90 363.5 73 c 128,-1,102
 390 56 390 56 423 56 c 0,103,104
 449 56 449 56 468.5 67.5 c 128,-1,105
 488 79 488 79 499 101 c 128,-1,106
 510 123 510 123 510 155 c 0,107,108
 510 205 510 205 484 231.5 c 128,-1,109
 458 258 458 258 417 258 c 0,110,111
 377 258 377 258 342 237 c 128,-1,112
 307 216 307 216 278 184 c 1,113,-1
 263 248 l 1,114,115
 293 283 293 283 337.5 305.5 c 128,-1,116
 382 328 382 328 431 328 c 0,117,118
 503 328 503 328 547.5 284 c 128,-1,119
 592 240 592 240 592 165 c 0,120,121
 592 110 592 110 571 70 c 128,-1,122
 550 30 550 30 511.5 9 c 128,-1,123
 473 -12 473 -12 419 -12 c 0,19,20
EndSplineSet
EndChar

StartChar: T
Encoding: 84 84 60
Width: 1619
Flags: W
AnchorPoint: "Anchor-2" 808.5 -200 basechar 0
AnchorPoint: "Anchor-1" 808.5 -29 basechar 0
AnchorPoint: "Anchor-0" 808.5 -29 basechar 0
LayerCount: 2
Fore
SplineSet
657.5 -12 m 0,0,1
 597.5 -12 597.5 -12 549.5 7 c 128,-1,2
 501.5 26 501.5 26 473.5 63 c 128,-1,3
 445.5 100 445.5 100 445.5 152 c 0,4,5
 445.5 206 445.5 206 474 245.5 c 128,-1,6
 502.5 285 502.5 285 564.5 306.5 c 128,-1,7
 626.5 328 626.5 328 728.5 328 c 2,8,-1
 873.5 328 l 2,9,10
 960.5 328 960.5 328 1028.5 306.5 c 128,-1,11
 1096.5 285 1096.5 285 1135 235 c 128,-1,12
 1173.5 185 1173.5 185 1173.5 98 c 0,13,14
 1173.5 31 1173.5 31 1148.5 -14.5 c 0,15,16
 1121.5 -63 1121.5 -63 1077.5 -94 c 0,17,18
 1044.5 -117 1044.5 -117 1003 -131 c 128,-1,19
 961.5 -145 961.5 -145 907.5 -150.5 c 128,-1,20
 853.5 -156 853.5 -156 781.5 -156 c 2,21,-1
 745.5 -156 l 6,22,23
 703.5 -156 703.5 -156 680.5 -162 c 132,-1,24
 657.5 -168 657.5 -168 640.5 -179 c 4,25,26
 624.5 -190 624.5 -190 615.5 -210 c 132,-1,27
 606.5 -230 606.5 -230 606.5 -263 c 4,28,29
 606.5 -278 606.5 -278 607.5 -291.5 c 132,-1,30
 608.5 -305 608.5 -305 609.5 -317 c 5,31,-1
 527.5 -321 l 5,32,33
 524.5 -303 524.5 -303 522.5 -281.5 c 132,-1,34
 520.5 -260 520.5 -260 520.5 -243 c 4,35,36
 520.5 -199 520.5 -199 536.5 -168.5 c 132,-1,37
 552.5 -138 552.5 -138 577.5 -119 c 4,38,39
 595.5 -106 595.5 -106 615 -98.5 c 132,-1,40
 634.5 -91 634.5 -91 660 -87.5 c 132,-1,41
 685.5 -84 685.5 -84 718.5 -84 c 6,42,-1
 750.5 -84 l 2,43,44
 839.5 -84 839.5 -84 896.5 -76.5 c 128,-1,45
 953.5 -69 953.5 -69 988.5 -53.5 c 128,-1,46
 1023.5 -38 1023.5 -38 1046.5 -13 c 0,47,48
 1066.5 9 1066.5 9 1077 38.5 c 128,-1,49
 1087.5 68 1087.5 68 1087.5 105 c 0,50,51
 1087.5 154 1087.5 154 1068 184 c 128,-1,52
 1048.5 214 1048.5 214 1016 230 c 128,-1,53
 983.5 246 983.5 246 944 252 c 128,-1,54
 904.5 258 904.5 258 863.5 258 c 2,55,-1
 721.5 258 l 2,56,57
 670.5 258 670.5 258 635 252 c 128,-1,58
 599.5 246 599.5 246 574.5 232 c 0,59,60
 552.5 219 552.5 219 542 200.5 c 128,-1,61
 531.5 182 531.5 182 531.5 153 c 0,62,63
 531.5 107 531.5 107 569.5 83.5 c 128,-1,64
 607.5 60 607.5 60 665.5 60 c 0,65,66
 709.5 60 709.5 60 741 73.5 c 128,-1,67
 772.5 87 772.5 87 790 120.5 c 128,-1,68
 807.5 154 807.5 154 807.5 213 c 2,69,-1
 807.5 482 l 1,70,-1
 635.5 482 l 1,71,-1
 635.5 302 l 1,72,-1
 556.5 286 l 1,73,-1
 556.5 554 l 1,74,-1
 1079.5 554 l 1,75,-1
 1079.5 482 l 1,76,-1
 892.5 482 l 1,77,-1
 892.5 226 l 2,78,79
 892.5 159 892.5 159 881 121 c 128,-1,80
 869.5 83 869.5 83 848.5 57 c 0,81,82
 817.5 19 817.5 19 769 3.5 c 128,-1,83
 720.5 -12 720.5 -12 657.5 -12 c 0,0,1
EndSplineSet
EndChar

StartChar: U
Encoding: 85 85 61
Width: 1619
Flags: W
LayerCount: 2
Fore
SplineSet
1084.5 252 m 2,0,1
 1084.5 178 1084.5 178 1054.5 118.5 c 128,-1,2
 1024.5 59 1024.5 59 963 24.5 c 128,-1,3
 901.5 -10 901.5 -10 806.5 -10 c 0,4,5
 673.5 -10 673.5 -10 604 62.5 c 128,-1,6
 534.5 135 534.5 135 534.5 254 c 2,7,-1
 534.5 714 l 1,8,-1
 624.5 714 l 1,9,-1
 624.5 251 l 2,10,11
 624.5 164 624.5 164 671 116 c 128,-1,12
 717.5 68 717.5 68 811.5 68 c 0,13,14
 876.5 68 876.5 68 917 91.5 c 128,-1,15
 957.5 115 957.5 115 976.5 156.5 c 128,-1,16
 995.5 198 995.5 198 995.5 252 c 2,17,-1
 995.5 714 l 1,18,-1
 1084.5 714 l 1,19,-1
 1084.5 252 l 2,0,1
EndSplineSet
EndChar

StartChar: V
Encoding: 86 86 62
Width: 1619
Flags: W
AnchorPoint: "Anchor-2" 825 -78 basechar 0
AnchorPoint: "Anchor-1" 825 -29 basechar 0
AnchorPoint: "Anchor-0" 825 -29 basechar 0
LayerCount: 2
Fore
SplineSet
983 571 m 5,0,1
 970 594 970 594 948 620.5 c 132,-1,2
 926 647 926 647 902 673 c 132,-1,3
 878 699 878 699 860 718 c 5,4,-1
 860 731 l 5,5,-1
 920 731 l 5,6,7
 946 714 946 714 974 690 c 132,-1,8
 1002 666 1002 666 1027 639 c 5,9,10
 1054 666 1054 666 1082 690 c 132,-1,11
 1110 714 1110 714 1136 731 c 5,12,-1
 1198 731 l 5,13,-1
 1198 718 l 5,14,15
 1179 699 1179 699 1154.5 673 c 132,-1,16
 1130 647 1130 647 1107.5 620.5 c 132,-1,17
 1085 594 1085 594 1073 571 c 5,18,-1
 983 571 l 5,0,1
552 -12 m 0,19,20
 499 -12 499 -12 455 14.5 c 128,-1,21
 411 41 411 41 385.5 97 c 128,-1,22
 360 153 360 153 360 243 c 0,23,24
 360 350 360 350 402.5 422 c 128,-1,25
 445 494 445 494 515 530 c 128,-1,26
 585 566 585 566 667 566 c 0,27,28
 743 566 743 566 797.5 543.5 c 128,-1,29
 852 521 852 521 886.5 481.5 c 128,-1,30
 921 442 921 442 937.5 390.5 c 128,-1,31
 954 339 954 339 954 280 c 0,32,33
 954 216 954 216 940 166 c 128,-1,34
 926 116 926 116 906 72 c 1,35,-1
 1173 72 l 1,36,-1
 1173 554 l 1,37,-1
 1259 554 l 1,38,-1
 1259 0 l 1,39,-1
 818 0 l 1,40,-1
 814 63 l 1,41,42
 837 98 837 98 851.5 149.5 c 128,-1,43
 866 201 866 201 866 269 c 0,44,45
 866 340 866 340 841 390 c 128,-1,46
 816 440 816 440 770.5 466 c 128,-1,47
 725 492 725 492 663 492 c 0,48,49
 593 492 593 492 543 458.5 c 128,-1,50
 493 425 493 425 466 367.5 c 128,-1,51
 439 310 439 310 439 237 c 0,52,53
 439 170 439 170 454.5 130.5 c 128,-1,54
 470 91 470 91 496.5 73.5 c 128,-1,55
 523 56 523 56 556 56 c 0,56,57
 582 56 582 56 601.5 67.5 c 128,-1,58
 621 79 621 79 632 101 c 128,-1,59
 643 123 643 123 643 155 c 0,60,61
 643 205 643 205 617 231.5 c 128,-1,62
 591 258 591 258 550 258 c 0,63,64
 510 258 510 258 475 237 c 128,-1,65
 440 216 440 216 411 184 c 1,66,-1
 396 248 l 1,67,68
 426 283 426 283 470.5 305.5 c 128,-1,69
 515 328 515 328 564 328 c 0,70,71
 636 328 636 328 680.5 284 c 128,-1,72
 725 240 725 240 725 165 c 0,73,74
 725 110 725 110 704 70 c 128,-1,75
 683 30 683 30 644.5 9 c 128,-1,76
 606 -12 606 -12 552 -12 c 0,19,20
EndSplineSet
EndChar

StartChar: W
Encoding: 87 87 63
Width: 1619
Flags: W
LayerCount: 2
Fore
SplineSet
604 85 m 0,0,1
 604 103 604 103 619.5 118 c 128,-1,2
 635 133 635 133 663 144.5 c 128,-1,3
 691 156 691 156 728.5 162.5 c 128,-1,4
 766 169 766 169 809 169 c 0,5,6
 853 169 853 169 890.5 162.5 c 128,-1,7
 928 156 928 156 955.5 144.5 c 128,-1,8
 983 133 983 133 999 118 c 128,-1,9
 1015 103 1015 103 1015 85 c 0,10,11
 1015 68 1015 68 999 53 c 128,-1,12
 983 38 983 38 955.5 27 c 128,-1,13
 928 16 928 16 890.5 9.5 c 128,-1,14
 853 3 853 3 809 3 c 0,15,16
 766 3 766 3 728.5 9.5 c 128,-1,17
 691 16 691 16 663 27 c 128,-1,18
 635 38 635 38 619.5 53 c 128,-1,19
 604 68 604 68 604 85 c 0,0,1
604 272 m 0,20,21
 604 290 604 290 619.5 305 c 128,-1,22
 635 320 635 320 663 331.5 c 128,-1,23
 691 343 691 343 728.5 349 c 128,-1,24
 766 355 766 355 809 355 c 0,25,26
 853 355 853 355 890.5 349 c 128,-1,27
 928 343 928 343 955.5 331.5 c 128,-1,28
 983 320 983 320 999 305 c 128,-1,29
 1015 290 1015 290 1015 272 c 0,30,31
 1015 255 1015 255 999 240 c 128,-1,32
 983 225 983 225 955.5 214 c 128,-1,33
 928 203 928 203 890.5 196 c 128,-1,34
 853 189 853 189 809 189 c 0,35,36
 766 189 766 189 728.5 196 c 128,-1,37
 691 203 691 203 663 214 c 128,-1,38
 635 225 635 225 619.5 240 c 128,-1,39
 604 255 604 255 604 272 c 0,20,21
684 272 m 256,40,41
 684 261 684 261 693.5 251.5 c 128,-1,42
 703 242 703 242 720 235 c 128,-1,43
 737 228 737 228 760 224 c 128,-1,44
 783 220 783 220 809 220 c 0,45,46
 836 220 836 220 858.5 224 c 128,-1,47
 881 228 881 228 898 235 c 128,-1,48
 915 242 915 242 924.5 251.5 c 128,-1,49
 934 261 934 261 934 272 c 256,50,51
 934 283 934 283 924.5 292.5 c 128,-1,52
 915 302 915 302 898 309 c 128,-1,53
 881 316 881 316 858.5 320 c 128,-1,54
 836 324 836 324 809 324 c 0,55,56
 783 324 783 324 760 320 c 128,-1,57
 737 316 737 316 720 309 c 128,-1,58
 703 302 703 302 693.5 292.5 c 128,-1,59
 684 283 684 283 684 272 c 256,40,41
604 461 m 256,60,61
 604 478 604 478 619.5 493.5 c 128,-1,62
 635 509 635 509 663 520 c 128,-1,63
 691 531 691 531 728.5 537.5 c 128,-1,64
 766 544 766 544 809 544 c 0,65,66
 853 544 853 544 890.5 537.5 c 128,-1,67
 928 531 928 531 955.5 520 c 128,-1,68
 983 509 983 509 999 493.5 c 128,-1,69
 1015 478 1015 478 1015 461 c 256,70,71
 1015 444 1015 444 999 429 c 128,-1,72
 983 414 983 414 955.5 402.5 c 128,-1,73
 928 391 928 391 890.5 384.5 c 128,-1,74
 853 378 853 378 809 378 c 0,75,76
 766 378 766 378 728.5 384.5 c 128,-1,77
 691 391 691 391 663 402.5 c 128,-1,78
 635 414 635 414 619.5 429 c 128,-1,79
 604 444 604 444 604 461 c 256,60,61
604 648 m 256,80,81
 604 665 604 665 619.5 680.5 c 128,-1,82
 635 696 635 696 663 707 c 128,-1,83
 691 718 691 718 728.5 724.5 c 128,-1,84
 766 731 766 731 809 731 c 0,85,86
 853 731 853 731 890.5 724.5 c 128,-1,87
 928 718 928 718 955.5 707 c 128,-1,88
 983 696 983 696 999 680.5 c 128,-1,89
 1015 665 1015 665 1015 648 c 256,90,91
 1015 631 1015 631 999 616 c 128,-1,92
 983 601 983 601 955.5 589.5 c 128,-1,93
 928 578 928 578 890.5 571.5 c 128,-1,94
 853 565 853 565 809 565 c 0,95,96
 766 565 766 565 728.5 571.5 c 128,-1,97
 691 578 691 578 663 589.5 c 128,-1,98
 635 601 635 601 619.5 616 c 128,-1,99
 604 631 604 631 604 648 c 256,80,81
EndSplineSet
EndChar

StartChar: X
Encoding: 88 88 64
Width: 1619
Flags: W
LayerCount: 2
Fore
SplineSet
604 85 m 0,0,1
 604 103 604 103 619.5 118 c 128,-1,2
 635 133 635 133 663 144.5 c 128,-1,3
 691 156 691 156 728.5 162.5 c 128,-1,4
 766 169 766 169 809 169 c 0,5,6
 853 169 853 169 890.5 162.5 c 128,-1,7
 928 156 928 156 955.5 144.5 c 128,-1,8
 983 133 983 133 999 118 c 128,-1,9
 1015 103 1015 103 1015 85 c 0,10,11
 1015 68 1015 68 999 53 c 128,-1,12
 983 38 983 38 955.5 27 c 128,-1,13
 928 16 928 16 890.5 9.5 c 128,-1,14
 853 3 853 3 809 3 c 0,15,16
 766 3 766 3 728.5 9.5 c 128,-1,17
 691 16 691 16 663 27 c 128,-1,18
 635 38 635 38 619.5 53 c 128,-1,19
 604 68 604 68 604 85 c 0,0,1
684 85 m 256,20,21
 684 74 684 74 693.5 64.5 c 128,-1,22
 703 55 703 55 720 48.5 c 128,-1,23
 737 42 737 42 760 38 c 128,-1,24
 783 34 783 34 809 34 c 0,25,26
 836 34 836 34 858.5 38 c 128,-1,27
 881 42 881 42 898 48.5 c 128,-1,28
 915 55 915 55 924.5 64.5 c 128,-1,29
 934 74 934 74 934 85 c 256,30,31
 934 96 934 96 924.5 105.5 c 128,-1,32
 915 115 915 115 898 122 c 128,-1,33
 881 129 881 129 858.5 133 c 128,-1,34
 836 137 836 137 809 137 c 0,35,36
 783 137 783 137 760 133 c 128,-1,37
 737 129 737 129 720 122 c 128,-1,38
 703 115 703 115 693.5 105.5 c 128,-1,39
 684 96 684 96 684 85 c 256,20,21
604 272 m 0,40,41
 604 290 604 290 619.5 305 c 128,-1,42
 635 320 635 320 663 331.5 c 128,-1,43
 691 343 691 343 728.5 349 c 128,-1,44
 766 355 766 355 809 355 c 0,45,46
 853 355 853 355 890.5 349 c 128,-1,47
 928 343 928 343 955.5 331.5 c 128,-1,48
 983 320 983 320 999 305 c 128,-1,49
 1015 290 1015 290 1015 272 c 0,50,51
 1015 255 1015 255 999 240 c 128,-1,52
 983 225 983 225 955.5 214 c 128,-1,53
 928 203 928 203 890.5 196 c 128,-1,54
 853 189 853 189 809 189 c 0,55,56
 766 189 766 189 728.5 196 c 128,-1,57
 691 203 691 203 663 214 c 128,-1,58
 635 225 635 225 619.5 240 c 128,-1,59
 604 255 604 255 604 272 c 0,40,41
604 461 m 256,60,61
 604 478 604 478 619.5 493.5 c 128,-1,62
 635 509 635 509 663 520 c 128,-1,63
 691 531 691 531 728.5 537.5 c 128,-1,64
 766 544 766 544 809 544 c 0,65,66
 853 544 853 544 890.5 537.5 c 128,-1,67
 928 531 928 531 955.5 520 c 128,-1,68
 983 509 983 509 999 493.5 c 128,-1,69
 1015 478 1015 478 1015 461 c 256,70,71
 1015 444 1015 444 999 429 c 128,-1,72
 983 414 983 414 955.5 402.5 c 128,-1,73
 928 391 928 391 890.5 384.5 c 128,-1,74
 853 378 853 378 809 378 c 0,75,76
 766 378 766 378 728.5 384.5 c 128,-1,77
 691 391 691 391 663 402.5 c 128,-1,78
 635 414 635 414 619.5 429 c 128,-1,79
 604 444 604 444 604 461 c 256,60,61
604 648 m 256,80,81
 604 665 604 665 619.5 680.5 c 128,-1,82
 635 696 635 696 663 707 c 128,-1,83
 691 718 691 718 728.5 724.5 c 128,-1,84
 766 731 766 731 809 731 c 0,85,86
 853 731 853 731 890.5 724.5 c 128,-1,87
 928 718 928 718 955.5 707 c 128,-1,88
 983 696 983 696 999 680.5 c 128,-1,89
 1015 665 1015 665 1015 648 c 256,90,91
 1015 631 1015 631 999 616 c 128,-1,92
 983 601 983 601 955.5 589.5 c 128,-1,93
 928 578 928 578 890.5 571.5 c 128,-1,94
 853 565 853 565 809 565 c 0,95,96
 766 565 766 565 728.5 571.5 c 128,-1,97
 691 578 691 578 663 589.5 c 128,-1,98
 635 601 635 601 619.5 616 c 128,-1,99
 604 631 604 631 604 648 c 256,80,81
EndSplineSet
EndChar

StartChar: Y
Encoding: 89 89 65
Width: 1619
Flags: W
AnchorPoint: "Anchor-2" 809 -78 basechar 0
AnchorPoint: "Anchor-1" 809 -29 basechar 0
AnchorPoint: "Anchor-0" 809 -29 basechar 0
LayerCount: 2
Fore
SplineSet
889 606 m 5,0,1
 876 629 876 629 854 655.5 c 132,-1,2
 832 682 832 682 808 708 c 132,-1,3
 784 734 784 734 766 753 c 5,4,-1
 766 766 l 5,5,-1
 826 766 l 5,6,7
 852 749 852 749 880 725 c 132,-1,8
 908 701 908 701 933 674 c 5,9,10
 960 701 960 701 988 725 c 132,-1,11
 1016 749 1016 749 1042 766 c 5,12,-1
 1104 766 l 5,13,-1
 1104 753 l 5,14,15
 1085 734 1085 734 1060.5 708 c 132,-1,16
 1036 682 1036 682 1013.5 655.5 c 132,-1,17
 991 629 991 629 979 606 c 5,18,-1
 889 606 l 5,0,1
682 0 m 1,19,-1
 682 554 l 1,20,-1
 768 554 l 1,21,-1
 768 72 l 1,22,-1
 1117 72 l 1,23,-1
 1117 554 l 1,24,-1
 1203 554 l 1,25,-1
 1203 0 l 1,26,-1
 682 0 l 1,19,-1
568 -11 m 0,27,28
 531 -11 531 -11 503.5 1.5 c 128,-1,29
 476 14 476 14 457 36 c 0,30,31
 446 51 446 51 436.5 70 c 128,-1,32
 427 89 427 89 421.5 120 c 128,-1,33
 416 151 416 151 416 202 c 2,34,-1
 416 554 l 1,35,-1
 502 554 l 1,36,-1
 502 223 l 2,37,38
 502 177 502 177 506 139.5 c 128,-1,39
 510 102 510 102 530 82 c 0,40,41
 540 72 540 72 553.5 66.5 c 128,-1,42
 567 61 567 61 586 61 c 0,43,44
 615 61 615 61 640.5 76 c 128,-1,45
 666 91 666 91 688 125 c 1,46,-1
 686 39 l 1,47,48
 667 20 667 20 638 4.5 c 128,-1,49
 609 -11 609 -11 568 -11 c 0,27,28
EndSplineSet
EndChar

StartChar: Z
Encoding: 90 90 66
Width: 1619
Flags: W
AnchorPoint: "Anchor-2" 809.5 -308 basechar 0
AnchorPoint: "Anchor-1" 809.5 -29 basechar 0
AnchorPoint: "Anchor-0" 809.5 -29 basechar 0
LayerCount: 2
Fore
SplineSet
794.5 606 m 5,0,1
 781.5 629 781.5 629 759.5 655.5 c 132,-1,2
 737.5 682 737.5 682 713.5 708 c 132,-1,3
 689.5 734 689.5 734 671.5 753 c 5,4,-1
 671.5 766 l 5,5,-1
 731.5 766 l 5,6,7
 757.5 749 757.5 749 785.5 725 c 132,-1,8
 813.5 701 813.5 701 838.5 674 c 5,9,10
 865.5 701 865.5 701 893.5 725 c 132,-1,11
 921.5 749 921.5 749 947.5 766 c 5,12,-1
 1009.5 766 l 5,13,-1
 1009.5 753 l 5,14,15
 990.5 734 990.5 734 966 708 c 132,-1,16
 941.5 682 941.5 682 919 655.5 c 132,-1,17
 896.5 629 896.5 629 884.5 606 c 5,18,-1
 794.5 606 l 5,0,1
629.5 566 m 0,19,20
 702.5 566 702.5 566 748 547 c 128,-1,21
 793.5 528 793.5 528 819 499 c 128,-1,22
 844.5 470 844.5 470 857.5 439 c 1,23,-1
 839.5 430 l 1,24,25
 854.5 473 854.5 473 880 503.5 c 128,-1,26
 905.5 534 905.5 534 942.5 550 c 128,-1,27
 979.5 566 979.5 566 1027.5 566 c 0,28,29
 1102.5 566 1102.5 566 1153.5 536.5 c 128,-1,30
 1204.5 507 1204.5 507 1231 455 c 128,-1,31
 1257.5 403 1257.5 403 1257.5 335 c 0,32,33
 1257.5 268 1257.5 268 1237.5 221 c 128,-1,34
 1217.5 174 1217.5 174 1181.5 143 c 0,35,36
 1143.5 110 1143.5 110 1090 93 c 128,-1,37
 1036.5 76 1036.5 76 973 69.5 c 128,-1,38
 909.5 63 909.5 63 840.5 63 c 2,39,-1
 746.5 63 l 2,40,41
 680.5 63 680.5 63 630 59 c 128,-1,42
 579.5 55 579.5 55 544 43 c 128,-1,43
 508.5 31 508.5 31 485.5 8 c 0,44,45
 466.5 -11 466.5 -11 458 -36 c 128,-1,46
 449.5 -61 449.5 -61 449.5 -93 c 0,47,48
 449.5 -151 449.5 -151 471.5 -185 c 128,-1,49
 493.5 -219 493.5 -219 526 -233.5 c 128,-1,50
 558.5 -248 558.5 -248 590.5 -248 c 0,51,52
 634.5 -248 634.5 -248 666.5 -235.5 c 128,-1,53
 698.5 -223 698.5 -223 724.5 -200 c 128,-1,54
 750.5 -177 750.5 -177 776.5 -148 c 0,55,56
 818.5 -101 818.5 -101 856.5 -70 c 128,-1,57
 894.5 -39 894.5 -39 940 -23 c 128,-1,58
 985.5 -7 985.5 -7 1049.5 -7 c 0,59,60
 1085.5 -7 1085.5 -7 1120 -16.5 c 128,-1,61
 1154.5 -26 1154.5 -26 1182.5 -46.5 c 128,-1,62
 1210.5 -67 1210.5 -67 1227.5 -98.5 c 128,-1,63
 1244.5 -130 1244.5 -130 1244.5 -174 c 256,64,65
 1244.5 -218 1244.5 -218 1224 -251.5 c 128,-1,66
 1203.5 -285 1203.5 -285 1167.5 -303 c 128,-1,67
 1131.5 -321 1131.5 -321 1085.5 -321 c 0,68,69
 1042.5 -321 1042.5 -321 1012 -309 c 128,-1,70
 981.5 -297 981.5 -297 962 -276.5 c 128,-1,71
 942.5 -256 942.5 -256 933 -231 c 128,-1,72
 923.5 -206 923.5 -206 923.5 -181 c 0,73,74
 923.5 -134 923.5 -134 946.5 -102 c 128,-1,75
 969.5 -70 969.5 -70 1003.5 -41 c 1,76,-1
 1070.5 -55 l 1,77,78
 1036.5 -80 1036.5 -80 1021 -108 c 128,-1,79
 1005.5 -136 1005.5 -136 1005.5 -168 c 0,80,81
 1005.5 -202 1005.5 -202 1024 -227 c 128,-1,82
 1042.5 -252 1042.5 -252 1087.5 -252 c 0,83,84
 1105.5 -252 1105.5 -252 1123 -244.5 c 128,-1,85
 1140.5 -237 1140.5 -237 1152 -220 c 128,-1,86
 1163.5 -203 1163.5 -203 1163.5 -173 c 256,87,88
 1163.5 -143 1163.5 -143 1151.5 -124.5 c 128,-1,89
 1139.5 -106 1139.5 -106 1119.5 -95.5 c 128,-1,90
 1099.5 -85 1099.5 -85 1076.5 -81 c 128,-1,91
 1053.5 -77 1053.5 -77 1031.5 -77 c 0,92,93
 1016.5 -77 1016.5 -77 1002 -78.5 c 128,-1,94
 987.5 -80 987.5 -80 973.5 -83 c 0,95,96
 950.5 -90 950.5 -90 929 -104.5 c 128,-1,97
 907.5 -119 907.5 -119 887.5 -139.5 c 128,-1,98
 867.5 -160 867.5 -160 847.5 -184 c 0,99,100
 814.5 -225 814.5 -225 778 -256 c 128,-1,101
 741.5 -287 741.5 -287 697.5 -304 c 128,-1,102
 653.5 -321 653.5 -321 595.5 -321 c 0,103,104
 513.5 -321 513.5 -321 461.5 -289.5 c 128,-1,105
 409.5 -258 409.5 -258 385.5 -206 c 128,-1,106
 361.5 -154 361.5 -154 361.5 -95 c 0,107,108
 361.5 -40 361.5 -40 380 -0.5 c 128,-1,109
 398.5 39 398.5 39 429.5 65 c 0,110,111
 464.5 94 464.5 94 511.5 109 c 128,-1,112
 558.5 124 558.5 124 614.5 129.5 c 128,-1,113
 670.5 135 670.5 135 730.5 135 c 2,114,-1
 819.5 135 l 2,115,116
 895.5 135 895.5 135 953.5 140 c 128,-1,117
 1011.5 145 1011.5 145 1053.5 158.5 c 128,-1,118
 1095.5 172 1095.5 172 1121.5 196 c 0,119,120
 1146.5 219 1146.5 219 1158 253 c 128,-1,121
 1169.5 287 1169.5 287 1169.5 334 c 0,122,123
 1169.5 387 1169.5 387 1150.5 422 c 128,-1,124
 1131.5 457 1131.5 457 1098.5 475 c 128,-1,125
 1065.5 493 1065.5 493 1024.5 493 c 0,126,127
 995.5 493 995.5 493 973 484.5 c 128,-1,128
 950.5 476 950.5 476 933.5 457 c 0,129,130
 914.5 434 914.5 434 906.5 403.5 c 128,-1,131
 898.5 373 898.5 373 898.5 319 c 2,132,-1
 898.5 205 l 1,133,-1
 811.5 205 l 1,134,-1
 811.5 293 l 2,135,136
 811.5 341 811.5 341 802 379 c 128,-1,137
 792.5 417 792.5 417 772 443 c 128,-1,138
 751.5 469 751.5 469 717.5 482.5 c 128,-1,139
 683.5 496 683.5 496 635.5 496 c 0,140,141
 604.5 496 604.5 496 587.5 493.5 c 128,-1,142
 570.5 491 570.5 491 550.5 484 c 2,143,-1
 515.5 470 l 2,144,145
 488.5 456 488.5 456 472 436.5 c 128,-1,146
 455.5 417 455.5 417 448 394.5 c 128,-1,147
 440.5 372 440.5 372 440.5 348 c 0,148,149
 440.5 305 440.5 305 462 278.5 c 128,-1,150
 483.5 252 483.5 252 532.5 252 c 0,151,152
 571.5 252 571.5 252 596 274 c 128,-1,153
 620.5 296 620.5 296 620.5 335 c 0,154,155
 620.5 370 620.5 370 602 395.5 c 128,-1,156
 583.5 421 583.5 421 551 434.5 c 128,-1,157
 518.5 448 518.5 448 476.5 448 c 1,158,-1
 540.5 494 l 1,159,160
 586.5 490 586.5 490 623 470.5 c 128,-1,161
 659.5 451 659.5 451 681 418.5 c 128,-1,162
 702.5 386 702.5 386 702.5 342 c 0,163,164
 702.5 270 702.5 270 656 227 c 128,-1,165
 609.5 184 609.5 184 533.5 184 c 0,166,167
 477.5 184 477.5 184 439 205.5 c 128,-1,168
 400.5 227 400.5 227 381 263.5 c 128,-1,169
 361.5 300 361.5 300 361.5 345 c 0,170,171
 361.5 415 361.5 415 398.5 464.5 c 128,-1,172
 435.5 514 435.5 514 497 540 c 128,-1,173
 558.5 566 558.5 566 629.5 566 c 0,19,20
EndSplineSet
EndChar

StartChar: a
Encoding: 97 97 67
Width: 1619
Flags: W
LayerCount: 2
Fore
SplineSet
834.5 545 m 0,0,1
 932.5 545 932.5 545 979.5 502 c 128,-1,2
 1026.5 459 1026.5 459 1026.5 365 c 2,3,-1
 1026.5 0 l 1,4,-1
 962.5 0 l 1,5,-1
 945.5 76 l 1,6,-1
 941.5 76 l 1,7,8
 918.5 47 918.5 47 894 27.5 c 128,-1,9
 869.5 8 869.5 8 838 -1 c 128,-1,10
 806.5 -10 806.5 -10 761.5 -10 c 0,11,12
 713.5 -10 713.5 -10 675 7 c 128,-1,13
 636.5 24 636.5 24 614.5 59.5 c 128,-1,14
 592.5 95 592.5 95 592.5 149 c 0,15,16
 592.5 229 592.5 229 655.5 272.5 c 128,-1,17
 718.5 316 718.5 316 849.5 320 c 2,18,-1
 940.5 323 l 1,19,-1
 940.5 355 l 2,20,21
 940.5 422 940.5 422 911.5 448 c 128,-1,22
 882.5 474 882.5 474 829.5 474 c 0,23,24
 787.5 474 787.5 474 749.5 461.5 c 128,-1,25
 711.5 449 711.5 449 678.5 433 c 1,26,-1
 651.5 499 l 1,27,28
 686.5 518 686.5 518 734.5 531.5 c 128,-1,29
 782.5 545 782.5 545 834.5 545 c 0,0,1
860.5 259 m 2,30,31
 760.5 255 760.5 255 722 227 c 128,-1,32
 683.5 199 683.5 199 683.5 148 c 0,33,34
 683.5 103 683.5 103 711 82 c 128,-1,35
 738.5 61 738.5 61 781.5 61 c 0,36,37
 849.5 61 849.5 61 894.5 98.5 c 128,-1,38
 939.5 136 939.5 136 939.5 214 c 2,39,-1
 939.5 262 l 1,40,-1
 860.5 259 l 2,30,31
EndSplineSet
EndChar

StartChar: b
Encoding: 98 98 68
Width: 1619
Flags: W
LayerCount: 2
Fore
SplineSet
660 575 m 2,0,1
 660 541 660 541 658.5 511.5 c 128,-1,2
 657 482 657 482 655 465 c 1,3,-1
 660 465 l 1,4,5
 683 499 683 499 723 522 c 128,-1,6
 763 545 763 545 826 545 c 0,7,8
 926 545 926 545 986.5 475.5 c 128,-1,9
 1047 406 1047 406 1047 268 c 0,10,11
 1047 176 1047 176 1019.5 114 c 128,-1,12
 992 52 992 52 942 21 c 128,-1,13
 892 -10 892 -10 826 -10 c 0,14,15
 763 -10 763 -10 723 13 c 128,-1,16
 683 36 683 36 660 68 c 1,17,-1
 653 68 l 1,18,-1
 635 0 l 1,19,-1
 572 0 l 1,20,-1
 572 760 l 1,21,-1
 660 760 l 1,22,-1
 660 575 l 2,0,1
811 472 m 0,23,24
 754 472 754 472 721 450.5 c 128,-1,25
 688 429 688 429 674 384.5 c 128,-1,26
 660 340 660 340 660 271 c 2,27,-1
 660 267 l 2,28,29
 660 168 660 168 692.5 115.5 c 128,-1,30
 725 63 725 63 813 63 c 0,31,32
 885 63 885 63 920.5 116 c 128,-1,33
 956 169 956 169 956 269 c 0,34,35
 956 370 956 370 920.5 421 c 128,-1,36
 885 472 885 472 811 472 c 0,23,24
EndSplineSet
EndChar

StartChar: c
Encoding: 99 99 69
Width: 1619
Flags: W
AnchorPoint: "Anchor-1" 809.5 536 basechar 0
AnchorPoint: "Anchor-0" 809.5 0 basechar 0
LayerCount: 2
Fore
SplineSet
865.5 -10 m 0,0,1
 747.5 -10 747.5 -10 682.5 57 c 128,-1,2
 617.5 124 617.5 124 617.5 245 c 0,3,4
 617.5 325 617.5 325 646.5 380.5 c 128,-1,5
 675.5 436 675.5 436 729.5 465 c 1,6,-1
 596.5 465 l 1,7,-1
 596.5 537 l 1,8,-1
 1022.5 537 l 1,9,-1
 1022.5 465 l 1,10,-1
 909.5 465 l 2,11,12
 815.5 465 815.5 465 762 411.5 c 128,-1,13
 708.5 358 708.5 358 708.5 252 c 0,14,15
 708.5 165 708.5 165 751.5 114.5 c 128,-1,16
 794.5 64 794.5 64 874.5 64 c 0,17,18
 911.5 64 911.5 64 945.5 73.5 c 128,-1,19
 979.5 83 979.5 83 1011.5 99 c 1,20,-1
 1011.5 21 l 1,21,22
 982.5 5 982.5 5 947.5 -2.5 c 128,-1,23
 912.5 -10 912.5 -10 865.5 -10 c 0,0,1
EndSplineSet
EndChar

StartChar: d
Encoding: 100 100 70
Width: 1619
Flags: W
LayerCount: 2
Fore
SplineSet
792 -10 m 0,0,1
 692 -10 692 -10 632 59.5 c 128,-1,2
 572 129 572 129 572 267 c 256,3,4
 572 405 572 405 632.5 475.5 c 128,-1,5
 693 546 693 546 793 546 c 0,6,7
 835 546 835 546 866 535.5 c 128,-1,8
 897 525 897 525 920 507 c 128,-1,9
 943 489 943 489 959 467 c 1,10,-1
 965 467 l 1,11,12
 964 480 964 480 961.5 505.5 c 128,-1,13
 959 531 959 531 959 546 c 2,14,-1
 959 760 l 1,15,-1
 1047 760 l 1,16,-1
 1047 0 l 1,17,-1
 976 0 l 1,18,-1
 963 72 l 1,19,-1
 959 72 l 1,20,21
 943 49 943 49 920 30.5 c 128,-1,22
 897 12 897 12 865.5 1 c 128,-1,23
 834 -10 834 -10 792 -10 c 0,0,1
806 63 m 0,24,25
 891 63 891 63 925.5 109.5 c 128,-1,26
 960 156 960 156 960 250 c 2,27,-1
 960 266 l 2,28,29
 960 366 960 366 927 419.5 c 128,-1,30
 894 473 894 473 805 473 c 0,31,32
 734 473 734 473 698.5 416.5 c 128,-1,33
 663 360 663 360 663 265 c 0,34,35
 663 169 663 169 698.5 116 c 128,-1,36
 734 63 734 63 806 63 c 0,24,25
EndSplineSet
EndChar

StartChar: e
Encoding: 101 101 71
Width: 1619
Flags: W
LayerCount: 2
Fore
SplineSet
817.5 546 m 0,0,1
 886.5 546 886.5 546 936 516 c 128,-1,2
 985.5 486 985.5 486 1012 431.5 c 128,-1,3
 1038.5 377 1038.5 377 1038.5 304 c 2,4,-1
 1038.5 251 l 1,5,-1
 671.5 251 l 1,6,7
 673.5 160 673.5 160 718 112.5 c 128,-1,8
 762.5 65 762.5 65 842.5 65 c 0,9,10
 893.5 65 893.5 65 933 74.5 c 128,-1,11
 972.5 84 972.5 84 1014.5 102 c 1,12,-1
 1014.5 25 l 1,13,14
 973.5 7 973.5 7 933.5 -1.5 c 128,-1,15
 893.5 -10 893.5 -10 838.5 -10 c 0,16,17
 762.5 -10 762.5 -10 704 21 c 128,-1,18
 645.5 52 645.5 52 613 113.5 c 128,-1,19
 580.5 175 580.5 175 580.5 264 c 0,20,21
 580.5 352 580.5 352 610 415 c 128,-1,22
 639.5 478 639.5 478 693 512 c 128,-1,23
 746.5 546 746.5 546 817.5 546 c 0,0,1
816.5 474 m 0,24,25
 753.5 474 753.5 474 717 433.5 c 128,-1,26
 680.5 393 680.5 393 673.5 321 c 1,27,-1
 946.5 321 l 1,28,29
 946.5 367 946.5 367 932.5 401 c 128,-1,30
 918.5 435 918.5 435 890 454.5 c 128,-1,31
 861.5 474 861.5 474 816.5 474 c 0,24,25
EndSplineSet
EndChar

StartChar: f
Encoding: 102 102 72
Width: 1619
Flags: W
LayerCount: 2
Fore
SplineSet
940.5 468 m 1,0,-1
 805.5 468 l 1,1,-1
 805.5 0 l 1,2,-1
 717.5 0 l 1,3,-1
 717.5 468 l 1,4,-1
 623.5 468 l 1,5,-1
 623.5 509 l 1,6,-1
 717.5 539 l 1,7,-1
 717.5 570 l 2,8,9
 717.5 639 717.5 639 738 682 c 128,-1,10
 758.5 725 758.5 725 797.5 745 c 128,-1,11
 836.5 765 836.5 765 891.5 765 c 0,12,13
 923.5 765 923.5 765 950 759.5 c 128,-1,14
 976.5 754 976.5 754 995.5 747 c 1,15,-1
 972.5 678 l 1,16,17
 956.5 683 956.5 683 935.5 688 c 128,-1,18
 914.5 693 914.5 693 892.5 693 c 0,19,20
 848.5 693 848.5 693 827 663.5 c 128,-1,21
 805.5 634 805.5 634 805.5 571 c 2,22,-1
 805.5 536 l 1,23,-1
 940.5 536 l 1,24,-1
 940.5 468 l 1,0,-1
EndSplineSet
EndChar

StartChar: g
Encoding: 103 103 73
Width: 1619
Flags: W
LayerCount: 2
Fore
SplineSet
792 546 m 0,0,1
 845 546 845 546 887.5 526 c 128,-1,2
 930 506 930 506 960 465 c 1,3,-1
 965 465 l 1,4,-1
 977 536 l 1,5,-1
 1047 536 l 1,6,-1
 1047 -9 l 2,7,8
 1047 -85 1047 -85 1021 -136.5 c 128,-1,9
 995 -188 995 -188 942 -214 c 128,-1,10
 889 -240 889 -240 807 -240 c 0,11,12
 749 -240 749 -240 700.5 -231.5 c 128,-1,13
 652 -223 652 -223 614 -206 c 1,14,-1
 614 -125 l 1,15,16
 652 -145 652 -145 703 -156 c 128,-1,17
 754 -167 754 -167 812 -167 c 0,18,19
 881 -167 881 -167 920.5 -126.5 c 128,-1,20
 960 -86 960 -86 960 -16 c 2,21,-1
 960 5 l 2,22,23
 960 17 960 17 961 39.5 c 128,-1,24
 962 62 962 62 963 71 c 1,25,-1
 959 71 l 1,26,27
 931 30 931 30 889.5 10 c 128,-1,28
 848 -10 848 -10 793 -10 c 0,29,30
 689 -10 689 -10 630.5 63 c 128,-1,31
 572 136 572 136 572 267 c 0,32,33
 572 395 572 395 630.5 470.5 c 128,-1,34
 689 546 689 546 792 546 c 0,0,1
804 472 m 0,35,36
 759 472 759 472 727.5 448 c 128,-1,37
 696 424 696 424 679.5 378 c 128,-1,38
 663 332 663 332 663 266 c 0,39,40
 663 167 663 167 699.5 114.5 c 128,-1,41
 736 62 736 62 806 62 c 0,42,43
 847 62 847 62 876 72.5 c 128,-1,44
 905 83 905 83 924 105.5 c 128,-1,45
 943 128 943 128 952 163 c 128,-1,46
 961 198 961 198 961 246 c 2,47,-1
 961 267 l 2,48,49
 961 340 961 340 944.5 385 c 128,-1,50
 928 430 928 430 893 451 c 128,-1,51
 858 472 858 472 804 472 c 0,35,36
EndSplineSet
EndChar

StartChar: h
Encoding: 104 104 74
Width: 1619
Flags: W
LayerCount: 2
Fore
SplineSet
671.5 537 m 2,0,1
 671.5 518 671.5 518 670 498 c 128,-1,2
 668.5 478 668.5 478 666.5 462 c 1,3,-1
 672.5 462 l 1,4,5
 689.5 490 689.5 490 715.5 508 c 128,-1,6
 741.5 526 741.5 526 773.5 535.5 c 128,-1,7
 805.5 545 805.5 545 839.5 545 c 0,8,9
 904.5 545 904.5 545 948 524.5 c 128,-1,10
 991.5 504 991.5 504 1013.5 461 c 128,-1,11
 1035.5 418 1035.5 418 1035.5 349 c 2,12,-1
 1035.5 0 l 1,13,-1
 948.5 0 l 1,14,-1
 948.5 343 l 2,15,16
 948.5 408 948.5 408 919.5 440 c 128,-1,17
 890.5 472 890.5 472 828.5 472 c 0,18,19
 768.5 472 768.5 472 734.5 449.5 c 128,-1,20
 700.5 427 700.5 427 686 383.5 c 128,-1,21
 671.5 340 671.5 340 671.5 277 c 2,22,-1
 671.5 0 l 1,23,-1
 583.5 0 l 1,24,-1
 583.5 760 l 1,25,-1
 671.5 760 l 1,26,-1
 671.5 537 l 2,0,1
EndSplineSet
EndChar

StartChar: i
Encoding: 105 105 75
Width: 1619
Flags: W
LayerCount: 2
Fore
SplineSet
853 536 m 1,0,-1
 853 0 l 1,1,-1
 765 0 l 1,2,-1
 765 536 l 1,3,-1
 853 536 l 1,0,-1
810 737 m 0,4,5
 830 737 830 737 845.5 723.5 c 128,-1,6
 861 710 861 710 861 681 c 0,7,8
 861 653 861 653 845.5 639 c 128,-1,9
 830 625 830 625 810 625 c 0,10,11
 788 625 788 625 773 639 c 128,-1,12
 758 653 758 653 758 681 c 0,13,14
 758 710 758 710 773 723.5 c 128,-1,15
 788 737 788 737 810 737 c 0,4,5
EndSplineSet
Substitution2: "Single Substitution lookup 14 subtable" dotlessi
Substitution2: "Single Substitution lookup 13 subtable" dotlessi
EndChar

StartChar: j
Encoding: 106 106 76
Width: 1619
Flags: W
AnchorPoint: "Anchor-1" 809.5 536 basechar 0
AnchorPoint: "Anchor-0" 809.5 0 basechar 0
LayerCount: 2
Fore
SplineSet
998.5 536 m 1,0,-1
 998.5 470 l 1,1,-1
 887.5 313 l 1,2,-1
 988.5 313 l 1,3,-1
 988.5 243 l 1,4,-1
 837.5 243 l 1,5,-1
 714.5 68 l 1,6,-1
 1005.5 68 l 1,7,-1
 1005.5 0 l 1,8,-1
 613.5 0 l 1,9,-1
 613.5 58 l 1,10,-1
 743.5 243 l 1,11,-1
 631.5 243 l 1,12,-1
 631.5 313 l 1,13,-1
 792.5 313 l 1,14,-1
 901.5 468 l 1,15,-1
 630.5 468 l 1,16,-1
 630.5 536 l 1,17,-1
 998.5 536 l 1,0,-1
EndSplineSet
Substitution2: "Single Substitution lookup 14 subtable" uni0237
Substitution2: "Single Substitution lookup 13 subtable" uni0237
EndChar

StartChar: k
Encoding: 107 107 77
Width: 1619
Flags: W
AnchorPoint: "Anchor-2" 809 -78 basechar 0
AnchorPoint: "Anchor-1" 809 -29 basechar 0
AnchorPoint: "Anchor-0" 809 -29 basechar 0
LayerCount: 2
Fore
SplineSet
658 -12 m 0,0,1
 598 -12 598 -12 550 7 c 128,-1,2
 502 26 502 26 474 63 c 128,-1,3
 446 100 446 100 446 152 c 0,4,5
 446 206 446 206 474.5 245.5 c 128,-1,6
 503 285 503 285 565 306.5 c 128,-1,7
 627 328 627 328 729 328 c 2,8,-1
 909 328 l 2,9,10
 961 328 961 328 999 323 c 128,-1,11
 1037 318 1037 318 1065.5 307.5 c 128,-1,12
 1094 297 1094 297 1117 279 c 0,13,14
 1143 259 1143 259 1158 226.5 c 128,-1,15
 1173 194 1173 194 1173 152 c 0,16,17
 1173 76 1173 76 1127.5 34 c 128,-1,18
 1082 -8 1082 -8 999 -8 c 0,19,20
 976 -8 976 -8 949 -5 c 128,-1,21
 922 -2 922 -2 899 5 c 1,22,-1
 918 72 l 1,23,24
 933 68 933 68 952.5 65 c 128,-1,25
 972 62 972 62 991 62 c 0,26,27
 1038 62 1038 62 1062.5 85 c 128,-1,28
 1087 108 1087 108 1087 156 c 0,29,30
 1087 190 1087 190 1072 210.5 c 128,-1,31
 1057 231 1057 231 1032.5 241 c 128,-1,32
 1008 251 1008 251 977.5 254.5 c 128,-1,33
 947 258 947 258 916 258 c 2,34,-1
 722 258 l 2,35,36
 671 258 671 258 635.5 252 c 128,-1,37
 600 246 600 246 575 232 c 0,38,39
 553 219 553 219 542.5 200.5 c 128,-1,40
 532 182 532 182 532 153 c 0,41,42
 532 107 532 107 570 83.5 c 128,-1,43
 608 60 608 60 666 60 c 0,44,45
 710 60 710 60 741.5 73.5 c 128,-1,46
 773 87 773 87 790.5 120 c 128,-1,47
 808 153 808 153 808 213 c 2,48,-1
 808 482 l 1,49,-1
 636 482 l 1,50,-1
 636 302 l 1,51,-1
 557 286 l 1,52,-1
 557 554 l 1,53,-1
 1080 554 l 1,54,-1
 1080 482 l 1,55,-1
 893 482 l 1,56,-1
 893 226 l 2,57,58
 893 159 893 159 881.5 121 c 128,-1,59
 870 83 870 83 849 57 c 0,60,61
 818 19 818 19 769.5 3.5 c 128,-1,62
 721 -12 721 -12 658 -12 c 0,0,1
EndSplineSet
EndChar

StartChar: l
Encoding: 108 108 78
Width: 1619
Flags: W
AnchorPoint: "Anchor-2" 812 -78 basechar 0
AnchorPoint: "Anchor-1" 812 -29 basechar 0
AnchorPoint: "Anchor-0" 812 -29 basechar 0
LayerCount: 2
Fore
SplineSet
555 -12 m 0,0,1
 502 -12 502 -12 458 14 c 128,-1,2
 414 40 414 40 388.5 96.5 c 128,-1,3
 363 153 363 153 363 242 c 0,4,5
 363 323 363 323 387 384 c 128,-1,6
 411 445 411 445 453 485.5 c 128,-1,7
 495 526 495 526 549.5 546 c 128,-1,8
 604 566 604 566 665 566 c 0,9,10
 713 566 713 566 763 553 c 128,-1,11
 813 540 813 540 851 502 c 0,12,13
 879 475 879 475 894.5 440 c 128,-1,14
 910 405 910 405 916.5 359 c 128,-1,15
 923 313 923 313 923 252 c 0,16,17
 923 217 923 217 926.5 188 c 128,-1,18
 930 159 930 159 939 136 c 128,-1,19
 948 113 948 113 964 95 c 0,20,21
 979 79 979 79 1000 70.5 c 128,-1,22
 1021 62 1021 62 1050 62 c 0,23,24
 1083 62 1083 62 1110 78 c 128,-1,25
 1137 94 1137 94 1153 132 c 128,-1,26
 1169 170 1169 170 1169 237 c 0,27,28
 1169 303 1169 303 1153 359 c 128,-1,29
 1137 415 1137 415 1108.5 461.5 c 128,-1,30
 1080 508 1080 508 1044 547 c 1,31,-1
 1122 600 l 1,32,33
 1184 521 1184 521 1220 434 c 128,-1,34
 1256 347 1256 347 1256 244 c 0,35,36
 1256 159 1256 159 1231.5 102 c 128,-1,37
 1207 45 1207 45 1160 16.5 c 128,-1,38
 1113 -12 1113 -12 1043 -12 c 0,39,40
 1000 -12 1000 -12 964.5 0.5 c 128,-1,41
 929 13 929 13 903 38 c 0,42,43
 871 68 871 68 854 121 c 128,-1,44
 837 174 837 174 836 250 c 0,45,46
 836 286 836 286 832 324 c 128,-1,47
 828 362 828 362 816 396.5 c 128,-1,48
 804 431 804 431 778 455 c 0,49,50
 758 473 758 473 730 482.5 c 128,-1,51
 702 492 702 492 661 492 c 0,52,53
 592 492 592 492 543 458.5 c 128,-1,54
 494 425 494 425 468 366.5 c 128,-1,55
 442 308 442 308 442 232 c 0,56,57
 442 168 442 168 457.5 129 c 128,-1,58
 473 90 473 90 499.5 73 c 128,-1,59
 526 56 526 56 559 56 c 0,60,61
 586 56 586 56 605.5 67.5 c 128,-1,62
 625 79 625 79 635.5 101 c 128,-1,63
 646 123 646 123 646 155 c 0,64,65
 646 205 646 205 620 231.5 c 128,-1,66
 594 258 594 258 553 258 c 0,67,68
 513 258 513 258 478 237 c 128,-1,69
 443 216 443 216 414 184 c 1,70,-1
 399 248 l 1,71,72
 429 283 429 283 473.5 305.5 c 128,-1,73
 518 328 518 328 567 328 c 0,74,75
 639 328 639 328 683.5 284 c 128,-1,76
 728 240 728 240 728 165 c 0,77,78
 728 110 728 110 707 70 c 128,-1,79
 686 30 686 30 647.5 9 c 128,-1,80
 609 -12 609 -12 555 -12 c 0,0,1
EndSplineSet
EndChar

StartChar: m
Encoding: 109 109 79
Width: 1619
Flags: W
AnchorPoint: "Anchor-2" 796 -78 basechar 0
AnchorPoint: "Anchor-1" 796 -29 basechar 0
AnchorPoint: "Anchor-0" 796 -29 basechar 0
LayerCount: 2
Fore
SplineSet
947 566 m 0,0,1
 1022 566 1022 566 1070 527.5 c 128,-1,2
 1118 489 1118 489 1141 420.5 c 128,-1,3
 1164 352 1164 352 1164 262 c 0,4,5
 1164 192 1164 192 1149 142 c 128,-1,6
 1134 92 1134 92 1101 60 c 0,7,8
 1078 37 1078 37 1048 24 c 128,-1,9
 1018 11 1018 11 977.5 5.5 c 128,-1,10
 937 0 937 0 879 0 c 2,11,-1
 455 0 l 1,12,-1
 455 554 l 1,13,-1
 541 554 l 1,14,-1
 541 72 l 1,15,-1
 767 72 l 1,16,-1
 767 355 l 2,17,18
 767 417 767 417 778.5 453.5 c 128,-1,19
 790 490 790 490 812 515 c 0,20,21
 835 540 835 540 867 553 c 128,-1,22
 899 566 899 566 947 566 c 0,0,1
945 494 m 0,23,24
 928 494 928 494 912 488.5 c 128,-1,25
 896 483 896 483 885 471 c 0,26,27
 869 453 869 453 861 426.5 c 128,-1,28
 853 400 853 400 853 338 c 2,29,-1
 853 72 l 1,30,-1
 900 72 l 2,31,32
 968 72 968 72 1006 91 c 128,-1,33
 1044 110 1044 110 1060 153 c 128,-1,34
 1076 196 1076 196 1076 267 c 0,35,36
 1076 331 1076 331 1062.5 382 c 128,-1,37
 1049 433 1049 433 1020.5 463.5 c 128,-1,38
 992 494 992 494 945 494 c 0,23,24
EndSplineSet
EndChar

StartChar: n
Encoding: 110 110 80
Width: 1619
Flags: W
AnchorPoint: "Anchor-2" 810.5 -200 basechar 0
AnchorPoint: "Anchor-1" 810.5 -29 basechar 0
AnchorPoint: "Anchor-0" 810.5 -29 basechar 0
LayerCount: 2
Fore
SplineSet
972.5 362 m 0,0,1
 1023.5 362 1023.5 362 1065 336 c 128,-1,2
 1106.5 310 1106.5 310 1131.5 259 c 128,-1,3
 1156.5 208 1156.5 208 1156.5 134 c 0,4,5
 1156.5 44 1156.5 44 1130.5 -8 c 128,-1,6
 1104.5 -60 1104.5 -60 1057.5 -94 c 0,7,8
 1025.5 -117 1025.5 -117 984 -131 c 128,-1,9
 942.5 -145 942.5 -145 888.5 -150.5 c 128,-1,10
 834.5 -156 834.5 -156 762.5 -156 c 2,11,-1
 687.5 -156 l 2,12,13
 645.5 -156 645.5 -156 622.5 -162 c 128,-1,14
 599.5 -168 599.5 -168 582.5 -179 c 0,15,16
 566.5 -190 566.5 -190 557.5 -210 c 128,-1,17
 548.5 -230 548.5 -230 548.5 -263 c 0,18,19
 548.5 -278 548.5 -278 549.5 -291.5 c 128,-1,20
 550.5 -305 550.5 -305 551.5 -317 c 1,21,-1
 469.5 -321 l 1,22,23
 466.5 -303 466.5 -303 464.5 -281.5 c 128,-1,24
 462.5 -260 462.5 -260 462.5 -243 c 0,25,26
 462.5 -199 462.5 -199 478.5 -168.5 c 128,-1,27
 494.5 -138 494.5 -138 519.5 -119 c 0,28,29
 537.5 -106 537.5 -106 557 -98.5 c 128,-1,30
 576.5 -91 576.5 -91 602 -87.5 c 128,-1,31
 627.5 -84 627.5 -84 660.5 -84 c 2,32,-1
 753.5 -84 l 2,33,34
 835.5 -84 835.5 -84 887 -77 c 128,-1,35
 938.5 -70 938.5 -70 970.5 -54.5 c 128,-1,36
 1002.5 -39 1002.5 -39 1025.5 -14 c 0,37,38
 1045.5 8 1045.5 8 1058 43.5 c 128,-1,39
 1070.5 79 1070.5 79 1070.5 131 c 256,40,41
 1070.5 183 1070.5 183 1057 218 c 128,-1,42
 1043.5 253 1043.5 253 1017 271 c 128,-1,43
 990.5 289 990.5 289 951.5 289 c 0,44,45
 923.5 289 923.5 289 895 276.5 c 128,-1,46
 866.5 264 866.5 264 845.5 247 c 1,47,-1
 842.5 322 l 1,48,49
 868.5 338 868.5 338 900.5 350 c 128,-1,50
 932.5 362 932.5 362 972.5 362 c 0,0,1
503.5 0 m 1,51,-1
 503.5 554 l 1,52,-1
 1024.5 554 l 1,53,-1
 1024.5 482 l 1,54,-1
 849.5 482 l 1,55,-1
 849.5 0 l 1,56,-1
 763.5 0 l 1,57,-1
 763.5 482 l 1,58,-1
 589.5 482 l 1,59,-1
 589.5 0 l 1,60,-1
 503.5 0 l 1,51,-1
EndSplineSet
EndChar

StartChar: o
Encoding: 111 111 81
Width: 1619
Flags: W
LayerCount: 2
Fore
SplineSet
1057.5 269 m 0,0,1
 1057.5 202 1057.5 202 1040 150.5 c 128,-1,2
 1022.5 99 1022.5 99 990 63 c 128,-1,3
 957.5 27 957.5 27 911 8.5 c 128,-1,4
 864.5 -10 864.5 -10 807.5 -10 c 0,5,6
 754.5 -10 754.5 -10 709.5 8.5 c 128,-1,7
 664.5 27 664.5 27 631.5 63 c 128,-1,8
 598.5 99 598.5 99 580 150.5 c 128,-1,9
 561.5 202 561.5 202 561.5 269 c 0,10,11
 561.5 358 561.5 358 591.5 419.5 c 128,-1,12
 621.5 481 621.5 481 677.5 513.5 c 128,-1,13
 733.5 546 733.5 546 810.5 546 c 0,14,15
 883.5 546 883.5 546 939 513.5 c 128,-1,16
 994.5 481 994.5 481 1026 419.5 c 128,-1,17
 1057.5 358 1057.5 358 1057.5 269 c 0,0,1
652.5 269 m 0,18,19
 652.5 206 652.5 206 669 159.5 c 128,-1,20
 685.5 113 685.5 113 720.5 88 c 128,-1,21
 755.5 63 755.5 63 809.5 63 c 256,22,23
 863.5 63 863.5 63 898.5 88 c 128,-1,24
 933.5 113 933.5 113 950 159.5 c 128,-1,25
 966.5 206 966.5 206 966.5 269 c 0,26,27
 966.5 333 966.5 333 949.5 378 c 128,-1,28
 932.5 423 932.5 423 898 447.5 c 128,-1,29
 863.5 472 863.5 472 808.5 472 c 0,30,31
 726.5 472 726.5 472 689.5 418 c 128,-1,32
 652.5 364 652.5 364 652.5 269 c 0,18,19
EndSplineSet
EndChar

StartChar: p
Encoding: 112 112 82
Width: 1619
Flags: W
AnchorPoint: "Anchor-2" 809.5 -78 basechar 0
AnchorPoint: "Anchor-1" 809.5 -29 basechar 0
AnchorPoint: "Anchor-0" 809.5 -29 basechar 0
LayerCount: 2
Fore
SplineSet
508.5 0 m 1,0,-1
 508.5 554 l 1,1,-1
 594.5 554 l 1,2,-1
 594.5 72 l 1,3,-1
 1024.5 72 l 1,4,-1
 1024.5 554 l 1,5,-1
 1110.5 554 l 1,6,-1
 1110.5 0 l 1,7,-1
 508.5 0 l 1,0,-1
EndSplineSet
EndChar

StartChar: q
Encoding: 113 113 83
Width: 1619
Flags: W
AnchorPoint: "Anchor-1" 771.5 765 basechar 0
AnchorPoint: "Anchor-0" 771.5 0 basechar 0
LayerCount: 2
Fore
SplineSet
710.5 765 m 0,0,1
 729.5 765 729.5 765 747.5 761 c 128,-1,2
 765.5 757 765.5 757 775.5 752 c 1,3,-1
 775.5 679 l 1,4,5
 768.5 682 768.5 682 754.5 685.5 c 128,-1,6
 740.5 689 740.5 689 723.5 689 c 0,7,8
 701.5 689 701.5 689 689 676 c 128,-1,9
 676.5 663 676.5 663 676.5 631 c 2,10,-1
 676.5 363 l 2,11,12
 676.5 347 676.5 347 675.5 321 c 128,-1,13
 674.5 295 674.5 295 672.5 276 c 1,14,-1
 676.5 276 l 1,15,16
 682.5 285 682.5 285 694.5 299.5 c 128,-1,17
 706.5 314 706.5 314 719 329.5 c 128,-1,18
 731.5 345 731.5 345 740.5 355 c 2,19,-1
 911.5 536 l 1,20,-1
 1014.5 536 l 1,21,-1
 797.5 307 l 1,22,-1
 1029.5 0 l 1,23,-1
 923.5 0 l 1,24,-1
 737.5 250 l 1,25,-1
 676.5 197 l 1,26,-1
 676.5 0 l 1,27,-1
 589.5 0 l 1,28,-1
 589.5 625 l 2,29,30
 589.5 765 589.5 765 710.5 765 c 0,0,1
EndSplineSet
EndChar

StartChar: r
Encoding: 114 114 84
Width: 1619
Flags: W
AnchorPoint: "Anchor-2" 789.5 -225 basechar 0
AnchorPoint: "Anchor-1" 789.5 -29 basechar 0
AnchorPoint: "Anchor-0" 789.5 -29 basechar 0
LayerCount: 2
Fore
SplineSet
700.5 -212 m 1,0,-1
 643.5 -159 l 1,1,-1
 836.5 24 l 1,2,-1
 836.5 482 l 1,3,-1
 643.5 482 l 1,4,-1
 643.5 0 l 1,5,-1
 557.5 0 l 1,6,-1
 557.5 554 l 1,7,-1
 1061.5 554 l 5,8,-1
 1061.5 482 l 5,9,-1
 922.5 482 l 1,10,-1
 922.5 0 l 1,11,-1
 700.5 -212 l 1,0,-1
EndSplineSet
EndChar

StartChar: s
Encoding: 115 115 85
Width: 1619
Flags: W
AnchorPoint: "Anchor-2" 812 -78 basechar 0
AnchorPoint: "Anchor-1" 812 -29 basechar 0
AnchorPoint: "Anchor-0" 812 -29 basechar 0
LayerCount: 2
Fore
SplineSet
419 -12 m 0,0,1
 366 -12 366 -12 322 14 c 128,-1,2
 278 40 278 40 252.5 96.5 c 128,-1,3
 227 153 227 153 227 242 c 0,4,5
 227 323 227 323 251 384 c 128,-1,6
 275 445 275 445 317 485.5 c 128,-1,7
 359 526 359 526 413.5 546 c 128,-1,8
 468 566 468 566 529 566 c 0,9,10
 581 566 581 566 622.5 551.5 c 128,-1,11
 664 537 664 537 697.5 507 c 128,-1,12
 731 477 731 477 757 430 c 1,13,-1
 728 433 l 1,14,15
 737 468 737 468 758 498.5 c 128,-1,16
 779 529 779 529 811.5 547.5 c 128,-1,17
 844 566 844 566 889 566 c 0,18,19
 926 566 926 566 955.5 555 c 128,-1,20
 985 544 985 544 1007 521 c 0,21,22
 1033 494 1033 494 1046 452.5 c 128,-1,23
 1059 411 1059 411 1059 343 c 2,24,-1
 1059 255 l 2,25,26
 1059 200 1059 200 1067 160.5 c 128,-1,27
 1075 121 1075 121 1100 95 c 0,28,29
 1115 79 1115 79 1136 70.5 c 128,-1,30
 1157 62 1157 62 1185 62 c 0,31,32
 1219 62 1219 62 1246 78 c 128,-1,33
 1273 94 1273 94 1289 132 c 128,-1,34
 1305 170 1305 170 1305 237 c 0,35,36
 1305 303 1305 303 1288.5 359 c 128,-1,37
 1272 415 1272 415 1244 461.5 c 128,-1,38
 1216 508 1216 508 1179 547 c 1,39,-1
 1257 600 l 1,40,41
 1319 521 1319 521 1355.5 434 c 128,-1,42
 1392 347 1392 347 1392 244 c 0,43,44
 1392 159 1392 159 1367.5 102 c 128,-1,45
 1343 45 1343 45 1296 16.5 c 128,-1,46
 1249 -12 1249 -12 1179 -12 c 0,47,48
 1136 -12 1136 -12 1100.5 0.5 c 128,-1,49
 1065 13 1065 13 1039 38 c 0,50,51
 1018 58 1018 58 1003 88.5 c 128,-1,52
 988 119 988 119 980 159.5 c 128,-1,53
 972 200 972 200 972 250 c 2,54,-1
 972 288 l 2,55,56
 972 353 972 353 967.5 390 c 128,-1,57
 963 427 963 427 953 449 c 0,58,59
 943 473 943 473 925 483.5 c 128,-1,60
 907 494 907 494 884 494 c 0,61,62
 863 494 863 494 847.5 485 c 128,-1,63
 832 476 832 476 822 463 c 0,64,65
 807 444 807 444 800 417.5 c 128,-1,66
 793 391 793 391 793 351 c 2,67,-1
 793 0 l 1,68,-1
 707 0 l 1,69,-1
 707 293 l 2,70,71
 707 356 707 356 690 393.5 c 128,-1,72
 673 431 673 431 647 453 c 0,73,74
 619 476 619 476 590.5 484 c 128,-1,75
 562 492 562 492 525 492 c 0,76,77
 456 492 456 492 407 458.5 c 128,-1,78
 358 425 358 425 332 366.5 c 128,-1,79
 306 308 306 308 306 232 c 0,80,81
 306 168 306 168 321.5 129 c 128,-1,82
 337 90 337 90 363.5 73 c 128,-1,83
 390 56 390 56 423 56 c 0,84,85
 449 56 449 56 468.5 67.5 c 128,-1,86
 488 79 488 79 499 101 c 128,-1,87
 510 123 510 123 510 155 c 0,88,89
 510 205 510 205 484 231.5 c 128,-1,90
 458 258 458 258 417 258 c 0,91,92
 377 258 377 258 342 237 c 128,-1,93
 307 216 307 216 278 184 c 1,94,-1
 263 248 l 1,95,96
 293 283 293 283 337.5 305.5 c 128,-1,97
 382 328 382 328 431 328 c 0,98,99
 503 328 503 328 547.5 284 c 128,-1,100
 592 240 592 240 592 165 c 0,101,102
 592 110 592 110 571 70 c 128,-1,103
 550 30 550 30 511.5 9 c 128,-1,104
 473 -12 473 -12 419 -12 c 0,0,1
EndSplineSet
EndChar

StartChar: t
Encoding: 116 116 86
Width: 1619
Flags: W
AnchorPoint: "Anchor-2" 773.5 -78 basechar 0
AnchorPoint: "Anchor-1" 773.5 -29 basechar 0
AnchorPoint: "Anchor-0" 773.5 -29 basechar 0
LayerCount: 2
Fore
SplineSet
515.5 0 m 1,0,-1
 515.5 554 l 1,1,-1
 601.5 554 l 1,2,-1
 601.5 72 l 1,3,-1
 1103.5 72 l 1,4,-1
 1103.5 0 l 1,5,-1
 515.5 0 l 1,0,-1
EndSplineSet
EndChar

StartChar: u
Encoding: 117 117 87
Width: 1619
Flags: W
LayerCount: 2
Fore
SplineSet
1036.5 536 m 1,0,-1
 1036.5 0 l 1,1,-1
 964.5 0 l 1,2,-1
 951.5 71 l 1,3,-1
 947.5 71 l 1,4,5
 930.5 43 930.5 43 903.5 25 c 128,-1,6
 876.5 7 876.5 7 844.5 -1.5 c 128,-1,7
 812.5 -10 812.5 -10 777.5 -10 c 0,8,9
 713.5 -10 713.5 -10 670 10.5 c 128,-1,10
 626.5 31 626.5 31 604.5 74 c 128,-1,11
 582.5 117 582.5 117 582.5 185 c 2,12,-1
 582.5 536 l 1,13,-1
 671.5 536 l 1,14,-1
 671.5 191 l 2,15,16
 671.5 127 671.5 127 700.5 95 c 128,-1,17
 729.5 63 729.5 63 790.5 63 c 0,18,19
 850.5 63 850.5 63 885 85.5 c 128,-1,20
 919.5 108 919.5 108 934 151.5 c 128,-1,21
 948.5 195 948.5 195 948.5 257 c 2,22,-1
 948.5 536 l 1,23,-1
 1036.5 536 l 1,0,-1
EndSplineSet
EndChar

StartChar: v
Encoding: 118 118 88
Width: 1619
Flags: W
AnchorPoint: "Anchor-2" 825 -78 basechar 0
AnchorPoint: "Anchor-1" 825 -29 basechar 0
AnchorPoint: "Anchor-0" 825 -29 basechar 0
LayerCount: 2
Fore
SplineSet
552 -12 m 0,0,1
 499 -12 499 -12 455 14.5 c 128,-1,2
 411 41 411 41 385.5 97 c 128,-1,3
 360 153 360 153 360 243 c 0,4,5
 360 350 360 350 402.5 422 c 128,-1,6
 445 494 445 494 515 530 c 128,-1,7
 585 566 585 566 667 566 c 0,8,9
 743 566 743 566 797.5 543.5 c 128,-1,10
 852 521 852 521 886.5 481.5 c 128,-1,11
 921 442 921 442 937.5 390.5 c 128,-1,12
 954 339 954 339 954 280 c 0,13,14
 954 216 954 216 940 166 c 128,-1,15
 926 116 926 116 906 72 c 1,16,-1
 1173 72 l 1,17,-1
 1173 554 l 1,18,-1
 1259 554 l 1,19,-1
 1259 0 l 1,20,-1
 818 0 l 1,21,-1
 814 63 l 1,22,23
 837 98 837 98 851.5 149.5 c 128,-1,24
 866 201 866 201 866 269 c 0,25,26
 866 340 866 340 841 390 c 128,-1,27
 816 440 816 440 770.5 466 c 128,-1,28
 725 492 725 492 663 492 c 0,29,30
 593 492 593 492 543 458.5 c 128,-1,31
 493 425 493 425 466 367.5 c 128,-1,32
 439 310 439 310 439 237 c 0,33,34
 439 170 439 170 454.5 130.5 c 128,-1,35
 470 91 470 91 496.5 73.5 c 128,-1,36
 523 56 523 56 556 56 c 0,37,38
 582 56 582 56 601.5 67.5 c 128,-1,39
 621 79 621 79 632 101 c 128,-1,40
 643 123 643 123 643 155 c 0,41,42
 643 205 643 205 617 231.5 c 128,-1,43
 591 258 591 258 550 258 c 0,44,45
 510 258 510 258 475 237 c 128,-1,46
 440 216 440 216 411 184 c 1,47,-1
 396 248 l 1,48,49
 426 283 426 283 470.5 305.5 c 128,-1,50
 515 328 515 328 564 328 c 0,51,52
 636 328 636 328 680.5 284 c 128,-1,53
 725 240 725 240 725 165 c 0,54,55
 725 110 725 110 704 70 c 128,-1,56
 683 30 683 30 644.5 9 c 128,-1,57
 606 -12 606 -12 552 -12 c 0,0,1
EndSplineSet
EndChar

StartChar: w
Encoding: 119 119 89
Width: 1619
Flags: W
AnchorPoint: "Anchor-1" 800 536 basechar 0
AnchorPoint: "Anchor-0" 799 0 basechar 0
LayerCount: 2
Fore
SplineSet
800 682 m 4,0,1
 820 682 820 682 835.5 668.5 c 132,-1,2
 851 655 851 655 851 626 c 4,3,4
 851 598 851 598 835.5 584 c 132,-1,5
 820 570 820 570 800 570 c 4,6,7
 778 570 778 570 763 584 c 132,-1,8
 748 598 748 598 748 626 c 4,9,10
 748 655 748 655 763 668.5 c 132,-1,11
 778 682 778 682 800 682 c 4,0,1
1037 541 m 0,12,13
 1049 541 1049 541 1059 539 c 128,-1,14
 1069 537 1069 537 1078 535 c 1,15,-1
 1078 467 l 1,16,17
 1065 472 1065 472 1044 472 c 0,18,19
 1022 472 1022 472 1008 452 c 128,-1,20
 994 432 994 432 980 390 c 2,21,-1
 857 0 l 1,22,-1
 740 0 l 1,23,-1
 541 536 l 1,24,-1
 633 536 l 1,25,-1
 760 181 l 2,26,27
 775 139 775 139 785 107.5 c 128,-1,28
 795 76 795 76 797 62 c 1,29,-1
 801 62 l 1,30,31
 805 83 805 83 813 119 c 128,-1,32
 821 155 821 155 832 189 c 2,33,-1
 902 407 l 2,34,35
 919 459 919 459 935.5 488 c 128,-1,36
 952 517 952 517 975.5 529 c 128,-1,37
 999 541 999 541 1037 541 c 0,12,13
EndSplineSet
EndChar

StartChar: x
Encoding: 120 120 90
Width: 1619
Flags: W
LayerCount: 2
Fore
SplineSet
757 274 m 1,0,-1
 572 536 l 1,1,-1
 672 536 l 1,2,-1
 810 334 l 1,3,-1
 947 536 l 1,4,-1
 1046 536 l 1,5,-1
 861 274 l 1,6,-1
 1056 0 l 1,7,-1
 956 0 l 1,8,-1
 810 214 l 1,9,-1
 662 0 l 1,10,-1
 563 0 l 1,11,-1
 757 274 l 1,0,-1
EndSplineSet
EndChar

StartChar: y
Encoding: 121 121 91
Width: 1619
Flags: W
AnchorPoint: "Anchor-2" 809 -78 basechar 0
AnchorPoint: "Anchor-1" 809 -29 basechar 0
AnchorPoint: "Anchor-0" 809 -29 basechar 0
LayerCount: 2
Fore
SplineSet
682 0 m 1,0,-1
 682 554 l 1,1,-1
 768 554 l 1,2,-1
 768 72 l 1,3,-1
 1117 72 l 1,4,-1
 1117 554 l 1,5,-1
 1203 554 l 1,6,-1
 1203 0 l 1,7,-1
 682 0 l 1,0,-1
568 -11 m 0,8,9
 531 -11 531 -11 503.5 1.5 c 128,-1,10
 476 14 476 14 457 36 c 0,11,12
 446 51 446 51 436.5 70 c 128,-1,13
 427 89 427 89 421.5 120 c 128,-1,14
 416 151 416 151 416 202 c 2,15,-1
 416 554 l 1,16,-1
 502 554 l 1,17,-1
 502 223 l 2,18,19
 502 177 502 177 506 139.5 c 128,-1,20
 510 102 510 102 530 82 c 0,21,22
 540 72 540 72 553.5 66.5 c 128,-1,23
 567 61 567 61 586 61 c 0,24,25
 615 61 615 61 640.5 76 c 128,-1,26
 666 91 666 91 688 125 c 1,27,-1
 686 39 l 1,28,29
 667 20 667 20 638 4.5 c 128,-1,30
 609 -11 609 -11 568 -11 c 0,8,9
EndSplineSet
EndChar

StartChar: z
Encoding: 122 122 92
Width: 1619
Flags: W
AnchorPoint: "Anchor-2" 809.5 -308 basechar 0
AnchorPoint: "Anchor-1" 809.5 -29 basechar 0
AnchorPoint: "Anchor-0" 809.5 -29 basechar 0
LayerCount: 2
Fore
SplineSet
629.5 566 m 0,0,1
 702.5 566 702.5 566 748 547 c 128,-1,2
 793.5 528 793.5 528 819 499 c 128,-1,3
 844.5 470 844.5 470 857.5 439 c 1,4,-1
 839.5 430 l 1,5,6
 854.5 473 854.5 473 880 503.5 c 128,-1,7
 905.5 534 905.5 534 942.5 550 c 128,-1,8
 979.5 566 979.5 566 1027.5 566 c 0,9,10
 1102.5 566 1102.5 566 1153.5 536.5 c 128,-1,11
 1204.5 507 1204.5 507 1231 455 c 128,-1,12
 1257.5 403 1257.5 403 1257.5 335 c 0,13,14
 1257.5 268 1257.5 268 1237.5 221 c 128,-1,15
 1217.5 174 1217.5 174 1181.5 143 c 0,16,17
 1143.5 110 1143.5 110 1090 93 c 128,-1,18
 1036.5 76 1036.5 76 973 69.5 c 128,-1,19
 909.5 63 909.5 63 840.5 63 c 2,20,-1
 746.5 63 l 2,21,22
 680.5 63 680.5 63 630 59 c 128,-1,23
 579.5 55 579.5 55 544 43 c 128,-1,24
 508.5 31 508.5 31 485.5 8 c 0,25,26
 466.5 -11 466.5 -11 458 -36 c 128,-1,27
 449.5 -61 449.5 -61 449.5 -93 c 0,28,29
 449.5 -151 449.5 -151 471.5 -185 c 128,-1,30
 493.5 -219 493.5 -219 526 -233.5 c 128,-1,31
 558.5 -248 558.5 -248 590.5 -248 c 0,32,33
 634.5 -248 634.5 -248 666.5 -235.5 c 128,-1,34
 698.5 -223 698.5 -223 724.5 -200 c 128,-1,35
 750.5 -177 750.5 -177 776.5 -148 c 0,36,37
 818.5 -101 818.5 -101 856.5 -70 c 128,-1,38
 894.5 -39 894.5 -39 940 -23 c 128,-1,39
 985.5 -7 985.5 -7 1049.5 -7 c 0,40,41
 1085.5 -7 1085.5 -7 1120 -16.5 c 128,-1,42
 1154.5 -26 1154.5 -26 1182.5 -46.5 c 128,-1,43
 1210.5 -67 1210.5 -67 1227.5 -98.5 c 128,-1,44
 1244.5 -130 1244.5 -130 1244.5 -174 c 256,45,46
 1244.5 -218 1244.5 -218 1224 -251.5 c 128,-1,47
 1203.5 -285 1203.5 -285 1167.5 -303 c 128,-1,48
 1131.5 -321 1131.5 -321 1085.5 -321 c 0,49,50
 1042.5 -321 1042.5 -321 1012 -309 c 128,-1,51
 981.5 -297 981.5 -297 962 -276.5 c 128,-1,52
 942.5 -256 942.5 -256 933 -231 c 128,-1,53
 923.5 -206 923.5 -206 923.5 -181 c 0,54,55
 923.5 -134 923.5 -134 946.5 -102 c 128,-1,56
 969.5 -70 969.5 -70 1003.5 -41 c 1,57,-1
 1070.5 -55 l 1,58,59
 1036.5 -80 1036.5 -80 1021 -108 c 128,-1,60
 1005.5 -136 1005.5 -136 1005.5 -168 c 0,61,62
 1005.5 -202 1005.5 -202 1024 -227 c 128,-1,63
 1042.5 -252 1042.5 -252 1087.5 -252 c 0,64,65
 1105.5 -252 1105.5 -252 1123 -244.5 c 128,-1,66
 1140.5 -237 1140.5 -237 1152 -220 c 128,-1,67
 1163.5 -203 1163.5 -203 1163.5 -173 c 256,68,69
 1163.5 -143 1163.5 -143 1151.5 -124.5 c 128,-1,70
 1139.5 -106 1139.5 -106 1119.5 -95.5 c 128,-1,71
 1099.5 -85 1099.5 -85 1076.5 -81 c 128,-1,72
 1053.5 -77 1053.5 -77 1031.5 -77 c 0,73,74
 1016.5 -77 1016.5 -77 1002 -78.5 c 128,-1,75
 987.5 -80 987.5 -80 973.5 -83 c 0,76,77
 950.5 -90 950.5 -90 929 -104.5 c 128,-1,78
 907.5 -119 907.5 -119 887.5 -139.5 c 128,-1,79
 867.5 -160 867.5 -160 847.5 -184 c 0,80,81
 814.5 -225 814.5 -225 778 -256 c 128,-1,82
 741.5 -287 741.5 -287 697.5 -304 c 128,-1,83
 653.5 -321 653.5 -321 595.5 -321 c 0,84,85
 513.5 -321 513.5 -321 461.5 -289.5 c 128,-1,86
 409.5 -258 409.5 -258 385.5 -206 c 128,-1,87
 361.5 -154 361.5 -154 361.5 -95 c 0,88,89
 361.5 -40 361.5 -40 380 -0.5 c 128,-1,90
 398.5 39 398.5 39 429.5 65 c 0,91,92
 464.5 94 464.5 94 511.5 109 c 128,-1,93
 558.5 124 558.5 124 614.5 129.5 c 128,-1,94
 670.5 135 670.5 135 730.5 135 c 2,95,-1
 819.5 135 l 2,96,97
 895.5 135 895.5 135 953.5 140 c 128,-1,98
 1011.5 145 1011.5 145 1053.5 158.5 c 128,-1,99
 1095.5 172 1095.5 172 1121.5 196 c 0,100,101
 1146.5 219 1146.5 219 1158 253 c 128,-1,102
 1169.5 287 1169.5 287 1169.5 334 c 0,103,104
 1169.5 387 1169.5 387 1150.5 422 c 128,-1,105
 1131.5 457 1131.5 457 1098.5 475 c 128,-1,106
 1065.5 493 1065.5 493 1024.5 493 c 0,107,108
 995.5 493 995.5 493 973 484.5 c 128,-1,109
 950.5 476 950.5 476 933.5 457 c 0,110,111
 914.5 434 914.5 434 906.5 403.5 c 128,-1,112
 898.5 373 898.5 373 898.5 319 c 2,113,-1
 898.5 205 l 1,114,-1
 811.5 205 l 1,115,-1
 811.5 293 l 2,116,117
 811.5 341 811.5 341 802 379 c 128,-1,118
 792.5 417 792.5 417 772 443 c 128,-1,119
 751.5 469 751.5 469 717.5 482.5 c 128,-1,120
 683.5 496 683.5 496 635.5 496 c 0,121,122
 604.5 496 604.5 496 587.5 493.5 c 128,-1,123
 570.5 491 570.5 491 550.5 484 c 2,124,-1
 515.5 470 l 2,125,126
 488.5 456 488.5 456 472 436.5 c 128,-1,127
 455.5 417 455.5 417 448 394.5 c 128,-1,128
 440.5 372 440.5 372 440.5 348 c 0,129,130
 440.5 305 440.5 305 462 278.5 c 128,-1,131
 483.5 252 483.5 252 532.5 252 c 0,132,133
 571.5 252 571.5 252 596 274 c 128,-1,134
 620.5 296 620.5 296 620.5 335 c 0,135,136
 620.5 370 620.5 370 602 395.5 c 128,-1,137
 583.5 421 583.5 421 551 434.5 c 128,-1,138
 518.5 448 518.5 448 476.5 448 c 1,139,-1
 540.5 494 l 1,140,141
 586.5 490 586.5 490 623 470.5 c 128,-1,142
 659.5 451 659.5 451 681 418.5 c 128,-1,143
 702.5 386 702.5 386 702.5 342 c 0,144,145
 702.5 270 702.5 270 656 227 c 128,-1,146
 609.5 184 609.5 184 533.5 184 c 0,147,148
 477.5 184 477.5 184 439 205.5 c 128,-1,149
 400.5 227 400.5 227 381 263.5 c 128,-1,150
 361.5 300 361.5 300 361.5 345 c 0,151,152
 361.5 415 361.5 415 398.5 464.5 c 128,-1,153
 435.5 514 435.5 514 497 540 c 128,-1,154
 558.5 566 558.5 566 629.5 566 c 0,0,1
EndSplineSet
EndChar

StartChar: at
Encoding: 64 64 93
Width: 1619
Flags: W
LayerCount: 2
Fore
SplineSet
1201 357 m 0,0,1
 1201 311 1201 311 1190.5 267 c 128,-1,2
 1180 223 1180 223 1158 187.5 c 128,-1,3
 1136 152 1136 152 1104 130.5 c 128,-1,4
 1072 109 1072 109 1028 109 c 0,5,6
 982 109 982 109 955.5 135.5 c 128,-1,7
 929 162 929 162 923 196 c 1,8,-1
 918 196 l 1,9,10
 900 159 900 159 865 134 c 128,-1,11
 830 109 830 109 777 109 c 0,12,13
 701 109 701 109 659.5 160 c 128,-1,14
 618 211 618 211 618 295 c 0,15,16
 618 361 618 361 644 411.5 c 128,-1,17
 670 462 670 462 717.5 491 c 128,-1,18
 765 520 765 520 830 520 c 0,19,20
 874 520 874 520 916.5 512.5 c 128,-1,21
 959 505 959 505 983 496 c 1,22,-1
 973 293 l 2,23,24
 972 275 972 275 972 267.5 c 128,-1,25
 972 260 972 260 972 257 c 0,26,27
 972 205 972 205 990.5 188 c 128,-1,28
 1009 171 1009 171 1034 171 c 0,29,30
 1065 171 1065 171 1086.5 196.5 c 128,-1,31
 1108 222 1108 222 1119.5 264.5 c 128,-1,32
 1131 307 1131 307 1131 358 c 0,33,34
 1131 451 1131 451 1093.5 515.5 c 128,-1,35
 1056 580 1056 580 990.5 614 c 128,-1,36
 925 648 925 648 842 648 c 0,37,38
 757 648 757 648 691 621 c 128,-1,39
 625 594 625 594 580.5 545 c 128,-1,40
 536 496 536 496 513 429.5 c 128,-1,41
 490 363 490 363 490 283 c 0,42,43
 490 185 490 185 525 116.5 c 128,-1,44
 560 48 560 48 627.5 12.5 c 128,-1,45
 695 -23 695 -23 793 -23 c 0,46,47
 854 -23 854 -23 909.5 -9.5 c 128,-1,48
 965 4 965 4 1008 20 c 1,49,-1
 1008 -48 l 1,50,51
 965 -66 965 -66 911.5 -77.5 c 128,-1,52
 858 -89 858 -89 793 -89 c 0,53,54
 675 -89 675 -89 591 -45 c 128,-1,55
 507 -1 507 -1 462.5 81.5 c 128,-1,56
 418 164 418 164 418 280 c 0,57,58
 418 373 418 373 447 452.5 c 128,-1,59
 476 532 476 532 531 590.5 c 128,-1,60
 586 649 586 649 664.5 681.5 c 128,-1,61
 743 714 743 714 842 714 c 0,62,63
 920 714 920 714 985.5 689.5 c 128,-1,64
 1051 665 1051 665 1099.5 618.5 c 128,-1,65
 1148 572 1148 572 1174.5 506 c 128,-1,66
 1201 440 1201 440 1201 357 c 0,0,1
696 293 m 0,67,68
 696 229 696 229 721.5 200 c 128,-1,69
 747 171 747 171 790 171 c 0,70,71
 846 171 846 171 870.5 213 c 128,-1,72
 895 255 895 255 899 322 c 2,73,-1
 905 447 l 1,74,75
 892 451 892 451 872 454 c 128,-1,76
 852 457 852 457 831 457 c 0,77,78
 782 457 782 457 752 433 c 128,-1,79
 722 409 722 409 709 371.5 c 128,-1,80
 696 334 696 334 696 293 c 0,67,68
EndSplineSet
EndChar

StartChar: ampersand
Encoding: 38 38 94
Width: 1619
Flags: W
LayerCount: 2
Fore
SplineSet
722 725 m 0,0,1
 776 725 776 725 814.5 706.5 c 128,-1,2
 853 688 853 688 874 654 c 128,-1,3
 895 620 895 620 895 571 c 0,4,5
 895 508 895 508 854.5 464 c 128,-1,6
 814 420 814 420 752 384 c 1,7,-1
 945 198 l 1,8,9
 971 229 971 229 987.5 269.5 c 128,-1,10
 1004 310 1004 310 1015 357 c 1,11,-1
 1104 357 l 1,12,13
 1088 293 1088 293 1064 238 c 128,-1,14
 1040 183 1040 183 1002 142 c 1,15,-1
 1148 0 l 1,16,-1
 1029 0 l 1,17,-1
 942 84 l 1,18,19
 911 56 911 56 875 35 c 128,-1,20
 839 14 839 14 795.5 2 c 128,-1,21
 752 -10 752 -10 696 -10 c 0,22,23
 627 -10 627 -10 576.5 12.5 c 128,-1,24
 526 35 526 35 498.5 79 c 128,-1,25
 471 123 471 123 471 186 c 0,26,27
 471 237 471 237 489.5 274 c 128,-1,28
 508 311 508 311 543 340 c 128,-1,29
 578 369 578 369 625 396 c 1,30,31
 604 420 604 420 584 446 c 128,-1,32
 564 472 564 472 551 502.5 c 128,-1,33
 538 533 538 533 538 569 c 0,34,35
 538 618 538 618 560 653 c 128,-1,36
 582 688 582 688 623.5 706.5 c 128,-1,37
 665 725 665 725 722 725 c 0,0,1
678 341 m 1,38,39
 642 320 642 320 616.5 298.5 c 128,-1,40
 591 277 591 277 577 251 c 128,-1,41
 563 225 563 225 563 189 c 0,42,43
 563 134 563 134 600 101 c 128,-1,44
 637 68 637 68 699 68 c 0,45,46
 763 68 763 68 809 89 c 128,-1,47
 855 110 855 110 886 139 c 1,48,-1
 678 341 l 1,38,39
719 653 m 0,49,50
 677 653 677 653 650.5 631 c 128,-1,51
 624 609 624 609 624 570 c 0,52,53
 624 534 624 534 643 503.5 c 128,-1,54
 662 473 662 473 698 436 c 1,55,56
 757 470 757 470 782.5 500.5 c 128,-1,57
 808 531 808 531 808 571 c 0,58,59
 808 607 808 607 784 630 c 128,-1,60
 760 653 760 653 719 653 c 0,49,50
EndSplineSet
EndChar

StartChar: dollar
Encoding: 36 36 95
Width: 1619
Flags: W
LayerCount: 2
Fore
SplineSet
773.5 49 m 1,0,1
 718.5 50 718.5 50 666.5 58.5 c 128,-1,2
 614.5 67 614.5 67 582.5 82 c 1,3,-1
 582.5 167 l 1,4,5
 616.5 151 616.5 151 669.5 139 c 128,-1,6
 722.5 127 722.5 127 773.5 126 c 1,7,-1
 773.5 328 l 1,8,9
 707.5 346 707.5 346 665.5 369.5 c 128,-1,10
 623.5 393 623.5 393 603 427 c 128,-1,11
 582.5 461 582.5 461 582.5 508 c 0,12,13
 582.5 557 582.5 557 606 592 c 128,-1,14
 629.5 627 629.5 627 672.5 647.5 c 128,-1,15
 715.5 668 715.5 668 773.5 671 c 1,16,-1
 773.5 759 l 1,17,-1
 837.5 759 l 1,18,-1
 837.5 672 l 1,19,20
 890.5 671 890.5 671 934 660.5 c 128,-1,21
 977.5 650 977.5 650 1013.5 635 c 1,22,-1
 986.5 561 l 1,23,24
 954.5 574 954.5 574 916 583.5 c 128,-1,25
 877.5 593 877.5 593 837.5 596 c 1,26,-1
 837.5 395 l 1,27,28
 903.5 376 903.5 376 947.5 354.5 c 128,-1,29
 991.5 333 991.5 333 1014 301.5 c 128,-1,30
 1036.5 270 1036.5 270 1036.5 220 c 0,31,32
 1036.5 150 1036.5 150 984.5 106.5 c 128,-1,33
 932.5 63 932.5 63 837.5 53 c 1,34,-1
 837.5 -58 l 1,35,-1
 773.5 -58 l 1,36,-1
 773.5 49 l 1,0,1
837.5 131 m 1,37,38
 896.5 137 896.5 137 923.5 158.5 c 128,-1,39
 950.5 180 950.5 180 950.5 214 c 0,40,41
 950.5 239 950.5 239 940.5 255.5 c 128,-1,42
 930.5 272 930.5 272 906 284 c 128,-1,43
 881.5 296 881.5 296 837.5 307 c 1,44,-1
 837.5 131 l 1,37,38
773.5 594 m 1,45,46
 737.5 592 737.5 592 714.5 581.5 c 128,-1,47
 691.5 571 691.5 571 680 554 c 128,-1,48
 668.5 537 668.5 537 668.5 515 c 0,49,50
 668.5 489 668.5 489 678 470.5 c 128,-1,51
 687.5 452 687.5 452 710.5 439.5 c 128,-1,52
 733.5 427 733.5 427 773.5 417 c 1,53,-1
 773.5 594 l 1,45,46
EndSplineSet
EndChar

StartChar: grave
Encoding: 96 96 96
Width: 1619
Flags: W
LayerCount: 2
Fore
SplineSet
814 766 m 1,0,1
 825 744 825 744 841.5 716.5 c 128,-1,2
 858 689 858 689 876.5 663 c 128,-1,3
 895 637 895 637 910 618 c 1,4,-1
 910 606 l 1,5,-1
 851 606 l 1,6,7
 834 620 834 620 813 639.5 c 128,-1,8
 792 659 792 659 771.5 680.5 c 128,-1,9
 751 702 751 702 734.5 722 c 128,-1,10
 718 742 718 742 709 756 c 1,11,-1
 709 766 l 1,12,-1
 814 766 l 1,0,1
EndSplineSet
EndChar

StartChar: uni0080
Encoding: 128 128 97
Width: 1619
Flags: W
LayerCount: 2
Fore
SplineSet
604 85 m 0,0,1
 604 103 604 103 619.5 118 c 128,-1,2
 635 133 635 133 663 144.5 c 128,-1,3
 691 156 691 156 728.5 162.5 c 128,-1,4
 766 169 766 169 809 169 c 0,5,6
 853 169 853 169 890.5 162.5 c 128,-1,7
 928 156 928 156 955.5 144.5 c 128,-1,8
 983 133 983 133 999 118 c 128,-1,9
 1015 103 1015 103 1015 85 c 0,10,11
 1015 68 1015 68 999 53 c 128,-1,12
 983 38 983 38 955.5 27 c 128,-1,13
 928 16 928 16 890.5 9.5 c 128,-1,14
 853 3 853 3 809 3 c 0,15,16
 766 3 766 3 728.5 9.5 c 128,-1,17
 691 16 691 16 663 27 c 128,-1,18
 635 38 635 38 619.5 53 c 128,-1,19
 604 68 604 68 604 85 c 0,0,1
684 85 m 256,20,21
 684 74 684 74 693.5 64.5 c 128,-1,22
 703 55 703 55 720 48.5 c 128,-1,23
 737 42 737 42 760 38 c 128,-1,24
 783 34 783 34 809 34 c 0,25,26
 836 34 836 34 858.5 38 c 128,-1,27
 881 42 881 42 898 48.5 c 128,-1,28
 915 55 915 55 924.5 64.5 c 128,-1,29
 934 74 934 74 934 85 c 256,30,31
 934 96 934 96 924.5 105.5 c 128,-1,32
 915 115 915 115 898 122 c 128,-1,33
 881 129 881 129 858.5 133 c 128,-1,34
 836 137 836 137 809 137 c 0,35,36
 783 137 783 137 760 133 c 128,-1,37
 737 129 737 129 720 122 c 128,-1,38
 703 115 703 115 693.5 105.5 c 128,-1,39
 684 96 684 96 684 85 c 256,20,21
604 272 m 0,40,41
 604 290 604 290 619.5 305 c 128,-1,42
 635 320 635 320 663 331.5 c 128,-1,43
 691 343 691 343 728.5 349 c 128,-1,44
 766 355 766 355 809 355 c 0,45,46
 853 355 853 355 890.5 349 c 128,-1,47
 928 343 928 343 955.5 331.5 c 128,-1,48
 983 320 983 320 999 305 c 128,-1,49
 1015 290 1015 290 1015 272 c 0,50,51
 1015 255 1015 255 999 240 c 128,-1,52
 983 225 983 225 955.5 214 c 128,-1,53
 928 203 928 203 890.5 196 c 128,-1,54
 853 189 853 189 809 189 c 0,55,56
 766 189 766 189 728.5 196 c 128,-1,57
 691 203 691 203 663 214 c 128,-1,58
 635 225 635 225 619.5 240 c 128,-1,59
 604 255 604 255 604 272 c 0,40,41
684 272 m 256,60,61
 684 261 684 261 693.5 251.5 c 128,-1,62
 703 242 703 242 720 235 c 128,-1,63
 737 228 737 228 760 224 c 128,-1,64
 783 220 783 220 809 220 c 0,65,66
 836 220 836 220 858.5 224 c 128,-1,67
 881 228 881 228 898 235 c 128,-1,68
 915 242 915 242 924.5 251.5 c 128,-1,69
 934 261 934 261 934 272 c 256,70,71
 934 283 934 283 924.5 292.5 c 128,-1,72
 915 302 915 302 898 309 c 128,-1,73
 881 316 881 316 858.5 320 c 128,-1,74
 836 324 836 324 809 324 c 0,75,76
 783 324 783 324 760 320 c 128,-1,77
 737 316 737 316 720 309 c 128,-1,78
 703 302 703 302 693.5 292.5 c 128,-1,79
 684 283 684 283 684 272 c 256,60,61
604 461 m 256,80,81
 604 478 604 478 619.5 493.5 c 128,-1,82
 635 509 635 509 663 520 c 128,-1,83
 691 531 691 531 728.5 537.5 c 128,-1,84
 766 544 766 544 809 544 c 0,85,86
 853 544 853 544 890.5 537.5 c 128,-1,87
 928 531 928 531 955.5 520 c 128,-1,88
 983 509 983 509 999 493.5 c 128,-1,89
 1015 478 1015 478 1015 461 c 256,90,91
 1015 444 1015 444 999 429 c 128,-1,92
 983 414 983 414 955.5 402.5 c 128,-1,93
 928 391 928 391 890.5 384.5 c 128,-1,94
 853 378 853 378 809 378 c 0,95,96
 766 378 766 378 728.5 384.5 c 128,-1,97
 691 391 691 391 663 402.5 c 128,-1,98
 635 414 635 414 619.5 429 c 128,-1,99
 604 444 604 444 604 461 c 256,80,81
684 461 m 256,100,101
 684 450 684 450 693.5 440.5 c 128,-1,102
 703 431 703 431 720 424 c 128,-1,103
 737 417 737 417 760 413 c 128,-1,104
 783 409 783 409 809 409 c 0,105,106
 836 409 836 409 858.5 413 c 128,-1,107
 881 417 881 417 898 424 c 128,-1,108
 915 431 915 431 924.5 440.5 c 128,-1,109
 934 450 934 450 934 461 c 256,110,111
 934 472 934 472 924.5 481.5 c 128,-1,112
 915 491 915 491 898 498 c 128,-1,113
 881 505 881 505 858.5 509 c 128,-1,114
 836 513 836 513 809 513 c 0,115,116
 783 513 783 513 760 509 c 128,-1,117
 737 505 737 505 720 498 c 128,-1,118
 703 491 703 491 693.5 481.5 c 128,-1,119
 684 472 684 472 684 461 c 256,100,101
604 648 m 256,120,121
 604 665 604 665 619.5 680.5 c 128,-1,122
 635 696 635 696 663 707 c 128,-1,123
 691 718 691 718 728.5 724.5 c 128,-1,124
 766 731 766 731 809 731 c 0,125,126
 853 731 853 731 890.5 724.5 c 128,-1,127
 928 718 928 718 955.5 707 c 128,-1,128
 983 696 983 696 999 680.5 c 128,-1,129
 1015 665 1015 665 1015 648 c 256,130,131
 1015 631 1015 631 999 616 c 128,-1,132
 983 601 983 601 955.5 589.5 c 128,-1,133
 928 578 928 578 890.5 571.5 c 128,-1,134
 853 565 853 565 809 565 c 0,135,136
 766 565 766 565 728.5 571.5 c 128,-1,137
 691 578 691 578 663 589.5 c 128,-1,138
 635 601 635 601 619.5 616 c 128,-1,139
 604 631 604 631 604 648 c 256,120,121
684 648 m 0,140,141
 684 637 684 637 693.5 627.5 c 128,-1,142
 703 618 703 618 720 611 c 128,-1,143
 737 604 737 604 760 600 c 128,-1,144
 783 596 783 596 809 596 c 0,145,146
 836 596 836 596 858.5 600 c 128,-1,147
 881 604 881 604 898 611 c 128,-1,148
 915 618 915 618 924.5 627.5 c 128,-1,149
 934 637 934 637 934 648 c 0,150,151
 934 658 934 658 924.5 668 c 128,-1,152
 915 678 915 678 898 685 c 128,-1,153
 881 692 881 692 858.5 696 c 128,-1,154
 836 700 836 700 809 700 c 0,155,156
 783 700 783 700 760 696 c 128,-1,157
 737 692 737 692 720 685 c 128,-1,158
 703 678 703 678 693.5 668 c 128,-1,159
 684 658 684 658 684 648 c 0,140,141
EndSplineSet
EndChar

StartChar: uni0081
Encoding: 129 129 98
Width: 1619
Flags: W
LayerCount: 2
Fore
SplineSet
604 85 m 0,0,1
 604 103 604 103 619.5 118 c 128,-1,2
 635 133 635 133 663 144.5 c 128,-1,3
 691 156 691 156 728.5 162.5 c 128,-1,4
 766 169 766 169 809 169 c 0,5,6
 853 169 853 169 890.5 162.5 c 128,-1,7
 928 156 928 156 955.5 144.5 c 128,-1,8
 983 133 983 133 999 118 c 128,-1,9
 1015 103 1015 103 1015 85 c 0,10,11
 1015 68 1015 68 999 53 c 128,-1,12
 983 38 983 38 955.5 27 c 128,-1,13
 928 16 928 16 890.5 9.5 c 128,-1,14
 853 3 853 3 809 3 c 0,15,16
 766 3 766 3 728.5 9.5 c 128,-1,17
 691 16 691 16 663 27 c 128,-1,18
 635 38 635 38 619.5 53 c 128,-1,19
 604 68 604 68 604 85 c 0,0,1
604 272 m 0,20,21
 604 290 604 290 619.5 305 c 128,-1,22
 635 320 635 320 663 331.5 c 128,-1,23
 691 343 691 343 728.5 349 c 128,-1,24
 766 355 766 355 809 355 c 0,25,26
 853 355 853 355 890.5 349 c 128,-1,27
 928 343 928 343 955.5 331.5 c 128,-1,28
 983 320 983 320 999 305 c 128,-1,29
 1015 290 1015 290 1015 272 c 0,30,31
 1015 255 1015 255 999 240 c 128,-1,32
 983 225 983 225 955.5 214 c 128,-1,33
 928 203 928 203 890.5 196 c 128,-1,34
 853 189 853 189 809 189 c 0,35,36
 766 189 766 189 728.5 196 c 128,-1,37
 691 203 691 203 663 214 c 128,-1,38
 635 225 635 225 619.5 240 c 128,-1,39
 604 255 604 255 604 272 c 0,20,21
684 272 m 256,40,41
 684 261 684 261 693.5 251.5 c 128,-1,42
 703 242 703 242 720 235 c 128,-1,43
 737 228 737 228 760 224 c 128,-1,44
 783 220 783 220 809 220 c 0,45,46
 836 220 836 220 858.5 224 c 128,-1,47
 881 228 881 228 898 235 c 128,-1,48
 915 242 915 242 924.5 251.5 c 128,-1,49
 934 261 934 261 934 272 c 256,50,51
 934 283 934 283 924.5 292.5 c 128,-1,52
 915 302 915 302 898 309 c 128,-1,53
 881 316 881 316 858.5 320 c 128,-1,54
 836 324 836 324 809 324 c 0,55,56
 783 324 783 324 760 320 c 128,-1,57
 737 316 737 316 720 309 c 128,-1,58
 703 302 703 302 693.5 292.5 c 128,-1,59
 684 283 684 283 684 272 c 256,40,41
604 461 m 256,60,61
 604 478 604 478 619.5 493.5 c 128,-1,62
 635 509 635 509 663 520 c 128,-1,63
 691 531 691 531 728.5 537.5 c 128,-1,64
 766 544 766 544 809 544 c 0,65,66
 853 544 853 544 890.5 537.5 c 128,-1,67
 928 531 928 531 955.5 520 c 128,-1,68
 983 509 983 509 999 493.5 c 128,-1,69
 1015 478 1015 478 1015 461 c 256,70,71
 1015 444 1015 444 999 429 c 128,-1,72
 983 414 983 414 955.5 402.5 c 128,-1,73
 928 391 928 391 890.5 384.5 c 128,-1,74
 853 378 853 378 809 378 c 0,75,76
 766 378 766 378 728.5 384.5 c 128,-1,77
 691 391 691 391 663 402.5 c 128,-1,78
 635 414 635 414 619.5 429 c 128,-1,79
 604 444 604 444 604 461 c 256,60,61
684 461 m 256,80,81
 684 450 684 450 693.5 440.5 c 128,-1,82
 703 431 703 431 720 424 c 128,-1,83
 737 417 737 417 760 413 c 128,-1,84
 783 409 783 409 809 409 c 0,85,86
 836 409 836 409 858.5 413 c 128,-1,87
 881 417 881 417 898 424 c 128,-1,88
 915 431 915 431 924.5 440.5 c 128,-1,89
 934 450 934 450 934 461 c 256,90,91
 934 472 934 472 924.5 481.5 c 128,-1,92
 915 491 915 491 898 498 c 128,-1,93
 881 505 881 505 858.5 509 c 128,-1,94
 836 513 836 513 809 513 c 0,95,96
 783 513 783 513 760 509 c 128,-1,97
 737 505 737 505 720 498 c 128,-1,98
 703 491 703 491 693.5 481.5 c 128,-1,99
 684 472 684 472 684 461 c 256,80,81
604 648 m 256,100,101
 604 665 604 665 619.5 680.5 c 128,-1,102
 635 696 635 696 663 707 c 128,-1,103
 691 718 691 718 728.5 724.5 c 128,-1,104
 766 731 766 731 809 731 c 0,105,106
 853 731 853 731 890.5 724.5 c 128,-1,107
 928 718 928 718 955.5 707 c 128,-1,108
 983 696 983 696 999 680.5 c 128,-1,109
 1015 665 1015 665 1015 648 c 256,110,111
 1015 631 1015 631 999 616 c 128,-1,112
 983 601 983 601 955.5 589.5 c 128,-1,113
 928 578 928 578 890.5 571.5 c 128,-1,114
 853 565 853 565 809 565 c 0,115,116
 766 565 766 565 728.5 571.5 c 128,-1,117
 691 578 691 578 663 589.5 c 128,-1,118
 635 601 635 601 619.5 616 c 128,-1,119
 604 631 604 631 604 648 c 256,100,101
684 648 m 0,120,121
 684 637 684 637 693.5 627.5 c 128,-1,122
 703 618 703 618 720 611 c 128,-1,123
 737 604 737 604 760 600 c 128,-1,124
 783 596 783 596 809 596 c 0,125,126
 836 596 836 596 858.5 600 c 128,-1,127
 881 604 881 604 898 611 c 128,-1,128
 915 618 915 618 924.5 627.5 c 128,-1,129
 934 637 934 637 934 648 c 0,130,131
 934 658 934 658 924.5 668 c 128,-1,132
 915 678 915 678 898 685 c 128,-1,133
 881 692 881 692 858.5 696 c 128,-1,134
 836 700 836 700 809 700 c 0,135,136
 783 700 783 700 760 696 c 128,-1,137
 737 692 737 692 720 685 c 128,-1,138
 703 678 703 678 693.5 668 c 128,-1,139
 684 658 684 658 684 648 c 0,120,121
EndSplineSet
EndChar

StartChar: uni0082
Encoding: 130 130 99
Width: 1619
Flags: W
LayerCount: 2
Fore
SplineSet
604 85 m 0,0,1
 604 103 604 103 619.5 118 c 128,-1,2
 635 133 635 133 663 144.5 c 128,-1,3
 691 156 691 156 728.5 162.5 c 128,-1,4
 766 169 766 169 809 169 c 0,5,6
 853 169 853 169 890.5 162.5 c 128,-1,7
 928 156 928 156 955.5 144.5 c 128,-1,8
 983 133 983 133 999 118 c 128,-1,9
 1015 103 1015 103 1015 85 c 0,10,11
 1015 68 1015 68 999 53 c 128,-1,12
 983 38 983 38 955.5 27 c 128,-1,13
 928 16 928 16 890.5 9.5 c 128,-1,14
 853 3 853 3 809 3 c 0,15,16
 766 3 766 3 728.5 9.5 c 128,-1,17
 691 16 691 16 663 27 c 128,-1,18
 635 38 635 38 619.5 53 c 128,-1,19
 604 68 604 68 604 85 c 0,0,1
684 85 m 256,20,21
 684 74 684 74 693.5 64.5 c 128,-1,22
 703 55 703 55 720 48.5 c 128,-1,23
 737 42 737 42 760 38 c 128,-1,24
 783 34 783 34 809 34 c 0,25,26
 836 34 836 34 858.5 38 c 128,-1,27
 881 42 881 42 898 48.5 c 128,-1,28
 915 55 915 55 924.5 64.5 c 128,-1,29
 934 74 934 74 934 85 c 256,30,31
 934 96 934 96 924.5 105.5 c 128,-1,32
 915 115 915 115 898 122 c 128,-1,33
 881 129 881 129 858.5 133 c 128,-1,34
 836 137 836 137 809 137 c 0,35,36
 783 137 783 137 760 133 c 128,-1,37
 737 129 737 129 720 122 c 128,-1,38
 703 115 703 115 693.5 105.5 c 128,-1,39
 684 96 684 96 684 85 c 256,20,21
604 272 m 0,40,41
 604 290 604 290 619.5 305 c 128,-1,42
 635 320 635 320 663 331.5 c 128,-1,43
 691 343 691 343 728.5 349 c 128,-1,44
 766 355 766 355 809 355 c 0,45,46
 853 355 853 355 890.5 349 c 128,-1,47
 928 343 928 343 955.5 331.5 c 128,-1,48
 983 320 983 320 999 305 c 128,-1,49
 1015 290 1015 290 1015 272 c 0,50,51
 1015 255 1015 255 999 240 c 128,-1,52
 983 225 983 225 955.5 214 c 128,-1,53
 928 203 928 203 890.5 196 c 128,-1,54
 853 189 853 189 809 189 c 0,55,56
 766 189 766 189 728.5 196 c 128,-1,57
 691 203 691 203 663 214 c 128,-1,58
 635 225 635 225 619.5 240 c 128,-1,59
 604 255 604 255 604 272 c 0,40,41
604 461 m 256,60,61
 604 478 604 478 619.5 493.5 c 128,-1,62
 635 509 635 509 663 520 c 128,-1,63
 691 531 691 531 728.5 537.5 c 128,-1,64
 766 544 766 544 809 544 c 0,65,66
 853 544 853 544 890.5 537.5 c 128,-1,67
 928 531 928 531 955.5 520 c 128,-1,68
 983 509 983 509 999 493.5 c 128,-1,69
 1015 478 1015 478 1015 461 c 256,70,71
 1015 444 1015 444 999 429 c 128,-1,72
 983 414 983 414 955.5 402.5 c 128,-1,73
 928 391 928 391 890.5 384.5 c 128,-1,74
 853 378 853 378 809 378 c 0,75,76
 766 378 766 378 728.5 384.5 c 128,-1,77
 691 391 691 391 663 402.5 c 128,-1,78
 635 414 635 414 619.5 429 c 128,-1,79
 604 444 604 444 604 461 c 256,60,61
684 461 m 256,80,81
 684 450 684 450 693.5 440.5 c 128,-1,82
 703 431 703 431 720 424 c 128,-1,83
 737 417 737 417 760 413 c 128,-1,84
 783 409 783 409 809 409 c 0,85,86
 836 409 836 409 858.5 413 c 128,-1,87
 881 417 881 417 898 424 c 128,-1,88
 915 431 915 431 924.5 440.5 c 128,-1,89
 934 450 934 450 934 461 c 256,90,91
 934 472 934 472 924.5 481.5 c 128,-1,92
 915 491 915 491 898 498 c 128,-1,93
 881 505 881 505 858.5 509 c 128,-1,94
 836 513 836 513 809 513 c 0,95,96
 783 513 783 513 760 509 c 128,-1,97
 737 505 737 505 720 498 c 128,-1,98
 703 491 703 491 693.5 481.5 c 128,-1,99
 684 472 684 472 684 461 c 256,80,81
604 648 m 256,100,101
 604 665 604 665 619.5 680.5 c 128,-1,102
 635 696 635 696 663 707 c 128,-1,103
 691 718 691 718 728.5 724.5 c 128,-1,104
 766 731 766 731 809 731 c 0,105,106
 853 731 853 731 890.5 724.5 c 128,-1,107
 928 718 928 718 955.5 707 c 128,-1,108
 983 696 983 696 999 680.5 c 128,-1,109
 1015 665 1015 665 1015 648 c 256,110,111
 1015 631 1015 631 999 616 c 128,-1,112
 983 601 983 601 955.5 589.5 c 128,-1,113
 928 578 928 578 890.5 571.5 c 128,-1,114
 853 565 853 565 809 565 c 0,115,116
 766 565 766 565 728.5 571.5 c 128,-1,117
 691 578 691 578 663 589.5 c 128,-1,118
 635 601 635 601 619.5 616 c 128,-1,119
 604 631 604 631 604 648 c 256,100,101
684 648 m 0,120,121
 684 637 684 637 693.5 627.5 c 128,-1,122
 703 618 703 618 720 611 c 128,-1,123
 737 604 737 604 760 600 c 128,-1,124
 783 596 783 596 809 596 c 0,125,126
 836 596 836 596 858.5 600 c 128,-1,127
 881 604 881 604 898 611 c 128,-1,128
 915 618 915 618 924.5 627.5 c 128,-1,129
 934 637 934 637 934 648 c 0,130,131
 934 658 934 658 924.5 668 c 128,-1,132
 915 678 915 678 898 685 c 128,-1,133
 881 692 881 692 858.5 696 c 128,-1,134
 836 700 836 700 809 700 c 0,135,136
 783 700 783 700 760 696 c 128,-1,137
 737 692 737 692 720 685 c 128,-1,138
 703 678 703 678 693.5 668 c 128,-1,139
 684 658 684 658 684 648 c 0,120,121
EndSplineSet
EndChar

StartChar: uni0083
Encoding: 131 131 100
Width: 1619
Flags: W
LayerCount: 2
Fore
SplineSet
604 85 m 0,0,1
 604 103 604 103 619.5 118 c 128,-1,2
 635 133 635 133 663 144.5 c 128,-1,3
 691 156 691 156 728.5 162.5 c 128,-1,4
 766 169 766 169 809 169 c 0,5,6
 853 169 853 169 890.5 162.5 c 128,-1,7
 928 156 928 156 955.5 144.5 c 128,-1,8
 983 133 983 133 999 118 c 128,-1,9
 1015 103 1015 103 1015 85 c 0,10,11
 1015 68 1015 68 999 53 c 128,-1,12
 983 38 983 38 955.5 27 c 128,-1,13
 928 16 928 16 890.5 9.5 c 128,-1,14
 853 3 853 3 809 3 c 0,15,16
 766 3 766 3 728.5 9.5 c 128,-1,17
 691 16 691 16 663 27 c 128,-1,18
 635 38 635 38 619.5 53 c 128,-1,19
 604 68 604 68 604 85 c 0,0,1
604 272 m 0,20,21
 604 290 604 290 619.5 305 c 128,-1,22
 635 320 635 320 663 331.5 c 128,-1,23
 691 343 691 343 728.5 349 c 128,-1,24
 766 355 766 355 809 355 c 0,25,26
 853 355 853 355 890.5 349 c 128,-1,27
 928 343 928 343 955.5 331.5 c 128,-1,28
 983 320 983 320 999 305 c 128,-1,29
 1015 290 1015 290 1015 272 c 0,30,31
 1015 255 1015 255 999 240 c 128,-1,32
 983 225 983 225 955.5 214 c 128,-1,33
 928 203 928 203 890.5 196 c 128,-1,34
 853 189 853 189 809 189 c 0,35,36
 766 189 766 189 728.5 196 c 128,-1,37
 691 203 691 203 663 214 c 128,-1,38
 635 225 635 225 619.5 240 c 128,-1,39
 604 255 604 255 604 272 c 0,20,21
604 461 m 256,40,41
 604 478 604 478 619.5 493.5 c 128,-1,42
 635 509 635 509 663 520 c 128,-1,43
 691 531 691 531 728.5 537.5 c 128,-1,44
 766 544 766 544 809 544 c 0,45,46
 853 544 853 544 890.5 537.5 c 128,-1,47
 928 531 928 531 955.5 520 c 128,-1,48
 983 509 983 509 999 493.5 c 128,-1,49
 1015 478 1015 478 1015 461 c 256,50,51
 1015 444 1015 444 999 429 c 128,-1,52
 983 414 983 414 955.5 402.5 c 128,-1,53
 928 391 928 391 890.5 384.5 c 128,-1,54
 853 378 853 378 809 378 c 0,55,56
 766 378 766 378 728.5 384.5 c 128,-1,57
 691 391 691 391 663 402.5 c 128,-1,58
 635 414 635 414 619.5 429 c 128,-1,59
 604 444 604 444 604 461 c 256,40,41
684 461 m 256,60,61
 684 450 684 450 693.5 440.5 c 128,-1,62
 703 431 703 431 720 424 c 128,-1,63
 737 417 737 417 760 413 c 128,-1,64
 783 409 783 409 809 409 c 0,65,66
 836 409 836 409 858.5 413 c 128,-1,67
 881 417 881 417 898 424 c 128,-1,68
 915 431 915 431 924.5 440.5 c 128,-1,69
 934 450 934 450 934 461 c 256,70,71
 934 472 934 472 924.5 481.5 c 128,-1,72
 915 491 915 491 898 498 c 128,-1,73
 881 505 881 505 858.5 509 c 128,-1,74
 836 513 836 513 809 513 c 0,75,76
 783 513 783 513 760 509 c 128,-1,77
 737 505 737 505 720 498 c 128,-1,78
 703 491 703 491 693.5 481.5 c 128,-1,79
 684 472 684 472 684 461 c 256,60,61
604 648 m 256,80,81
 604 665 604 665 619.5 680.5 c 128,-1,82
 635 696 635 696 663 707 c 128,-1,83
 691 718 691 718 728.5 724.5 c 128,-1,84
 766 731 766 731 809 731 c 0,85,86
 853 731 853 731 890.5 724.5 c 128,-1,87
 928 718 928 718 955.5 707 c 128,-1,88
 983 696 983 696 999 680.5 c 128,-1,89
 1015 665 1015 665 1015 648 c 256,90,91
 1015 631 1015 631 999 616 c 128,-1,92
 983 601 983 601 955.5 589.5 c 128,-1,93
 928 578 928 578 890.5 571.5 c 128,-1,94
 853 565 853 565 809 565 c 0,95,96
 766 565 766 565 728.5 571.5 c 128,-1,97
 691 578 691 578 663 589.5 c 128,-1,98
 635 601 635 601 619.5 616 c 128,-1,99
 604 631 604 631 604 648 c 256,80,81
684 648 m 0,100,101
 684 637 684 637 693.5 627.5 c 128,-1,102
 703 618 703 618 720 611 c 128,-1,103
 737 604 737 604 760 600 c 128,-1,104
 783 596 783 596 809 596 c 0,105,106
 836 596 836 596 858.5 600 c 128,-1,107
 881 604 881 604 898 611 c 128,-1,108
 915 618 915 618 924.5 627.5 c 128,-1,109
 934 637 934 637 934 648 c 0,110,111
 934 658 934 658 924.5 668 c 128,-1,112
 915 678 915 678 898 685 c 128,-1,113
 881 692 881 692 858.5 696 c 128,-1,114
 836 700 836 700 809 700 c 0,115,116
 783 700 783 700 760 696 c 128,-1,117
 737 692 737 692 720 685 c 128,-1,118
 703 678 703 678 693.5 668 c 128,-1,119
 684 658 684 658 684 648 c 0,100,101
EndSplineSet
EndChar

StartChar: uni0084
Encoding: 132 132 101
Width: 1619
Flags: W
LayerCount: 2
Fore
SplineSet
604 85 m 0,0,1
 604 103 604 103 619.5 118 c 128,-1,2
 635 133 635 133 663 144.5 c 128,-1,3
 691 156 691 156 728.5 162.5 c 128,-1,4
 766 169 766 169 809 169 c 0,5,6
 853 169 853 169 890.5 162.5 c 128,-1,7
 928 156 928 156 955.5 144.5 c 128,-1,8
 983 133 983 133 999 118 c 128,-1,9
 1015 103 1015 103 1015 85 c 0,10,11
 1015 68 1015 68 999 53 c 128,-1,12
 983 38 983 38 955.5 27 c 128,-1,13
 928 16 928 16 890.5 9.5 c 128,-1,14
 853 3 853 3 809 3 c 0,15,16
 766 3 766 3 728.5 9.5 c 128,-1,17
 691 16 691 16 663 27 c 128,-1,18
 635 38 635 38 619.5 53 c 128,-1,19
 604 68 604 68 604 85 c 0,0,1
684 85 m 256,20,21
 684 74 684 74 693.5 64.5 c 128,-1,22
 703 55 703 55 720 48.5 c 128,-1,23
 737 42 737 42 760 38 c 128,-1,24
 783 34 783 34 809 34 c 0,25,26
 836 34 836 34 858.5 38 c 128,-1,27
 881 42 881 42 898 48.5 c 128,-1,28
 915 55 915 55 924.5 64.5 c 128,-1,29
 934 74 934 74 934 85 c 256,30,31
 934 96 934 96 924.5 105.5 c 128,-1,32
 915 115 915 115 898 122 c 128,-1,33
 881 129 881 129 858.5 133 c 128,-1,34
 836 137 836 137 809 137 c 0,35,36
 783 137 783 137 760 133 c 128,-1,37
 737 129 737 129 720 122 c 128,-1,38
 703 115 703 115 693.5 105.5 c 128,-1,39
 684 96 684 96 684 85 c 256,20,21
604 272 m 0,40,41
 604 290 604 290 619.5 305 c 128,-1,42
 635 320 635 320 663 331.5 c 128,-1,43
 691 343 691 343 728.5 349 c 128,-1,44
 766 355 766 355 809 355 c 0,45,46
 853 355 853 355 890.5 349 c 128,-1,47
 928 343 928 343 955.5 331.5 c 128,-1,48
 983 320 983 320 999 305 c 128,-1,49
 1015 290 1015 290 1015 272 c 0,50,51
 1015 255 1015 255 999 240 c 128,-1,52
 983 225 983 225 955.5 214 c 128,-1,53
 928 203 928 203 890.5 196 c 128,-1,54
 853 189 853 189 809 189 c 0,55,56
 766 189 766 189 728.5 196 c 128,-1,57
 691 203 691 203 663 214 c 128,-1,58
 635 225 635 225 619.5 240 c 128,-1,59
 604 255 604 255 604 272 c 0,40,41
684 272 m 256,60,61
 684 261 684 261 693.5 251.5 c 128,-1,62
 703 242 703 242 720 235 c 128,-1,63
 737 228 737 228 760 224 c 128,-1,64
 783 220 783 220 809 220 c 0,65,66
 836 220 836 220 858.5 224 c 128,-1,67
 881 228 881 228 898 235 c 128,-1,68
 915 242 915 242 924.5 251.5 c 128,-1,69
 934 261 934 261 934 272 c 256,70,71
 934 283 934 283 924.5 292.5 c 128,-1,72
 915 302 915 302 898 309 c 128,-1,73
 881 316 881 316 858.5 320 c 128,-1,74
 836 324 836 324 809 324 c 0,75,76
 783 324 783 324 760 320 c 128,-1,77
 737 316 737 316 720 309 c 128,-1,78
 703 302 703 302 693.5 292.5 c 128,-1,79
 684 283 684 283 684 272 c 256,60,61
604 461 m 256,80,81
 604 478 604 478 619.5 493.5 c 128,-1,82
 635 509 635 509 663 520 c 128,-1,83
 691 531 691 531 728.5 537.5 c 128,-1,84
 766 544 766 544 809 544 c 0,85,86
 853 544 853 544 890.5 537.5 c 128,-1,87
 928 531 928 531 955.5 520 c 128,-1,88
 983 509 983 509 999 493.5 c 128,-1,89
 1015 478 1015 478 1015 461 c 256,90,91
 1015 444 1015 444 999 429 c 128,-1,92
 983 414 983 414 955.5 402.5 c 128,-1,93
 928 391 928 391 890.5 384.5 c 128,-1,94
 853 378 853 378 809 378 c 0,95,96
 766 378 766 378 728.5 384.5 c 128,-1,97
 691 391 691 391 663 402.5 c 128,-1,98
 635 414 635 414 619.5 429 c 128,-1,99
 604 444 604 444 604 461 c 256,80,81
604 648 m 256,100,101
 604 665 604 665 619.5 680.5 c 128,-1,102
 635 696 635 696 663 707 c 128,-1,103
 691 718 691 718 728.5 724.5 c 128,-1,104
 766 731 766 731 809 731 c 0,105,106
 853 731 853 731 890.5 724.5 c 128,-1,107
 928 718 928 718 955.5 707 c 128,-1,108
 983 696 983 696 999 680.5 c 128,-1,109
 1015 665 1015 665 1015 648 c 256,110,111
 1015 631 1015 631 999 616 c 128,-1,112
 983 601 983 601 955.5 589.5 c 128,-1,113
 928 578 928 578 890.5 571.5 c 128,-1,114
 853 565 853 565 809 565 c 0,115,116
 766 565 766 565 728.5 571.5 c 128,-1,117
 691 578 691 578 663 589.5 c 128,-1,118
 635 601 635 601 619.5 616 c 128,-1,119
 604 631 604 631 604 648 c 256,100,101
684 648 m 0,120,121
 684 637 684 637 693.5 627.5 c 128,-1,122
 703 618 703 618 720 611 c 128,-1,123
 737 604 737 604 760 600 c 128,-1,124
 783 596 783 596 809 596 c 0,125,126
 836 596 836 596 858.5 600 c 128,-1,127
 881 604 881 604 898 611 c 128,-1,128
 915 618 915 618 924.5 627.5 c 128,-1,129
 934 637 934 637 934 648 c 0,130,131
 934 658 934 658 924.5 668 c 128,-1,132
 915 678 915 678 898 685 c 128,-1,133
 881 692 881 692 858.5 696 c 128,-1,134
 836 700 836 700 809 700 c 0,135,136
 783 700 783 700 760 696 c 128,-1,137
 737 692 737 692 720 685 c 128,-1,138
 703 678 703 678 693.5 668 c 128,-1,139
 684 658 684 658 684 648 c 0,120,121
EndSplineSet
EndChar

StartChar: uni0085
Encoding: 133 133 102
Width: 1619
Flags: W
LayerCount: 2
Fore
SplineSet
604 85 m 0,0,1
 604 103 604 103 619.5 118 c 128,-1,2
 635 133 635 133 663 144.5 c 128,-1,3
 691 156 691 156 728.5 162.5 c 128,-1,4
 766 169 766 169 809 169 c 0,5,6
 853 169 853 169 890.5 162.5 c 128,-1,7
 928 156 928 156 955.5 144.5 c 128,-1,8
 983 133 983 133 999 118 c 128,-1,9
 1015 103 1015 103 1015 85 c 0,10,11
 1015 68 1015 68 999 53 c 128,-1,12
 983 38 983 38 955.5 27 c 128,-1,13
 928 16 928 16 890.5 9.5 c 128,-1,14
 853 3 853 3 809 3 c 0,15,16
 766 3 766 3 728.5 9.5 c 128,-1,17
 691 16 691 16 663 27 c 128,-1,18
 635 38 635 38 619.5 53 c 128,-1,19
 604 68 604 68 604 85 c 0,0,1
604 272 m 0,20,21
 604 290 604 290 619.5 305 c 128,-1,22
 635 320 635 320 663 331.5 c 128,-1,23
 691 343 691 343 728.5 349 c 128,-1,24
 766 355 766 355 809 355 c 0,25,26
 853 355 853 355 890.5 349 c 128,-1,27
 928 343 928 343 955.5 331.5 c 128,-1,28
 983 320 983 320 999 305 c 128,-1,29
 1015 290 1015 290 1015 272 c 0,30,31
 1015 255 1015 255 999 240 c 128,-1,32
 983 225 983 225 955.5 214 c 128,-1,33
 928 203 928 203 890.5 196 c 128,-1,34
 853 189 853 189 809 189 c 0,35,36
 766 189 766 189 728.5 196 c 128,-1,37
 691 203 691 203 663 214 c 128,-1,38
 635 225 635 225 619.5 240 c 128,-1,39
 604 255 604 255 604 272 c 0,20,21
684 272 m 256,40,41
 684 261 684 261 693.5 251.5 c 128,-1,42
 703 242 703 242 720 235 c 128,-1,43
 737 228 737 228 760 224 c 128,-1,44
 783 220 783 220 809 220 c 0,45,46
 836 220 836 220 858.5 224 c 128,-1,47
 881 228 881 228 898 235 c 128,-1,48
 915 242 915 242 924.5 251.5 c 128,-1,49
 934 261 934 261 934 272 c 256,50,51
 934 283 934 283 924.5 292.5 c 128,-1,52
 915 302 915 302 898 309 c 128,-1,53
 881 316 881 316 858.5 320 c 128,-1,54
 836 324 836 324 809 324 c 0,55,56
 783 324 783 324 760 320 c 128,-1,57
 737 316 737 316 720 309 c 128,-1,58
 703 302 703 302 693.5 292.5 c 128,-1,59
 684 283 684 283 684 272 c 256,40,41
604 461 m 256,60,61
 604 478 604 478 619.5 493.5 c 128,-1,62
 635 509 635 509 663 520 c 128,-1,63
 691 531 691 531 728.5 537.5 c 128,-1,64
 766 544 766 544 809 544 c 0,65,66
 853 544 853 544 890.5 537.5 c 128,-1,67
 928 531 928 531 955.5 520 c 128,-1,68
 983 509 983 509 999 493.5 c 128,-1,69
 1015 478 1015 478 1015 461 c 256,70,71
 1015 444 1015 444 999 429 c 128,-1,72
 983 414 983 414 955.5 402.5 c 128,-1,73
 928 391 928 391 890.5 384.5 c 128,-1,74
 853 378 853 378 809 378 c 0,75,76
 766 378 766 378 728.5 384.5 c 128,-1,77
 691 391 691 391 663 402.5 c 128,-1,78
 635 414 635 414 619.5 429 c 128,-1,79
 604 444 604 444 604 461 c 256,60,61
604 648 m 256,80,81
 604 665 604 665 619.5 680.5 c 128,-1,82
 635 696 635 696 663 707 c 128,-1,83
 691 718 691 718 728.5 724.5 c 128,-1,84
 766 731 766 731 809 731 c 0,85,86
 853 731 853 731 890.5 724.5 c 128,-1,87
 928 718 928 718 955.5 707 c 128,-1,88
 983 696 983 696 999 680.5 c 128,-1,89
 1015 665 1015 665 1015 648 c 256,90,91
 1015 631 1015 631 999 616 c 128,-1,92
 983 601 983 601 955.5 589.5 c 128,-1,93
 928 578 928 578 890.5 571.5 c 128,-1,94
 853 565 853 565 809 565 c 0,95,96
 766 565 766 565 728.5 571.5 c 128,-1,97
 691 578 691 578 663 589.5 c 128,-1,98
 635 601 635 601 619.5 616 c 128,-1,99
 604 631 604 631 604 648 c 256,80,81
684 648 m 0,100,101
 684 637 684 637 693.5 627.5 c 128,-1,102
 703 618 703 618 720 611 c 128,-1,103
 737 604 737 604 760 600 c 128,-1,104
 783 596 783 596 809 596 c 0,105,106
 836 596 836 596 858.5 600 c 128,-1,107
 881 604 881 604 898 611 c 128,-1,108
 915 618 915 618 924.5 627.5 c 128,-1,109
 934 637 934 637 934 648 c 0,110,111
 934 658 934 658 924.5 668 c 128,-1,112
 915 678 915 678 898 685 c 128,-1,113
 881 692 881 692 858.5 696 c 128,-1,114
 836 700 836 700 809 700 c 0,115,116
 783 700 783 700 760 696 c 128,-1,117
 737 692 737 692 720 685 c 128,-1,118
 703 678 703 678 693.5 668 c 128,-1,119
 684 658 684 658 684 648 c 0,100,101
EndSplineSet
EndChar

StartChar: uni0086
Encoding: 134 134 103
Width: 1619
Flags: W
LayerCount: 2
Fore
SplineSet
604 85 m 0,0,1
 604 103 604 103 619.5 118 c 128,-1,2
 635 133 635 133 663 144.5 c 128,-1,3
 691 156 691 156 728.5 162.5 c 128,-1,4
 766 169 766 169 809 169 c 0,5,6
 853 169 853 169 890.5 162.5 c 128,-1,7
 928 156 928 156 955.5 144.5 c 128,-1,8
 983 133 983 133 999 118 c 128,-1,9
 1015 103 1015 103 1015 85 c 0,10,11
 1015 68 1015 68 999 53 c 128,-1,12
 983 38 983 38 955.5 27 c 128,-1,13
 928 16 928 16 890.5 9.5 c 128,-1,14
 853 3 853 3 809 3 c 0,15,16
 766 3 766 3 728.5 9.5 c 128,-1,17
 691 16 691 16 663 27 c 128,-1,18
 635 38 635 38 619.5 53 c 128,-1,19
 604 68 604 68 604 85 c 0,0,1
684 85 m 256,20,21
 684 74 684 74 693.5 64.5 c 128,-1,22
 703 55 703 55 720 48.5 c 128,-1,23
 737 42 737 42 760 38 c 128,-1,24
 783 34 783 34 809 34 c 0,25,26
 836 34 836 34 858.5 38 c 128,-1,27
 881 42 881 42 898 48.5 c 128,-1,28
 915 55 915 55 924.5 64.5 c 128,-1,29
 934 74 934 74 934 85 c 256,30,31
 934 96 934 96 924.5 105.5 c 128,-1,32
 915 115 915 115 898 122 c 128,-1,33
 881 129 881 129 858.5 133 c 128,-1,34
 836 137 836 137 809 137 c 0,35,36
 783 137 783 137 760 133 c 128,-1,37
 737 129 737 129 720 122 c 128,-1,38
 703 115 703 115 693.5 105.5 c 128,-1,39
 684 96 684 96 684 85 c 256,20,21
604 272 m 0,40,41
 604 290 604 290 619.5 305 c 128,-1,42
 635 320 635 320 663 331.5 c 128,-1,43
 691 343 691 343 728.5 349 c 128,-1,44
 766 355 766 355 809 355 c 0,45,46
 853 355 853 355 890.5 349 c 128,-1,47
 928 343 928 343 955.5 331.5 c 128,-1,48
 983 320 983 320 999 305 c 128,-1,49
 1015 290 1015 290 1015 272 c 0,50,51
 1015 255 1015 255 999 240 c 128,-1,52
 983 225 983 225 955.5 214 c 128,-1,53
 928 203 928 203 890.5 196 c 128,-1,54
 853 189 853 189 809 189 c 0,55,56
 766 189 766 189 728.5 196 c 128,-1,57
 691 203 691 203 663 214 c 128,-1,58
 635 225 635 225 619.5 240 c 128,-1,59
 604 255 604 255 604 272 c 0,40,41
604 461 m 256,60,61
 604 478 604 478 619.5 493.5 c 128,-1,62
 635 509 635 509 663 520 c 128,-1,63
 691 531 691 531 728.5 537.5 c 128,-1,64
 766 544 766 544 809 544 c 0,65,66
 853 544 853 544 890.5 537.5 c 128,-1,67
 928 531 928 531 955.5 520 c 128,-1,68
 983 509 983 509 999 493.5 c 128,-1,69
 1015 478 1015 478 1015 461 c 256,70,71
 1015 444 1015 444 999 429 c 128,-1,72
 983 414 983 414 955.5 402.5 c 128,-1,73
 928 391 928 391 890.5 384.5 c 128,-1,74
 853 378 853 378 809 378 c 0,75,76
 766 378 766 378 728.5 384.5 c 128,-1,77
 691 391 691 391 663 402.5 c 128,-1,78
 635 414 635 414 619.5 429 c 128,-1,79
 604 444 604 444 604 461 c 256,60,61
604 648 m 256,80,81
 604 665 604 665 619.5 680.5 c 128,-1,82
 635 696 635 696 663 707 c 128,-1,83
 691 718 691 718 728.5 724.5 c 128,-1,84
 766 731 766 731 809 731 c 0,85,86
 853 731 853 731 890.5 724.5 c 128,-1,87
 928 718 928 718 955.5 707 c 128,-1,88
 983 696 983 696 999 680.5 c 128,-1,89
 1015 665 1015 665 1015 648 c 256,90,91
 1015 631 1015 631 999 616 c 128,-1,92
 983 601 983 601 955.5 589.5 c 128,-1,93
 928 578 928 578 890.5 571.5 c 128,-1,94
 853 565 853 565 809 565 c 0,95,96
 766 565 766 565 728.5 571.5 c 128,-1,97
 691 578 691 578 663 589.5 c 128,-1,98
 635 601 635 601 619.5 616 c 128,-1,99
 604 631 604 631 604 648 c 256,80,81
684 648 m 0,100,101
 684 637 684 637 693.5 627.5 c 128,-1,102
 703 618 703 618 720 611 c 128,-1,103
 737 604 737 604 760 600 c 128,-1,104
 783 596 783 596 809 596 c 0,105,106
 836 596 836 596 858.5 600 c 128,-1,107
 881 604 881 604 898 611 c 128,-1,108
 915 618 915 618 924.5 627.5 c 128,-1,109
 934 637 934 637 934 648 c 0,110,111
 934 658 934 658 924.5 668 c 128,-1,112
 915 678 915 678 898 685 c 128,-1,113
 881 692 881 692 858.5 696 c 128,-1,114
 836 700 836 700 809 700 c 0,115,116
 783 700 783 700 760 696 c 128,-1,117
 737 692 737 692 720 685 c 128,-1,118
 703 678 703 678 693.5 668 c 128,-1,119
 684 658 684 658 684 648 c 0,100,101
EndSplineSet
EndChar

StartChar: uni0087
Encoding: 135 135 104
Width: 1619
Flags: W
LayerCount: 2
Fore
SplineSet
604 85 m 0,0,1
 604 103 604 103 619.5 118 c 128,-1,2
 635 133 635 133 663 144.5 c 128,-1,3
 691 156 691 156 728.5 162.5 c 128,-1,4
 766 169 766 169 809 169 c 0,5,6
 853 169 853 169 890.5 162.5 c 128,-1,7
 928 156 928 156 955.5 144.5 c 128,-1,8
 983 133 983 133 999 118 c 128,-1,9
 1015 103 1015 103 1015 85 c 0,10,11
 1015 68 1015 68 999 53 c 128,-1,12
 983 38 983 38 955.5 27 c 128,-1,13
 928 16 928 16 890.5 9.5 c 128,-1,14
 853 3 853 3 809 3 c 0,15,16
 766 3 766 3 728.5 9.5 c 128,-1,17
 691 16 691 16 663 27 c 128,-1,18
 635 38 635 38 619.5 53 c 128,-1,19
 604 68 604 68 604 85 c 0,0,1
604 272 m 0,20,21
 604 290 604 290 619.5 305 c 128,-1,22
 635 320 635 320 663 331.5 c 128,-1,23
 691 343 691 343 728.5 349 c 128,-1,24
 766 355 766 355 809 355 c 0,25,26
 853 355 853 355 890.5 349 c 128,-1,27
 928 343 928 343 955.5 331.5 c 128,-1,28
 983 320 983 320 999 305 c 128,-1,29
 1015 290 1015 290 1015 272 c 0,30,31
 1015 255 1015 255 999 240 c 128,-1,32
 983 225 983 225 955.5 214 c 128,-1,33
 928 203 928 203 890.5 196 c 128,-1,34
 853 189 853 189 809 189 c 0,35,36
 766 189 766 189 728.5 196 c 128,-1,37
 691 203 691 203 663 214 c 128,-1,38
 635 225 635 225 619.5 240 c 128,-1,39
 604 255 604 255 604 272 c 0,20,21
604 461 m 256,40,41
 604 478 604 478 619.5 493.5 c 128,-1,42
 635 509 635 509 663 520 c 128,-1,43
 691 531 691 531 728.5 537.5 c 128,-1,44
 766 544 766 544 809 544 c 0,45,46
 853 544 853 544 890.5 537.5 c 128,-1,47
 928 531 928 531 955.5 520 c 128,-1,48
 983 509 983 509 999 493.5 c 128,-1,49
 1015 478 1015 478 1015 461 c 256,50,51
 1015 444 1015 444 999 429 c 128,-1,52
 983 414 983 414 955.5 402.5 c 128,-1,53
 928 391 928 391 890.5 384.5 c 128,-1,54
 853 378 853 378 809 378 c 0,55,56
 766 378 766 378 728.5 384.5 c 128,-1,57
 691 391 691 391 663 402.5 c 128,-1,58
 635 414 635 414 619.5 429 c 128,-1,59
 604 444 604 444 604 461 c 256,40,41
604 648 m 256,60,61
 604 665 604 665 619.5 680.5 c 128,-1,62
 635 696 635 696 663 707 c 128,-1,63
 691 718 691 718 728.5 724.5 c 128,-1,64
 766 731 766 731 809 731 c 0,65,66
 853 731 853 731 890.5 724.5 c 128,-1,67
 928 718 928 718 955.5 707 c 128,-1,68
 983 696 983 696 999 680.5 c 128,-1,69
 1015 665 1015 665 1015 648 c 256,70,71
 1015 631 1015 631 999 616 c 128,-1,72
 983 601 983 601 955.5 589.5 c 128,-1,73
 928 578 928 578 890.5 571.5 c 128,-1,74
 853 565 853 565 809 565 c 0,75,76
 766 565 766 565 728.5 571.5 c 128,-1,77
 691 578 691 578 663 589.5 c 128,-1,78
 635 601 635 601 619.5 616 c 128,-1,79
 604 631 604 631 604 648 c 256,60,61
684 648 m 0,80,81
 684 637 684 637 693.5 627.5 c 128,-1,82
 703 618 703 618 720 611 c 128,-1,83
 737 604 737 604 760 600 c 128,-1,84
 783 596 783 596 809 596 c 0,85,86
 836 596 836 596 858.5 600 c 128,-1,87
 881 604 881 604 898 611 c 128,-1,88
 915 618 915 618 924.5 627.5 c 128,-1,89
 934 637 934 637 934 648 c 0,90,91
 934 658 934 658 924.5 668 c 128,-1,92
 915 678 915 678 898 685 c 128,-1,93
 881 692 881 692 858.5 696 c 128,-1,94
 836 700 836 700 809 700 c 0,95,96
 783 700 783 700 760 696 c 128,-1,97
 737 692 737 692 720 685 c 128,-1,98
 703 678 703 678 693.5 668 c 128,-1,99
 684 658 684 658 684 648 c 0,80,81
EndSplineSet
EndChar

StartChar: uni0088
Encoding: 136 136 105
Width: 1619
Flags: W
LayerCount: 2
Fore
SplineSet
604 85 m 0,0,1
 604 103 604 103 619.5 118 c 128,-1,2
 635 133 635 133 663 144.5 c 128,-1,3
 691 156 691 156 728.5 162.5 c 128,-1,4
 766 169 766 169 809 169 c 0,5,6
 853 169 853 169 890.5 162.5 c 128,-1,7
 928 156 928 156 955.5 144.5 c 128,-1,8
 983 133 983 133 999 118 c 128,-1,9
 1015 103 1015 103 1015 85 c 0,10,11
 1015 68 1015 68 999 53 c 128,-1,12
 983 38 983 38 955.5 27 c 128,-1,13
 928 16 928 16 890.5 9.5 c 128,-1,14
 853 3 853 3 809 3 c 0,15,16
 766 3 766 3 728.5 9.5 c 128,-1,17
 691 16 691 16 663 27 c 128,-1,18
 635 38 635 38 619.5 53 c 128,-1,19
 604 68 604 68 604 85 c 0,0,1
684 85 m 256,20,21
 684 74 684 74 693.5 64.5 c 128,-1,22
 703 55 703 55 720 48.5 c 128,-1,23
 737 42 737 42 760 38 c 128,-1,24
 783 34 783 34 809 34 c 0,25,26
 836 34 836 34 858.5 38 c 128,-1,27
 881 42 881 42 898 48.5 c 128,-1,28
 915 55 915 55 924.5 64.5 c 128,-1,29
 934 74 934 74 934 85 c 256,30,31
 934 96 934 96 924.5 105.5 c 128,-1,32
 915 115 915 115 898 122 c 128,-1,33
 881 129 881 129 858.5 133 c 128,-1,34
 836 137 836 137 809 137 c 0,35,36
 783 137 783 137 760 133 c 128,-1,37
 737 129 737 129 720 122 c 128,-1,38
 703 115 703 115 693.5 105.5 c 128,-1,39
 684 96 684 96 684 85 c 256,20,21
604 272 m 0,40,41
 604 290 604 290 619.5 305 c 128,-1,42
 635 320 635 320 663 331.5 c 128,-1,43
 691 343 691 343 728.5 349 c 128,-1,44
 766 355 766 355 809 355 c 0,45,46
 853 355 853 355 890.5 349 c 128,-1,47
 928 343 928 343 955.5 331.5 c 128,-1,48
 983 320 983 320 999 305 c 128,-1,49
 1015 290 1015 290 1015 272 c 0,50,51
 1015 255 1015 255 999 240 c 128,-1,52
 983 225 983 225 955.5 214 c 128,-1,53
 928 203 928 203 890.5 196 c 128,-1,54
 853 189 853 189 809 189 c 0,55,56
 766 189 766 189 728.5 196 c 128,-1,57
 691 203 691 203 663 214 c 128,-1,58
 635 225 635 225 619.5 240 c 128,-1,59
 604 255 604 255 604 272 c 0,40,41
684 272 m 256,60,61
 684 261 684 261 693.5 251.5 c 128,-1,62
 703 242 703 242 720 235 c 128,-1,63
 737 228 737 228 760 224 c 128,-1,64
 783 220 783 220 809 220 c 0,65,66
 836 220 836 220 858.5 224 c 128,-1,67
 881 228 881 228 898 235 c 128,-1,68
 915 242 915 242 924.5 251.5 c 128,-1,69
 934 261 934 261 934 272 c 256,70,71
 934 283 934 283 924.5 292.5 c 128,-1,72
 915 302 915 302 898 309 c 128,-1,73
 881 316 881 316 858.5 320 c 128,-1,74
 836 324 836 324 809 324 c 0,75,76
 783 324 783 324 760 320 c 128,-1,77
 737 316 737 316 720 309 c 128,-1,78
 703 302 703 302 693.5 292.5 c 128,-1,79
 684 283 684 283 684 272 c 256,60,61
604 461 m 256,80,81
 604 478 604 478 619.5 493.5 c 128,-1,82
 635 509 635 509 663 520 c 128,-1,83
 691 531 691 531 728.5 537.5 c 128,-1,84
 766 544 766 544 809 544 c 0,85,86
 853 544 853 544 890.5 537.5 c 128,-1,87
 928 531 928 531 955.5 520 c 128,-1,88
 983 509 983 509 999 493.5 c 128,-1,89
 1015 478 1015 478 1015 461 c 256,90,91
 1015 444 1015 444 999 429 c 128,-1,92
 983 414 983 414 955.5 402.5 c 128,-1,93
 928 391 928 391 890.5 384.5 c 128,-1,94
 853 378 853 378 809 378 c 0,95,96
 766 378 766 378 728.5 384.5 c 128,-1,97
 691 391 691 391 663 402.5 c 128,-1,98
 635 414 635 414 619.5 429 c 128,-1,99
 604 444 604 444 604 461 c 256,80,81
684 461 m 256,100,101
 684 450 684 450 693.5 440.5 c 128,-1,102
 703 431 703 431 720 424 c 128,-1,103
 737 417 737 417 760 413 c 128,-1,104
 783 409 783 409 809 409 c 0,105,106
 836 409 836 409 858.5 413 c 128,-1,107
 881 417 881 417 898 424 c 128,-1,108
 915 431 915 431 924.5 440.5 c 128,-1,109
 934 450 934 450 934 461 c 256,110,111
 934 472 934 472 924.5 481.5 c 128,-1,112
 915 491 915 491 898 498 c 128,-1,113
 881 505 881 505 858.5 509 c 128,-1,114
 836 513 836 513 809 513 c 0,115,116
 783 513 783 513 760 509 c 128,-1,117
 737 505 737 505 720 498 c 128,-1,118
 703 491 703 491 693.5 481.5 c 128,-1,119
 684 472 684 472 684 461 c 256,100,101
604 648 m 256,120,121
 604 665 604 665 619.5 680.5 c 128,-1,122
 635 696 635 696 663 707 c 128,-1,123
 691 718 691 718 728.5 724.5 c 128,-1,124
 766 731 766 731 809 731 c 0,125,126
 853 731 853 731 890.5 724.5 c 128,-1,127
 928 718 928 718 955.5 707 c 128,-1,128
 983 696 983 696 999 680.5 c 128,-1,129
 1015 665 1015 665 1015 648 c 256,130,131
 1015 631 1015 631 999 616 c 128,-1,132
 983 601 983 601 955.5 589.5 c 128,-1,133
 928 578 928 578 890.5 571.5 c 128,-1,134
 853 565 853 565 809 565 c 0,135,136
 766 565 766 565 728.5 571.5 c 128,-1,137
 691 578 691 578 663 589.5 c 128,-1,138
 635 601 635 601 619.5 616 c 128,-1,139
 604 631 604 631 604 648 c 256,120,121
EndSplineSet
EndChar

